font.ufo
<glyph name="numbersign" format="2">
	<unicode hex="0023"/>
	<advance width="582"/>
	<outline>
		<contour>
			<point x="81" y="0" type="line"/>
			<point x="144" y="0" type="line"/>
			<point x="318" y="646" type="line"/>
			<point x="255" y="646" type="line"/>
		</contour>
		<contour>
			<point x="48" y="261" type="line"/>
			<point x="28" y="170" type="line"/>
			<point x="508" y="170" type="line"/>
			<point x="528" y="261" type="line"/>
		</contour>
		<contour>
			<point x="566" y="388" type="line"/>
			<point x="585" y="479" type="line"/>
			<point x="106" y="479" type="line"/>
			<point x="86" y="388" type="line"/>
		</contour>
		<contour>
			<point x="299" y="0" type="line"/>
			<point x="362" y="0" type="line"/>
			<point x="536" y="646" type="line"/>
			<point x="473" y="646" type="line"/>
		</contour>
	</outline>
</glyph>
<glyph name="dollar" format="2">
	<unicode hex="0024"/>
	<advance width="539"/>
	<outline>
		<contour>
			<point x="173" y="-115" type="line"/>
			<point x="223" y="-115" type="line"/>
			<point x="306" y="318" type="line"/>
			<point x="258" y="318" type="line"/>
		</contour>
		<contour>
			<point x="224" y="-13" type="curve" smooth="yes"/>
			<point x="372" y="-13"/>
			<point x="469" y="65"/>
			<point x="469" y="180" type="curve" smooth="yes"/>
			<point x="469" y="268"/>
			<point x="421" y="311"/>
			<point x="327" y="368" type="curve" smooth="yes"/>
			<point x="300" y="385" type="line" smooth="yes"/>
			<point x="247" y="417"/>
			<point x="214" y="441"/>
			<point x="214" y="499" type="curve" smooth="yes"/>
			<point x="214" y="565"/>
			<point x="262" y="603"/>
			<point x="343" y="603" type="curve" smooth="yes"/>
			<point x="384" y="603"/>
			<point x="421" y="598"/>
			<point x="463" y="576" type="curve"/>
			<point x="407" y="620" type="line"/>
			<point x="414" y="539" type="line" smooth="yes"/>
			<point x="418" y="490"/>
			<point x="442" y="476"/>
			<point x="469" y="476" type="curve" smooth="yes"/>
			<point x="497" y="476"/>
			<point x="516" y="492"/>
			<point x="521" y="527" type="curve"/>
			<point x="511" y="604"/>
			<point x="448" y="653"/>
			<point x="340" y="653" type="curve" smooth="yes"/>
			<point x="199" y="653"/>
			<point x="109" y="574"/>
			<point x="109" y="465" type="curve" smooth="yes"/>
			<point x="109" y="380"/>
			<point x="155" y="333"/>
			<point x="236" y="283" type="curve" smooth="yes"/>
			<point x="264" y="266" type="line" smooth="yes"/>
			<point x="324" y="228"/>
			<point x="360" y="203"/>
			<point x="360" y="147" type="curve" smooth="yes"/>
			<point x="360" y="80"/>
			<point x="312" y="35"/>
			<point x="224" y="35" type="curve" smooth="yes"/>
			<point x="173" y="35"/>
			<point x="137" y="44"/>
			<point x="97" y="66" type="curve"/>
			<point x="155" y="22" type="line"/>
			<point x="146" y="109" type="line" smooth="yes"/>
			<point x="141" y="160"/>
			<point x="121" y="175"/>
			<point x="91" y="175" type="curve" smooth="yes"/>
			<point x="65" y="175"/>
			<point x="46" y="159"/>
			<point x="39" y="130" type="curve"/>
			<point x="47" y="37"/>
			<point x="110" y="-13"/>
		</contour>
		<contour>
			<point x="262" y="322" type="line"/>
			<point x="312" y="322" type="line"/>
			<point x="395" y="748" type="line"/>
			<point x="345" y="748" type="line"/>
		</contour>
	</outline>
</glyph>
<glyph name="ampersand" format="2">
	<unicode hex="0026"/>
	<advance width="723"/>
	<outline>
		<contour>
			<point x="319" y="-15" type="curve" smooth="yes"/>
			<point x="476" y="-15"/>
			<point x="570" y="66"/>
			<point x="570" y="175" type="curve" smooth="yes"/>
			<point x="570" y="236"/>
			<point x="536" y="284"/>
			<point x="463" y="295" type="curve"/>
			<point x="463" y="286" type="line"/>
			<point x="601" y="297"/>
			<point x="689" y="356"/>
			<point x="743" y="474" type="curve"/>
			<point x="659" y="512" type="line"/>
			<point x="617" y="395"/>
			<point x="551" y="329"/>
			<point x="424" y="319" type="curve"/>
			<point x="415" y="264" type="line"/>
			<point x="482" y="256"/>
			<point x="509" y="227"/>
			<point x="509" y="181" type="curve" smooth="yes"/>
			<point x="509" y="114"/>
			<point x="444" y="71"/>
			<point x="345" y="71" type="curve" smooth="yes"/>
			<point x="238" y="71"/>
			<point x="161" y="129"/>
			<point x="161" y="230" type="curve" smooth="yes"/>
			<point x="161" y="290"/>
			<point x="184" y="351"/>
			<point x="252" y="386" type="curve"/>
			<point x="231" y="389" type="line"/>
			<point x="268" y="353"/>
			<point x="308" y="335"/>
			<point x="351" y="335" type="curve" smooth="yes"/>
			<point x="383" y="335"/>
			<point x="403" y="350"/>
			<point x="403" y="377" type="curve" smooth="yes"/>
			<point x="403" y="406"/>
			<point x="372" y="427"/>
			<point x="305" y="427" type="curve" smooth="yes"/>
			<point x="291" y="427"/>
			<point x="277" y="425"/>
			<point x="262" y="425" type="curve"/>
			<point x="291" y="413" type="line"/>
			<point x="274" y="441"/>
			<point x="270" y="466"/>
			<point x="270" y="494" type="curve" smooth="yes"/>
			<point x="270" y="583"/>
			<point x="322" y="639"/>
			<point x="416" y="639" type="curve" smooth="yes"/>
			<point x="440" y="639"/>
			<point x="461" y="636"/>
			<point x="480" y="630" type="curve"/>
			<point x="418" y="662" type="line"/>
			<point x="442" y="597" type="line" smooth="yes"/>
			<point x="456" y="560"/>
			<point x="476" y="546"/>
			<point x="504" y="546" type="curve" smooth="yes"/>
			<point x="533" y="546"/>
			<point x="548" y="563"/>
			<point x="553" y="588" type="curve"/>
			<point x="539" y="644"/>
			<point x="484" y="680"/>
			<point x="394" y="680" type="curve" smooth="yes"/>
			<point x="262" y="680"/>
			<point x="183" y="599"/>
			<point x="183" y="506" type="curve" smooth="yes"/>
			<point x="183" y="468"/>
			<point x="197" y="434"/>
			<point x="230" y="403" type="curve"/>
			<point x="232" y="409" type="line"/>
			<point x="109" y="382"/>
			<point x="49" y="295"/>
			<point x="49" y="196" type="curve" smooth="yes"/>
			<point x="49" y="66"/>
			<point x="151" y="-15"/>
		</contour>
	</outline>
</glyph>
<glyph name="quotesingle" format="2">
	<unicode hex="0027"/>
	<advance width="270"/>
	<outline>
		<contour>
			<point x="224" y="728" type="curve" smooth="yes"/>
			<point x="186" y="728"/>
			<point x="167" y="703"/>
			<point x="158" y="675" type="curve" smooth="yes"/>
			<point x="149" y="647"/>
			<point x="144" y="591"/>
			<point x="142" y="515" type="curve" smooth="yes"/>
			<point x="137" y="403" type="line"/>
			<point x="195" y="403" type="line"/>
			<point x="243" y="523"/>
			<point x="285" y="627"/>
			<point x="285" y="673" type="curve" smooth="yes"/>
			<point x="285" y="706"/>
			<point x="261" y="728"/>
		</contour>
	</outline>
</glyph>
<glyph name="plus" format="2">
	<unicode hex="002B"/>
	<advance width="560"/>
	<outline>
		<contour>
			<point x="237" y="73" type="line"/>
			<point x="322" y="73" type="line"/>
			<point x="322" y="573" type="line"/>
			<point x="237" y="573" type="line"/>
		</contour>
		<contour>
			<point x="519" y="283" type="line"/>
			<point x="519" y="364" type="line"/>
			<point x="40" y="364" type="line"/>
			<point x="40" y="283" type="line"/>
		</contour>
	</outline>
</glyph>
<glyph name="hyphen" format="2">
	<unicode hex="002D"/>
	<unicode hex="00AD"/>
	<unicode hex="2010"/>
	<advance width="329"/>
	<outline>
		<contour>
			<point x="41" y="226" type="line"/>
			<point x="287" y="226" type="line"/>
			<point x="287" y="308" type="line"/>
			<point x="41" y="308" type="line"/>
		</contour>
	</outline>
</glyph>
<glyph name="slash" format="2">
	<unicode hex="002F"/>
	<advance width="362"/>
	<outline>
		<contour>
			<point x="-96" y="-160" type="line"/>
			<point x="-9" y="-160" type="line"/>
			<point x="436" y="710" type="line"/>
			<point x="349" y="710" type="line"/>
		</contour>
	</outline>
</glyph>
<glyph name="at" format="2">
	<unicode hex="0040"/>
	<advance width="920"/>
	<outline>
		<contour>
			<point x="351" y="40" type="curve" smooth="yes"/>
			<point x="410" y="40"/>
			<point x="446" y="75"/>
			<point x="472" y="128" type="curve"/>
			<point x="526" y="128" type="line"/>
			<point x="526" y="199" type="line"/>
			<point x="478" y="147"/>
			<point x="454" y="126"/>
			<point x="411" y="126" type="curve" smooth="yes"/>
			<point x="374" y="126"/>
			<point x="350" y="150"/>
			<point x="350" y="204" type="curve" smooth="yes"/>
			<point x="350" y="320"/>
			<point x="424" y="427"/>
			<point x="515" y="427" type="curve" smooth="yes"/>
			<point x="560" y="427"/>
			<point x="584" y="413"/>
			<point x="607" y="400" type="curve"/>
			<point x="607" y="439" type="line"/>
			<point x="589" y="466"/>
			<point x="568" y="492"/>
			<point x="512" y="492" type="curve" smooth="yes"/>
			<point x="396" y="492"/>
			<point x="240" y="345"/>
			<point x="240" y="173" type="curve" smooth="yes"/>
			<point x="240" y="83"/>
			<point x="287" y="40"/>
		</contour>
		<contour>
			<point x="611" y="40" type="curve" smooth="yes"/>
			<point x="745" y="40"/>
			<point x="867" y="164"/>
			<point x="867" y="357" type="curve" smooth="yes"/>
			<point x="867" y="532"/>
			<point x="752" y="657"/>
			<point x="543" y="657" type="curve" smooth="yes"/>
			<point x="265" y="657"/>
			<point x="58" y="433"/>
			<point x="58" y="161" type="curve" smooth="yes"/>
			<point x="58" y="-30"/>
			<point x="193" y="-157"/>
			<point x="402" y="-157" type="curve" smooth="yes"/>
			<point x="485" y="-157"/>
			<point x="554" y="-137"/>
			<point x="597" y="-117" type="curve"/>
			<point x="583" y="-70" type="line"/>
			<point x="547" y="-86"/>
			<point x="485" y="-101"/>
			<point x="416" y="-101" type="curve" smooth="yes"/>
			<point x="240" y="-101"/>
			<point x="135" y="2"/>
			<point x="135" y="175" type="curve" smooth="yes"/>
			<point x="135" y="401"/>
			<point x="311" y="602"/>
			<point x="537" y="602" type="curve" smooth="yes"/>
			<point x="704" y="602"/>
			<point x="799" y="505"/>
			<point x="799" y="353" type="curve" smooth="yes"/>
			<point x="799" y="205"/>
			<point x="710" y="109"/>
			<point x="649" y="109" type="curve" smooth="yes"/>
			<point x="607" y="109"/>
			<point x="597" y="133"/>
			<point x="611" y="195" type="curve" smooth="yes"/>
			<point x="676" y="493" type="line"/>
			<point x="634" y="493" type="line"/>
			<point x="555" y="437" type="line"/>
			<point x="502" y="195" type="line" smooth="yes"/>
			<point x="478" y="87"/>
			<point x="527" y="40"/>
		</contour>
	</outline>
</glyph>
<glyph name="B" format="2">
	<unicode hex="0042"/>
	<advance width="665"/>
	<outline>
		<contour>
			<point x="12" y="0" type="line"/>
			<point x="152" y="0" type="line"/>
			<point x="152" y="66" type="line"/>
			<point x="136" y="66" type="line"/>
			<point x="23" y="66" type="line"/>
		</contour>
		<contour>
			<point x="95" y="0" type="line"/>
			<point x="227" y="0" type="line"/>
			<point x="245" y="101"/>
			<point x="263" y="201"/>
			<point x="282" y="302" type="curve" smooth="yes"/>
			<point x="347" y="664" type="line"/>
			<point x="215" y="664" type="line"/>
			<point x="197" y="563"/>
			<point x="179" y="464"/>
			<point x="161" y="363" type="curve" smooth="yes"/>
		</contour>
		<contour>
			<point x="114" y="598" type="line"/>
			<point x="233" y="598" type="line"/>
			<point x="249" y="598" type="line"/>
			<point x="249" y="664" type="line"/>
			<point x="126" y="664" type="line"/>
		</contour>
		<contour>
			<point x="178" y="0" type="line"/>
			<point x="314" y="0" type="line" smooth="yes"/>
			<point x="513" y="0"/>
			<point x="611" y="88"/>
			<point x="611" y="201" type="curve" smooth="yes"/>
			<point x="611" y="293"/>
			<point x="529" y="337"/>
			<point x="392" y="337" type="curve"/>
			<point x="392" y="359" type="line"/>
			<point x="525" y="361"/>
			<point x="622" y="413"/>
			<point x="622" y="518" type="curve" smooth="yes"/>
			<point x="622" y="610"/>
			<point x="542" y="664"/>
			<point x="395" y="664" type="curve" smooth="yes"/>
			<point x="293" y="664" type="line"/>
			<point x="293" y="599" type="line"/>
			<point x="385" y="599" type="line" smooth="yes"/>
			<point x="460" y="599"/>
			<point x="497" y="563"/>
			<point x="497" y="501" type="curve" smooth="yes"/>
			<point x="497" y="430"/>
			<point x="449" y="374"/>
			<point x="349" y="374" type="curve" smooth="yes"/>
			<point x="233" y="374" type="line"/>
			<point x="233" y="318" type="line"/>
			<point x="349" y="318" type="line" smooth="yes"/>
			<point x="444" y="318"/>
			<point x="481" y="275"/>
			<point x="481" y="204" type="curve" smooth="yes"/>
			<point x="481" y="125"/>
			<point x="425" y="64"/>
			<point x="311" y="64" type="curve" smooth="yes"/>
			<point x="178" y="64" type="line"/>
		</contour>
	</outline>
	<anchor name="aboveUC" x="374" y="684"/>
	<anchor name="belowLC" x="292" y="-20"/>
</glyph>
<glyph name="F" format="2">
	<unicode hex="0046"/>
	<advance width="567"/>
	<outline>
		<contour>
			<point x="-5" y="0" type="line"/>
			<point x="301" y="0" type="line"/>
			<point x="311" y="53" type="line"/>
			<point x="175" y="63" type="line"/>
			<point x="137" y="63" type="line"/>
			<point x="6" y="53" type="line"/>
		</contour>
		<contour>
			<point x="78" y="0" type="line"/>
			<point x="203" y="0" type="line"/>
			<point x="220" y="102"/>
			<point x="238" y="205"/>
			<point x="257" y="308" type="curve" smooth="yes"/>
			<point x="323" y="664" type="line"/>
			<point x="198" y="664" type="line"/>
			<point x="181" y="561"/>
			<point x="163" y="459"/>
			<point x="144" y="357" type="curve" smooth="yes"/>
		</contour>
		<contour>
			<point x="102" y="610" type="line"/>
			<point x="228" y="600" type="line"/>
			<point x="242" y="600" type="line"/>
			<point x="250" y="664" type="line"/>
			<point x="112" y="664" type="line"/>
		</contour>
		<contour>
			<point x="202" y="311" type="line"/>
			<point x="417" y="311" type="line"/>
			<point x="423" y="366" type="line"/>
			<point x="209" y="366" type="line"/>
		</contour>
		<contour>
			<point x="258" y="606" type="line"/>
			<point x="555" y="606" type="line"/>
			<point x="508" y="653" type="line"/>
			<point x="510" y="488" type="line"/>
			<point x="577" y="488" type="line"/>
			<point x="604" y="664" type="line"/>
			<point x="265" y="664" type="line"/>
		</contour>
		<contour>
			<point x="382" y="220" type="line"/>
			<point x="436" y="220" type="line"/>
			<point x="478" y="452" type="line"/>
			<point x="425" y="452" type="line"/>
			<point x="388" y="351" type="line"/>
			<point x="384" y="328" type="line"/>
		</contour>
	</outline>
	<anchor name="aboveUC" x="376" y="684"/>
	<anchor name="belowLC" x="146" y="-20"/>
</glyph>
<glyph name="I" format="2">
	<unicode hex="0049"/>
	<advance width="375"/>
	<outline>
		<contour>
			<point x="-5" y="0" type="line"/>
			<point x="289" y="0" type="line"/>
			<point x="299" y="53" type="line"/>
			<point x="171" y="63" type="line"/>
			<point x="138" y="63" type="line"/>
			<point x="6" y="53" type="line"/>
		</contour>
		<contour>
			<point x="78" y="0" type="line"/>
			<point x="203" y="0" type="line"/>
			<point x="220" y="102"/>
			<point x="238" y="205"/>
			<point x="257" y="308" type="curve" smooth="yes"/>
			<point x="323" y="664" type="line"/>
			<point x="198" y="664" type="line"/>
			<point x="181" y="561"/>
			<point x="163" y="459"/>
			<point x="144" y="357" type="curve" smooth="yes"/>
		</contour>
		<contour>
			<point x="102" y="610" type="line"/>
			<point x="233" y="600" type="line"/>
			<point x="266" y="600" type="line"/>
			<point x="395" y="610" type="line"/>
			<point x="405" y="664" type="line"/>
			<point x="112" y="664" type="line"/>
		</contour>
	</outline>
	<anchor name="aboveUC" x="260" y="684"/>
	<anchor name="belowLC" x="142" y="-20"/>
	<anchor name="ogonek" x="189" y="0"/>
</glyph>
<glyph name="K" format="2">
	<unicode hex="004B"/>
	<advance width="692"/>
	<outline>
		<contour>
			<point x="-5" y="0" type="line"/>
			<point x="278" y="0" type="line"/>
			<point x="289" y="53" type="line"/>
			<point x="168" y="63" type="line"/>
			<point x="136" y="63" type="line"/>
			<point x="5" y="53" type="line"/>
		</contour>
		<contour>
			<point x="76" y="0" type="line"/>
			<point x="201" y="0" type="line"/>
			<point x="218" y="102"/>
			<point x="236" y="205"/>
			<point x="255" y="308" type="curve" smooth="yes"/>
			<point x="322" y="664" type="line"/>
			<point x="196" y="664" type="line"/>
			<point x="179" y="561"/>
			<point x="161" y="459"/>
			<point x="142" y="357" type="curve" smooth="yes"/>
		</contour>
		<contour>
			<point x="101" y="610" type="line"/>
			<point x="230" y="600" type="line"/>
			<point x="263" y="600" type="line"/>
			<point x="388" y="610" type="line"/>
			<point x="399" y="664" type="line"/>
			<point x="112" y="664" type="line"/>
		</contour>
		<contour>
			<point x="185" y="206" type="line"/>
			<point x="695" y="664" type="line"/>
			<point x="620" y="664" type="line"/>
			<point x="261" y="329" type="line"/>
			<point x="214" y="280" type="line"/>
			<point x="182" y="280" type="line"/>
		</contour>
		<contour>
			<point x="484" y="0" type="line"/>
			<point x="619" y="0" type="line"/>
			<point x="397" y="424" type="line"/>
			<point x="311" y="343" type="line"/>
		</contour>
		<contour>
			<point x="379" y="0" type="line"/>
			<point x="653" y="0" type="line"/>
			<point x="662" y="53" type="line"/>
			<point x="544" y="63" type="line"/>
			<point x="506" y="63" type="line"/>
			<point x="388" y="53" type="line"/>
		</contour>
		<contour>
			<point x="484" y="610" type="line"/>
			<point x="576" y="600" type="line"/>
			<point x="606" y="600" type="line"/>
			<point x="717" y="610" type="line"/>
			<point x="728" y="664" type="line"/>
			<point x="494" y="664" type="line"/>
		</contour>
	</outline>
	<anchor name="aboveUC" x="434" y="684"/>
	<anchor name="belowLC" x="323" y="-20"/>
</glyph>
<glyph name="L" format="2">
	<unicode hex="004C"/>
	<advance width="578"/>
	<outline>
		<contour>
			<point x="-5" y="0" type="line"/>
			<point x="135" y="0" type="line"/>
			<point x="143" y="63" type="line"/>
			<point x="130" y="63" type="line"/>
			<point x="6" y="53" type="line"/>
		</contour>
		<contour>
			<point x="78" y="0" type="line"/>
			<point x="203" y="0" type="line"/>
			<point x="220" y="102"/>
			<point x="238" y="205"/>
			<point x="257" y="308" type="curve" smooth="yes"/>
			<point x="323" y="664" type="line"/>
			<point x="198" y="664" type="line"/>
			<point x="181" y="561"/>
			<point x="163" y="459"/>
			<point x="144" y="357" type="curve" smooth="yes"/>
		</contour>
		<contour>
			<point x="102" y="610" type="line"/>
			<point x="231" y="600" type="line"/>
			<point x="271" y="600" type="line"/>
			<point x="406" y="610" type="line"/>
			<point x="416" y="664" type="line"/>
			<point x="112" y="664" type="line"/>
		</contour>
		<contour>
			<point x="149" y="0" type="line"/>
			<point x="504" y="0" type="line"/>
			<point x="543" y="195" type="line"/>
			<point x="477" y="195" type="line"/>
			<point x="404" y="7" type="line"/>
			<point x="481" y="57" type="line"/>
			<point x="156" y="57" type="line"/>
		</contour>
	</outline>
	<anchor name="aboveUC" x="258" y="684"/>
	<anchor name="belowLC" x="267" y="-20"/>
</glyph>
<glyph name="M" format="2">
	<unicode hex="004D"/>
	<advance width="923"/>
	<outline>
		<contour>
			<point x="-21" y="0" type="line"/>
			<point x="220" y="0" type="line"/>
			<point x="230" y="53" type="line"/>
			<point x="120" y="63" type="line"/>
			<point x="93" y="63" type="line"/>
			<point x="-11" y="53" type="line"/>
		</contour>
		<contour>
			<point x="66" y="0" type="line"/>
			<point x="124" y="0" type="line"/>
			<point x="196" y="313" type="line"/>
			<point x="270" y="652" type="line"/>
			<point x="219" y="652" type="line"/>
		</contour>
		<contour>
			<point x="349" y="0" type="line"/>
			<point x="408" y="0" type="line"/>
			<point x="689" y="496" type="line"/>
			<point x="734" y="589" type="line"/>
			<point x="771" y="589" type="line"/>
			<point x="771" y="664" type="line"/>
			<point x="719" y="664" type="line"/>
			<point x="472" y="225" type="line"/>
			<point x="428" y="130" type="line"/>
			<point x="444" y="130" type="line"/>
			<point x="351" y="664" type="line"/>
			<point x="135" y="664" type="line"/>
			<point x="125" y="610" type="line"/>
			<point x="228" y="603" type="line"/>
			<point x="232" y="575" type="line"/>
			<point x="244" y="565" type="line"/>
		</contour>
		<contour>
			<point x="552" y="0" type="line"/>
			<point x="842" y="0" type="line"/>
			<point x="851" y="54" type="line"/>
			<point x="721" y="64" type="line"/>
			<point x="691" y="64" type="line"/>
			<point x="561" y="54" type="line"/>
		</contour>
		<contour>
			<point x="633" y="0" type="line"/>
			<point x="757" y="0" type="line"/>
			<point x="770" y="104"/>
			<point x="784" y="209"/>
			<point x="799" y="313" type="curve" smooth="yes"/>
			<point x="849" y="664" type="line"/>
			<point x="751" y="664" type="line"/>
			<point x="722" y="614" type="line"/>
		</contour>
		<contour>
			<point x="779" y="600" type="line"/>
			<point x="802" y="600" type="line"/>
			<point x="925" y="610" type="line"/>
			<point x="934" y="664" type="line"/>
			<point x="782" y="664" type="line"/>
		</contour>
	</outline>
	<anchor name="aboveUC" x="530" y="684"/>
	<anchor name="belowLC" x="384" y="-20"/>
</glyph>
<glyph name="N" format="2">
	<unicode hex="004E"/>
	<advance width="726"/>
	<outline>
		<contour>
			<point x="-10" y="0" type="line"/>
			<point x="238" y="0" type="line"/>
			<point x="247" y="53" type="line"/>
			<point x="127" y="63" type="line"/>
			<point x="104" y="63" type="line"/>
			<point x="0" y="53" type="line"/>
		</contour>
		<contour>
			<point x="72" y="0" type="line"/>
			<point x="133" y="0" type="line"/>
			<point x="191" y="318" type="line"/>
			<point x="247" y="653" type="line"/>
			<point x="195" y="653" type="line"/>
		</contour>
		<contour>
			<point x="519" y="610" type="line"/>
			<point x="644" y="600" type="line"/>
			<point x="667" y="600" type="line"/>
			<point x="767" y="610" type="line"/>
			<point x="777" y="664" type="line"/>
			<point x="529" y="664" type="line"/>
		</contour>
		<contour>
			<point x="585" y="137" type="line"/>
			<point x="557" y="137" type="line"/>
			<point x="306" y="664" type="line"/>
			<point x="109" y="664" type="line"/>
			<point x="99" y="610" type="line"/>
			<point x="194" y="604" type="line"/>
			<point x="206" y="568" type="line"/>
			<point x="218" y="562" type="line"/>
			<point x="493" y="-4" type="line"/>
			<point x="573" y="-4" type="line"/>
			<point x="696" y="664" type="line"/>
			<point x="635" y="664" type="line"/>
			<point x="579" y="352" type="line"/>
			<point x="538" y="86" type="line"/>
		</contour>
	</outline>
	<anchor name="aboveUC" x="431" y="684"/>
	<anchor name="belowLC" x="336" y="-20"/>
</glyph>
<glyph name="Q" format="2">
	<unicode hex="0051"/>
	<advance width="736"/>
	<outline>
		<contour>
			<point x="477" y="-225" type="curve" smooth="yes"/>
			<point x="560" y="-225"/>
			<point x="610" y="-200"/>
			<point x="655" y="-171" type="curve"/>
			<point x="634" y="-122" type="line"/>
			<point x="607" y="-135"/>
			<point x="570" y="-149"/>
			<point x="520" y="-149" type="curve" smooth="yes"/>
			<point x="419" y="-149"/>
			<point x="352" y="-92"/>
			<point x="363" y="24" type="curve"/>
			<point x="246" y="24" type="line"/>
			<point x="231" y="-145"/>
			<point x="332" y="-225"/>
		</contour>
		<component base="O"/>
	</outline>
	<anchor name="aboveUC" x="438" y="684"/>
</glyph>
<glyph name="S" format="2">
	<unicode hex="0053"/>
	<advance width="507"/>
	<outline>
		<contour>
			<point x="19" y="29" type="line"/>
			<point x="61" y="2"/>
			<point x="134" y="-17"/>
			<point x="207" y="-17" type="curve" smooth="yes"/>
			<point x="348" y="-17"/>
			<point x="451" y="60"/>
			<point x="451" y="184" type="curve" smooth="yes"/>
			<point x="451" y="263"/>
			<point x="409" y="317"/>
			<point x="309" y="390" type="curve" smooth="yes"/>
			<point x="238" y="440"/>
			<point x="211" y="474"/>
			<point x="211" y="523" type="curve" smooth="yes"/>
			<point x="211" y="585"/>
			<point x="260" y="622"/>
			<point x="344" y="622" type="curve" smooth="yes"/>
			<point x="385" y="622"/>
			<point x="419" y="613"/>
			<point x="458" y="590" type="curve"/>
			<point x="406" y="637" type="line"/>
			<point x="416" y="491" type="line"/>
			<point x="488" y="491" type="line"/>
			<point x="507" y="635" type="line"/>
			<point x="459" y="664"/>
			<point x="396" y="680"/>
			<point x="332" y="680" type="curve" smooth="yes"/>
			<point x="198" y="680"/>
			<point x="99" y="605"/>
			<point x="99" y="488" type="curve" smooth="yes"/>
			<point x="99" y="412"/>
			<point x="140" y="354"/>
			<point x="237" y="284" type="curve" smooth="yes"/>
			<point x="316" y="227"/>
			<point x="335" y="192"/>
			<point x="335" y="148" type="curve" smooth="yes"/>
			<point x="335" y="84"/>
			<point x="290" y="41"/>
			<point x="203" y="41" type="curve" smooth="yes"/>
			<point x="153" y="41"/>
			<point x="104" y="53"/>
			<point x="66" y="73" type="curve"/>
			<point x="121" y="27" type="line"/>
			<point x="108" y="180" type="line"/>
			<point x="37" y="180" type="line"/>
		</contour>
	</outline>
	<anchor name="aboveUC" x="335" y="684"/>
	<anchor name="baseLC" x="210" y="0"/>
	<anchor name="belowLC" x="218" y="-20"/>
</glyph>
<glyph name="T" format="2">
	<unicode hex="0054"/>
	<advance width="640"/>
	<outline>
		<contour>
			<point x="83" y="474" type="line"/>
			<point x="151" y="474" type="line"/>
			<point x="230" y="642" type="line"/>
			<point x="148" y="599" type="line"/>
			<point x="622" y="599" type="line"/>
			<point x="577" y="633" type="line"/>
			<point x="587" y="474" type="line"/>
			<point x="657" y="474" type="line"/>
			<point x="685" y="664" type="line"/>
			<point x="123" y="664" type="line"/>
		</contour>
		<contour>
			<point x="119" y="0" type="line"/>
			<point x="453" y="0" type="line"/>
			<point x="464" y="66" type="line"/>
			<point x="320" y="66" type="line"/>
			<point x="268" y="66" type="line"/>
			<point x="130" y="66" type="line"/>
		</contour>
		<contour>
			<point x="217" y="0" type="line"/>
			<point x="349" y="0" type="line"/>
			<point x="367" y="101"/>
			<point x="385" y="201"/>
			<point x="403" y="302" type="curve" smooth="yes"/>
			<point x="469" y="664" type="line"/>
			<point x="337" y="664" type="line"/>
			<point x="319" y="563"/>
			<point x="301" y="464"/>
			<point x="282" y="363" type="curve" smooth="yes"/>
		</contour>
	</outline>
	<anchor name="aboveUC" x="392" y="684"/>
	<anchor name="belowLC" x="280" y="-20"/>
	<anchor name="baseLC" x="283" y="0"/>
</glyph>
<glyph name="W" format="2">
	<unicode hex="0057"/>
	<advance width="988"/>
	<outline>
		<contour>
			<point x="198" y="598" type="line"/>
			<point x="264" y="598" type="line"/>
			<point x="364" y="598" type="line"/>
			<point x="377" y="664" type="line"/>
			<point x="111" y="664" type="line"/>
			<point x="97" y="598" type="line"/>
		</contour>
		<contour>
			<point x="219" y="0" type="line"/>
			<point x="334" y="0" type="line"/>
			<point x="471" y="321" type="line"/>
			<point x="540" y="536" type="line"/>
			<point x="551" y="536" type="line"/>
			<point x="593" y="0" type="line"/>
			<point x="707" y="0" type="line"/>
			<point x="995" y="664" type="line"/>
			<point x="920" y="664" type="line"/>
			<point x="790" y="334" type="line"/>
			<point x="715" y="91" type="line"/>
			<point x="702" y="91" type="line"/>
			<point x="658" y="664" type="line"/>
			<point x="557" y="664" type="line"/>
			<point x="413" y="334" type="line"/>
			<point x="335" y="91" type="line"/>
			<point x="321" y="91" type="line"/>
			<point x="293" y="664" type="line"/>
			<point x="161" y="664" type="line"/>
		</contour>
		<contour>
			<point x="573" y="598" type="line"/>
			<point x="617" y="598" type="line"/>
			<point x="727" y="598" type="line"/>
			<point x="741" y="664" type="line"/>
			<point x="466" y="664" type="line"/>
			<point x="452" y="598" type="line"/>
		</contour>
		<contour>
			<point x="906" y="598" type="line"/>
			<point x="939" y="598" type="line"/>
			<point x="1030" y="598" type="line"/>
			<point x="1043" y="664" type="line"/>
			<point x="837" y="664" type="line"/>
			<point x="823" y="598" type="line"/>
		</contour>
	</outline>
	<anchor name="aboveUC" x="602" y="684"/>
	<anchor name="belowLC" x="453" y="-20"/>
</glyph>
<glyph name="Y" format="2">
	<unicode hex="0059"/>
	<advance width="592"/>
	<outline>
		<contour>
			<point x="58" y="610" type="line"/>
			<point x="185" y="600" type="line"/>
			<point x="225" y="600" type="line"/>
			<point x="346" y="610" type="line"/>
			<point x="356" y="664" type="line"/>
			<point x="68" y="664" type="line"/>
		</contour>
		<contour>
			<point x="101" y="0" type="line"/>
			<point x="417" y="0" type="line"/>
			<point x="427" y="53" type="line"/>
			<point x="288" y="63" type="line"/>
			<point x="251" y="63" type="line"/>
			<point x="111" y="53" type="line"/>
		</contour>
		<contour>
			<point x="253" y="240" type="line"/>
			<point x="346" y="240" type="line"/>
			<point x="627" y="664" type="line"/>
			<point x="561" y="664" type="line"/>
			<point x="374" y="370" type="line"/>
			<point x="342" y="312" type="line"/>
			<point x="350" y="312" type="line"/>
			<point x="246" y="664" type="line"/>
			<point x="111" y="664" type="line"/>
		</contour>
		<contour>
			<point x="194" y="0" type="line"/>
			<point x="319" y="0" type="line"/>
			<point x="337" y="103"/>
			<point x="355" y="207"/>
			<point x="374" y="310" type="curve"/>
			<point x="252" y="310" type="line"/>
		</contour>
		<contour>
			<point x="443" y="610" type="line"/>
			<point x="541" y="600" type="line"/>
			<point x="569" y="600" type="line"/>
			<point x="663" y="610" type="line"/>
			<point x="674" y="664" type="line"/>
			<point x="453" y="664" type="line"/>
		</contour>
	</outline>
	<anchor name="aboveUC" x="403" y="684"/>
	<anchor name="belowLC" x="257" y="-20"/>
</glyph>
<glyph name="Z" format="2">
	<unicode hex="005A"/>
	<advance width="558"/>
	<outline>
		<contour>
			<point x="-8" y="0" type="line"/>
			<point x="488" y="0" type="line"/>
			<point x="527" y="184" type="line"/>
			<point x="458" y="184" type="line"/>
			<point x="394" y="24" type="line"/>
			<point x="448" y="56" type="line"/>
			<point x="291" y="56" type="line"/>
			<point x="142" y="52" type="line"/>
			<point x="143" y="76" type="line"/>
			<point x="125" y="32" type="line"/>
			<point x="583" y="616" type="line"/>
			<point x="592" y="664" type="line"/>
			<point x="110" y="664" type="line"/>
			<point x="73" y="479" type="line"/>
			<point x="141" y="479" type="line"/>
			<point x="204" y="640" type="line"/>
			<point x="152" y="608" type="line"/>
			<point x="302" y="608" type="line"/>
			<point x="441" y="611" type="line"/>
			<point x="439" y="586" type="line"/>
			<point x="458" y="631" type="line"/>
			<point x="1" y="47" type="line"/>
		</contour>
	</outline>
	<anchor name="aboveUC" x="349" y="684"/>
	<anchor name="belowLC" x="254" y="-20"/>
</glyph>
<glyph name="backslash" format="2">
	<unicode hex="005C"/>
	<advance width="355"/>
	<outline>
		<contour>
			<point x="267" y="-160" type="line"/>
			<point x="177" y="710" type="line"/>
			<point x="98" y="710" type="line"/>
			<point x="187" y="-160" type="line"/>
		</contour>
	</outline>
</glyph>
<glyph name="asciicircum" format="2">
	<unicode hex="005E"/>
	<advance width="560"/>
	<outline>
		<contour>
			<point x="66" y="219" type="line"/>
			<point x="142" y="180" type="line"/>
			<point x="315" y="482" type="line"/>
			<point x="244" y="482" type="line"/>
			<point x="417" y="180" type="line"/>
			<point x="493" y="219" type="line"/>
			<point x="318" y="506" type="line"/>
			<point x="241" y="506" type="line"/>
		</contour>
	</outline>
</glyph>
<glyph name="underscore" format="2">
	<unicode hex="005F"/>
	<advance width="526"/>
	<outline>
		<contour>
			<point x="-67" y="-57" type="line"/>
			<point x="472" y="-57" type="line"/>
			<point x="472" y="25" type="line"/>
			<point x="-67" y="25" type="line"/>
		</contour>
	</outline>
</glyph>
<glyph name="c" format="2">
	<unicode hex="0063"/>
	<advance width="490"/>
	<outline>
		<contour>
			<point x="237" y="-13" type="curve" smooth="yes"/>
			<point x="344" y="-13"/>
			<point x="417" y="58"/>
			<point x="458" y="129" type="curve"/>
			<point x="414" y="163" type="line"/>
			<point x="375" y="114"/>
			<point x="339" y="77"/>
			<point x="279" y="77" type="curve" smooth="yes"/>
			<point x="219" y="77"/>
			<point x="176" y="117"/>
			<point x="176" y="211" type="curve" smooth="yes"/>
			<point x="176" y="339"/>
			<point x="263" y="456"/>
			<point x="308" y="477" type="curve"/>
			<point x="356" y="477" type="line"/>
			<point x="356" y="496" type="line"/>
			<point x="315" y="496" type="line"/>
			<point x="347" y="446" type="line" smooth="yes"/>
			<point x="372" y="402"/>
			<point x="394" y="386"/>
			<point x="425" y="386" type="curve" smooth="yes"/>
			<point x="467" y="386"/>
			<point x="484" y="416"/>
			<point x="488" y="448" type="curve"/>
			<point x="474" y="491"/>
			<point x="427" y="524"/>
			<point x="344" y="524" type="curve" smooth="yes"/>
			<point x="192" y="524"/>
			<point x="50" y="371"/>
			<point x="50" y="188" type="curve" smooth="yes"/>
			<point x="50" y="59"/>
			<point x="120" y="-13"/>
		</contour>
	</outline>
	<anchor name="aboveLC" x="340" y="531"/>
	<anchor name="belowLC" x="232" y="-20"/>
	<anchor name="baseLC" x="229" y="0"/>
</glyph>
<glyph name="d" format="2">
	<unicode hex="0064"/>
	<advance width="622"/>
	<outline>
		<contour>
			<point x="166" y="-13" type="curve" smooth="yes"/>
			<point x="241" y="-13"/>
			<point x="290" y="35"/>
			<point x="335" y="105" type="curve"/>
			<point x="375" y="105" type="line"/>
			<point x="380" y="183" type="line"/>
			<point x="305" y="98"/>
			<point x="268" y="81"/>
			<point x="231" y="81" type="curve" smooth="yes"/>
			<point x="191" y="81"/>
			<point x="174" y="109"/>
			<point x="174" y="176" type="curve" smooth="yes"/>
			<point x="174" y="244"/>
			<point x="198" y="321"/>
			<point x="239" y="375" type="curve" smooth="yes"/>
			<point x="271" y="422"/>
			<point x="317" y="455"/>
			<point x="365" y="455" type="curve" smooth="yes"/>
			<point x="402" y="455"/>
			<point x="430" y="443"/>
			<point x="462" y="407" type="curve"/>
			<point x="500" y="462" type="line"/>
			<point x="462" y="505"/>
			<point x="439" y="524"/>
			<point x="383" y="524" type="curve" smooth="yes"/>
			<point x="226" y="524"/>
			<point x="43" y="325"/>
			<point x="43" y="128" type="curve" smooth="yes"/>
			<point x="43" y="26"/>
			<point x="91" y="-13"/>
		</contour>
		<contour>
			<point x="452" y="-13" type="curve" smooth="yes"/>
			<point x="525" y="-13"/>
			<point x="577" y="37"/>
			<point x="618" y="119" type="curve"/>
			<point x="574" y="145" type="line"/>
			<point x="540" y="86"/>
			<point x="525" y="70"/>
			<point x="501" y="70" type="curve" smooth="yes"/>
			<point x="483" y="70"/>
			<point x="474" y="82"/>
			<point x="474" y="100" type="curve" smooth="yes"/>
			<point x="474" y="117"/>
			<point x="480" y="138"/>
			<point x="487" y="174" type="curve" smooth="yes"/>
			<point x="601" y="723" type="line"/>
			<point x="558" y="733" type="line"/>
			<point x="364" y="696" type="line"/>
			<point x="353" y="641" type="line"/>
			<point x="500" y="626" type="line"/>
			<point x="469" y="659" type="line"/>
			<point x="429" y="465" type="line"/>
			<point x="418" y="465" type="line"/>
			<point x="346" y="131" type="line"/>
			<point x="361" y="131" type="line" smooth="yes"/>
			<point x="358" y="115"/>
			<point x="355" y="99"/>
			<point x="355" y="78" type="curve" smooth="yes"/>
			<point x="355" y="16"/>
			<point x="389" y="-13"/>
		</contour>
	</outline>
	<anchor name="aboveLC" x="524" y="733"/>
	<anchor name="belowLC" x="288" y="-20"/>
</glyph>
<glyph name="e" format="2">
	<unicode hex="0065"/>
	<advance width="508"/>
	<outline>
		<contour>
			<point x="243" y="-13" type="curve" smooth="yes"/>
			<point x="352" y="-13"/>
			<point x="420" y="58"/>
			<point x="461" y="126" type="curve"/>
			<point x="417" y="160" type="line"/>
			<point x="377" y="113"/>
			<point x="345" y="76"/>
			<point x="282" y="76" type="curve" smooth="yes"/>
			<point x="220" y="76"/>
			<point x="172" y="115"/>
			<point x="172" y="209" type="curve" smooth="yes"/>
			<point x="172" y="339"/>
			<point x="262" y="467"/>
			<point x="336" y="467" type="curve" smooth="yes"/>
			<point x="368" y="467"/>
			<point x="382" y="448"/>
			<point x="382" y="419" type="curve" smooth="yes"/>
			<point x="382" y="355"/>
			<point x="316" y="273"/>
			<point x="121" y="229" type="curve"/>
			<point x="120" y="189" type="line"/>
			<point x="387" y="246"/>
			<point x="489" y="325"/>
			<point x="489" y="419" type="curve" smooth="yes"/>
			<point x="489" y="483"/>
			<point x="439" y="524"/>
			<point x="353" y="524" type="curve" smooth="yes"/>
			<point x="190" y="524"/>
			<point x="50" y="367"/>
			<point x="50" y="186" type="curve" smooth="yes"/>
			<point x="50" y="58"/>
			<point x="123" y="-13"/>
		</contour>
	</outline>
	<anchor name="aboveLC" x="346" y="531"/>
	<anchor name="belowLC" x="222" y="-20"/>
	<anchor name="ogonek" x="268" y="0"/>
</glyph>
<glyph name="f" format="2">
	<unicode hex="0066"/>
	<advance width="339"/>
	<outline>
		<contour>
			<point x="-53" y="-241" type="curve" smooth="yes"/>
			<point x="-2" y="-241"/>
			<point x="46" y="-216"/>
			<point x="85" y="-175" type="curve" smooth="yes"/>
			<point x="131" y="-127"/>
			<point x="159" y="-59"/>
			<point x="179" y="49" type="curve" smooth="yes"/>
			<point x="204" y="192"/>
			<point x="226" y="349"/>
			<point x="250" y="497" type="curve" smooth="yes"/>
			<point x="274" y="649"/>
			<point x="309" y="685"/>
			<point x="358" y="714" type="curve"/>
			<point x="353" y="718" type="line"/>
			<point x="345" y="718" type="line"/>
			<point x="333" y="714" type="line"/>
			<point x="363" y="669" type="line" smooth="yes"/>
			<point x="387" y="633"/>
			<point x="408" y="616"/>
			<point x="439" y="616" type="curve" smooth="yes"/>
			<point x="465" y="616"/>
			<point x="487" y="637"/>
			<point x="492" y="666" type="curve"/>
			<point x="483" y="704"/>
			<point x="432" y="740"/>
			<point x="363" y="740" type="curve" smooth="yes"/>
			<point x="266" y="740"/>
			<point x="163" y="674"/>
			<point x="133" y="469" type="curve" smooth="yes"/>
			<point x="112" y="324"/>
			<point x="91" y="182"/>
			<point x="69" y="40" type="curve" smooth="yes"/>
			<point x="54" y="-50"/>
			<point x="41" y="-104"/>
			<point x="21" y="-144" type="curve" smooth="yes"/>
			<point x="7" y="-172"/>
			<point x="-7" y="-190"/>
			<point x="-23" y="-206" type="curve"/>
			<point x="-18" y="-206" type="line"/>
			<point x="-21" y="-206" type="line"/>
			<point x="-9" y="-206" type="line"/>
			<point x="-32" y="-177" type="line" smooth="yes"/>
			<point x="-58" y="-144"/>
			<point x="-77" y="-126"/>
			<point x="-110" y="-126" type="curve" smooth="yes"/>
			<point x="-140" y="-126"/>
			<point x="-160" y="-146"/>
			<point x="-164" y="-173" type="curve"/>
			<point x="-154" y="-212"/>
			<point x="-118" y="-241"/>
		</contour>
		<contour>
			<point x="36" y="433" type="line"/>
			<point x="166" y="435" type="line"/>
			<point x="363" y="428" type="line"/>
			<point x="375" y="490" type="line"/>
			<point x="172" y="490" type="line"/>
			<point x="172" y="495" type="line"/>
			<point x="46" y="480" type="line"/>
		</contour>
	</outline>
	<anchor name="aboveLC" x="354" y="733"/>
	<anchor name="belowLC" x="-21" y="-250"/>
</glyph>
<glyph name="g" format="2">
	<unicode hex="0067"/>
	<advance width="588"/>
	<outline>
		<contour>
			<point x="198" y="-231" type="curve" smooth="yes"/>
			<point x="337" y="-231"/>
			<point x="486" y="-160"/>
			<point x="486" y="-38" type="curve" smooth="yes"/>
			<point x="486" y="31"/>
			<point x="432" y="69"/>
			<point x="342" y="80" type="curve" smooth="yes"/>
			<point x="231" y="95" type="line" smooth="yes"/>
			<point x="194" y="100"/>
			<point x="179" y="115"/>
			<point x="179" y="136" type="curve" smooth="yes"/>
			<point x="179" y="157"/>
			<point x="186" y="177"/>
			<point x="208" y="198" type="curve"/>
			<point x="160" y="207" type="line"/>
			<point x="157" y="165" type="line"/>
			<point x="100" y="163"/>
			<point x="69" y="139"/>
			<point x="69" y="100" type="curve" smooth="yes"/>
			<point x="69" y="61"/>
			<point x="99" y="36"/>
			<point x="158" y="29" type="curve"/>
			<point x="156" y="-1" type="line"/>
			<point x="161" y="-1"/>
			<point x="167" y="-2"/>
			<point x="172" y="-3" type="curve" smooth="yes"/>
			<point x="302" y="-18" type="line" smooth="yes"/>
			<point x="362" y="-25"/>
			<point x="384" y="-45"/>
			<point x="384" y="-77" type="curve" smooth="yes"/>
			<point x="384" y="-135"/>
			<point x="312" y="-174"/>
			<point x="227" y="-174" type="curve" smooth="yes"/>
			<point x="148" y="-174"/>
			<point x="97" y="-141"/>
			<point x="97" y="-96" type="curve" smooth="yes"/>
			<point x="97" y="-54"/>
			<point x="124" y="-30"/>
			<point x="190" y="2" type="curve"/>
			<point x="180" y="12" type="line"/>
			<point x="41" y="-11"/>
			<point x="-16" y="-52"/>
			<point x="-16" y="-113" type="curve" smooth="yes"/>
			<point x="-16" y="-179"/>
			<point x="64" y="-231"/>
		</contour>
		<contour>
			<point x="261" y="177" type="curve" smooth="yes"/>
			<point x="401" y="177"/>
			<point x="451" y="268"/>
			<point x="473" y="328" type="curve" smooth="yes"/>
			<point x="489" y="373"/>
			<point x="497" y="403"/>
			<point x="505" y="452" type="curve"/>
			<point x="483" y="403" type="line"/>
			<point x="574" y="408"/>
			<point x="601" y="442"/>
			<point x="601" y="493" type="curve" smooth="yes"/>
			<point x="601" y="509"/>
			<point x="597" y="525"/>
			<point x="593" y="533" type="curve"/>
			<point x="589" y="535"/>
			<point x="576" y="536"/>
			<point x="563" y="536" type="curve" smooth="yes"/>
			<point x="503" y="536"/>
			<point x="473" y="500"/>
			<point x="468" y="404" type="curve"/>
			<point x="441" y="404" type="line"/>
			<point x="436" y="474"/>
			<point x="393" y="524"/>
			<point x="302" y="524" type="curve" smooth="yes"/>
			<point x="181" y="524"/>
			<point x="96" y="432"/>
			<point x="96" y="323" type="curve" smooth="yes"/>
			<point x="96" y="228"/>
			<point x="163" y="177"/>
		</contour>
		<contour>
			<point x="280" y="227" type="curve" smooth="yes"/>
			<point x="235" y="227"/>
			<point x="215" y="272"/>
			<point x="215" y="334" type="curve" smooth="yes"/>
			<point x="215" y="418"/>
			<point x="242" y="476"/>
			<point x="297" y="476" type="curve" smooth="yes"/>
			<point x="333" y="476"/>
			<point x="360" y="437"/>
			<point x="360" y="374" type="curve" smooth="yes"/>
			<point x="360" y="271"/>
			<point x="326" y="227"/>
		</contour>
	</outline>
	<anchor name="aboveLC" x="312" y="531"/>
	<anchor name="belowLC" x="198" y="-243"/>
</glyph>
<glyph name="j" format="2">
	<unicode hex="006A"/>
	<advance width="285"/>
	<outline>
		<contour>
			<point x="-69" y="-240" type="line"/>
			<point x="-11" y="-231"/>
			<point x="37" y="-206"/>
			<point x="73" y="-170" type="curve" smooth="yes"/>
			<point x="120" y="-124"/>
			<point x="155" y="-60"/>
			<point x="176" y="45" type="curve" smooth="yes"/>
			<point x="263" y="491" type="line"/>
			<point x="237" y="503" type="line"/>
			<point x="49" y="448" type="line"/>
			<point x="43" y="407" type="line"/>
			<point x="169" y="398" type="line"/>
			<point x="137" y="427" type="line"/>
			<point x="65" y="45" type="line" smooth="yes"/>
			<point x="45" y="-64"/>
			<point x="23" y="-112"/>
			<point x="-3" y="-147" type="curve" smooth="yes"/>
			<point x="-24" y="-174"/>
			<point x="-47" y="-191"/>
			<point x="-80" y="-204" type="curve"/>
		</contour>
		<contour>
			<point x="235" y="608" type="curve" smooth="yes"/>
			<point x="276" y="608"/>
			<point x="310" y="643"/>
			<point x="310" y="684" type="curve" smooth="yes"/>
			<point x="310" y="721"/>
			<point x="283" y="747"/>
			<point x="245" y="747" type="curve" smooth="yes"/>
			<point x="204" y="747"/>
			<point x="171" y="712"/>
			<point x="171" y="671" type="curve" smooth="yes"/>
			<point x="171" y="633"/>
			<point x="199" y="608"/>
		</contour>
	</outline>
	<anchor name="aboveLC" x="253" y="747"/>
	<anchor name="belowLC" x="19" y="-250"/>
</glyph>
<glyph name="l" format="2">
	<unicode hex="006C"/>
	<advance width="309"/>
	<outline>
		<contour>
			<point x="130" y="-14" type="curve" smooth="yes"/>
			<point x="208" y="-14"/>
			<point x="263" y="44"/>
			<point x="305" y="115" type="curve"/>
			<point x="273" y="137" type="line"/>
			<point x="238" y="88"/>
			<point x="214" y="67"/>
			<point x="194" y="67" type="curve" smooth="yes"/>
			<point x="180" y="67"/>
			<point x="171" y="76"/>
			<point x="171" y="92" type="curve" smooth="yes"/>
			<point x="171" y="104"/>
			<point x="174" y="123"/>
			<point x="180" y="149" type="curve" smooth="yes"/>
			<point x="298" y="721" type="line"/>
			<point x="273" y="731" type="line"/>
			<point x="84" y="683" type="line"/>
			<point x="77" y="642" type="line"/>
			<point x="206" y="628" type="line"/>
			<point x="169" y="661" type="line"/>
			<point x="157" y="591"/>
			<point x="143" y="524"/>
			<point x="129" y="454" type="curve" smooth="yes"/>
			<point x="67" y="154" type="line" smooth="yes"/>
			<point x="59" y="111"/>
			<point x="53" y="84"/>
			<point x="53" y="59" type="curve" smooth="yes"/>
			<point x="53" y="12"/>
			<point x="81" y="-14"/>
		</contour>
	</outline>
	<anchor name="aboveLC" x="241" y="733"/>
	<anchor name="belowLC" x="143" y="-20"/>
</glyph>
<glyph name="m" format="2">
	<unicode hex="006D"/>
	<advance width="880"/>
	<outline>
		<contour>
			<point x="70" y="-9" type="line"/>
			<point x="167" y="0" type="line"/>
			<point x="181" y="74"/>
			<point x="195" y="147"/>
			<point x="210" y="221" type="curve" smooth="yes"/>
			<point x="241" y="358" type="line"/>
			<point x="236" y="359" type="line"/>
			<point x="259" y="491" type="line"/>
			<point x="235" y="503" type="line"/>
			<point x="53" y="448" type="line"/>
			<point x="45" y="407" type="line"/>
			<point x="172" y="398" type="line"/>
			<point x="139" y="426" type="line"/>
			<point x="49" y="1" type="line"/>
		</contour>
		<contour>
			<point x="353" y="-9" type="line"/>
			<point x="449" y="0" type="line"/>
			<point x="463" y="73"/>
			<point x="478" y="145"/>
			<point x="493" y="217" type="curve" smooth="yes"/>
			<point x="522" y="349" type="line"/>
			<point x="518" y="353" type="line" smooth="yes"/>
			<point x="522" y="373"/>
			<point x="527" y="395"/>
			<point x="527" y="420" type="curve" smooth="yes"/>
			<point x="527" y="474"/>
			<point x="498" y="504"/>
			<point x="446" y="504" type="curve" smooth="yes"/>
			<point x="375" y="504"/>
			<point x="298" y="447"/>
			<point x="234" y="370" type="curve"/>
			<point x="220" y="370" type="line"/>
			<point x="222" y="324" type="line"/>
			<point x="288" y="386"/>
			<point x="336" y="415"/>
			<point x="374" y="415" type="curve" smooth="yes"/>
			<point x="395" y="415"/>
			<point x="408" y="403"/>
			<point x="408" y="376" type="curve" smooth="yes"/>
			<point x="408" y="357"/>
			<point x="403" y="333"/>
			<point x="397" y="307" type="curve" smooth="yes"/>
			<point x="332" y="1" type="line"/>
		</contour>
		<contour>
			<point x="693" y="-14" type="curve" smooth="yes"/>
			<point x="774" y="-14"/>
			<point x="831" y="48"/>
			<point x="873" y="114" type="curve"/>
			<point x="840" y="135" type="line"/>
			<point x="804" y="87"/>
			<point x="782" y="67"/>
			<point x="760" y="67" type="curve" smooth="yes"/>
			<point x="746" y="67"/>
			<point x="739" y="76"/>
			<point x="739" y="90" type="curve" smooth="yes"/>
			<point x="739" y="103"/>
			<point x="744" y="123"/>
			<point x="751" y="148" type="curve" smooth="yes"/>
			<point x="794" y="325" type="line" smooth="yes"/>
			<point x="802" y="357"/>
			<point x="809" y="390"/>
			<point x="809" y="420" type="curve" smooth="yes"/>
			<point x="809" y="474"/>
			<point x="780" y="504"/>
			<point x="728" y="504" type="curve" smooth="yes"/>
			<point x="655" y="504"/>
			<point x="580" y="448"/>
			<point x="516" y="370" type="curve"/>
			<point x="500" y="370" type="line"/>
			<point x="502" y="322" type="line"/>
			<point x="570" y="385"/>
			<point x="614" y="415"/>
			<point x="651" y="415" type="curve" smooth="yes"/>
			<point x="674" y="415"/>
			<point x="687" y="403"/>
			<point x="687" y="376" type="curve" smooth="yes"/>
			<point x="687" y="356"/>
			<point x="680" y="327"/>
			<point x="672" y="295" type="curve" smooth="yes"/>
			<point x="635" y="141" type="line" smooth="yes"/>
			<point x="626" y="107"/>
			<point x="618" y="79"/>
			<point x="618" y="50" type="curve" smooth="yes"/>
			<point x="618" y="12"/>
			<point x="644" y="-14"/>
		</contour>
	</outline>
	<anchor name="aboveLC" x="483" y="510"/>
	<anchor name="belowLC" x="396" y="-20"/>
</glyph>
<glyph name="n" format="2">
	<unicode hex="006E"/>
	<advance width="660"/>
	<outline>
		<contour>
			<point x="96" y="-11" type="line"/>
			<point x="190" y="0" type="line"/>
			<point x="206" y="79"/>
			<point x="223" y="158"/>
			<point x="239" y="237" type="curve" smooth="yes"/>
			<point x="267" y="365" type="line"/>
			<point x="256" y="365" type="line"/>
			<point x="274" y="511" type="line"/>
			<point x="234" y="521" type="line"/>
			<point x="61" y="463" type="line"/>
			<point x="49" y="407" type="line"/>
			<point x="183" y="407" type="line"/>
			<point x="155" y="447" type="line"/>
			<point x="58" y="0" type="line"/>
		</contour>
		<contour>
			<point x="482" y="-13" type="curve" smooth="yes"/>
			<point x="566" y="-13"/>
			<point x="615" y="45"/>
			<point x="654" y="114" type="curve"/>
			<point x="611" y="140" type="line"/>
			<point x="577" y="86"/>
			<point x="564" y="70"/>
			<point x="541" y="70" type="curve" smooth="yes"/>
			<point x="523" y="70"/>
			<point x="515" y="82"/>
			<point x="515" y="98" type="curve" smooth="yes"/>
			<point x="515" y="115"/>
			<point x="522" y="142"/>
			<point x="529" y="171" type="curve" smooth="yes"/>
			<point x="566" y="326" type="line" smooth="yes"/>
			<point x="574" y="358"/>
			<point x="582" y="395"/>
			<point x="582" y="427" type="curve" smooth="yes"/>
			<point x="582" y="485"/>
			<point x="546" y="524"/>
			<point x="476" y="524" type="curve" smooth="yes"/>
			<point x="391" y="524"/>
			<point x="335" y="468"/>
			<point x="280" y="382" type="curve"/>
			<point x="248" y="382" type="line"/>
			<point x="248" y="324" type="line"/>
			<point x="317" y="394"/>
			<point x="354" y="427"/>
			<point x="399" y="427" type="curve" smooth="yes"/>
			<point x="430" y="427"/>
			<point x="445" y="412"/>
			<point x="445" y="386" type="curve" smooth="yes"/>
			<point x="445" y="363"/>
			<point x="439" y="337"/>
			<point x="431" y="305" type="curve" smooth="yes"/>
			<point x="399" y="172" type="line" smooth="yes"/>
			<point x="391" y="140"/>
			<point x="382" y="106"/>
			<point x="382" y="72" type="curve" smooth="yes"/>
			<point x="382" y="23"/>
			<point x="413" y="-13"/>
		</contour>
	</outline>
	<anchor name="aboveLC" x="377" y="531"/>
	<anchor name="belowLC" x="290" y="-20"/>
</glyph>
<glyph name="q" format="2">
	<unicode hex="0071"/>
	<advance width="543"/>
	<outline>
		<contour>
			<point x="138" y="-14" type="curve" smooth="yes"/>
			<point x="211" y="-14"/>
			<point x="294" y="48"/>
			<point x="350" y="134" type="curve"/>
			<point x="372" y="134" type="line"/>
			<point x="360" y="178" type="line"/>
			<point x="294" y="101"/>
			<point x="246" y="75"/>
			<point x="209" y="75" type="curve" smooth="yes"/>
			<point x="169" y="75"/>
			<point x="150" y="105"/>
			<point x="150" y="167" type="curve" smooth="yes"/>
			<point x="150" y="240"/>
			<point x="179" y="324"/>
			<point x="224" y="375" type="curve" smooth="yes"/>
			<point x="253" y="409"/>
			<point x="293" y="434"/>
			<point x="333" y="434" type="curve" smooth="yes"/>
			<point x="362" y="434"/>
			<point x="389" y="424"/>
			<point x="420" y="396" type="curve"/>
			<point x="468" y="448" type="line"/>
			<point x="435" y="487"/>
			<point x="408" y="504"/>
			<point x="363" y="504" type="curve" smooth="yes"/>
			<point x="214" y="504"/>
			<point x="33" y="302"/>
			<point x="33" y="122" type="curve" smooth="yes"/>
			<point x="33" y="23"/>
			<point x="79" y="-14"/>
		</contour>
		<contour>
			<point x="174" y="-230" type="line"/>
			<point x="452" y="-230" type="line"/>
			<point x="461" y="-186" type="line"/>
			<point x="343" y="-173" type="line"/>
			<point x="296" y="-173" type="line"/>
			<point x="183" y="-186" type="line"/>
		</contour>
		<contour>
			<point x="256" y="-230" type="line"/>
			<point x="370" y="-230" type="line"/>
			<point x="383" y="-162"/>
			<point x="396" y="-92"/>
			<point x="410" y="-21" type="curve" smooth="yes"/>
			<point x="520" y="505" type="line"/>
			<point x="487" y="512" type="line"/>
			<point x="409" y="454" type="line"/>
			<point x="397" y="452" type="line"/>
			<point x="328" y="127" type="line"/>
			<point x="330" y="114" type="line"/>
		</contour>
	</outline>
	<anchor name="aboveLC" x="365" y="510"/>
	<anchor name="belowLC" x="314" y="-250"/>
</glyph>
<glyph name="s" format="2">
	<unicode hex="0073"/>
	<advance width="481"/>
	<outline>
		<contour>
			<point x="211" y="-13" type="curve" smooth="yes"/>
			<point x="328" y="-13"/>
			<point x="417" y="48"/>
			<point x="417" y="143" type="curve" smooth="yes"/>
			<point x="417" y="215"/>
			<point x="374" y="254"/>
			<point x="311" y="299" type="curve" smooth="yes"/>
			<point x="258" y="338"/>
			<point x="231" y="361"/>
			<point x="231" y="406" type="curve" smooth="yes"/>
			<point x="231" y="448"/>
			<point x="259" y="476"/>
			<point x="298" y="484" type="curve" smooth="yes"/>
			<point x="323" y="482"/>
			<point x="348" y="480"/>
			<point x="373" y="478" type="curve"/>
			<point x="318" y="495" type="line"/>
			<point x="333" y="442" type="line" smooth="yes"/>
			<point x="344" y="396"/>
			<point x="371" y="378"/>
			<point x="404" y="378" type="curve" smooth="yes"/>
			<point x="433" y="378"/>
			<point x="448" y="399"/>
			<point x="451" y="430" type="curve"/>
			<point x="440" y="480"/>
			<point x="392" y="524"/>
			<point x="300" y="524" type="curve" smooth="yes"/>
			<point x="186" y="524"/>
			<point x="111" y="461"/>
			<point x="111" y="370" type="curve" smooth="yes"/>
			<point x="111" y="299"/>
			<point x="155" y="261"/>
			<point x="218" y="215" type="curve" smooth="yes"/>
			<point x="272" y="177"/>
			<point x="296" y="154"/>
			<point x="296" y="108" type="curve" smooth="yes"/>
			<point x="296" y="63"/>
			<point x="265" y="37"/>
			<point x="219" y="29" type="curve" smooth="yes"/>
			<point x="188" y="31"/>
			<point x="156" y="34"/>
			<point x="124" y="36" type="curve"/>
			<point x="185" y="16" type="line"/>
			<point x="173" y="71" type="line" smooth="yes"/>
			<point x="164" y="113"/>
			<point x="140" y="141"/>
			<point x="98" y="141" type="curve" smooth="yes"/>
			<point x="66" y="141"/>
			<point x="49" y="125"/>
			<point x="41" y="95" type="curve"/>
			<point x="58" y="20"/>
			<point x="107" y="-13"/>
		</contour>
	</outline>
	<anchor name="aboveLC" x="296" y="531"/>
	<anchor name="belowLC" x="215" y="-20"/>
	<anchor name="baseLC" x="208" y="0"/>
</glyph>
<glyph name="v" format="2">
	<unicode hex="0076"/>
	<advance width="520"/>
	<outline>
		<contour>
			<point x="164" y="-1" type="curve"/>
			<point x="175" y="-10" type="line"/>
			<point x="240" y="-3" type="line"/>
			<point x="335" y="98"/>
			<point x="424" y="219"/>
			<point x="469" y="302" type="curve" smooth="yes"/>
			<point x="508" y="375"/>
			<point x="518" y="413"/>
			<point x="518" y="447" type="curve" smooth="yes"/>
			<point x="518" y="470"/>
			<point x="515" y="481"/>
			<point x="509" y="491" type="curve"/>
			<point x="501" y="498"/>
			<point x="485" y="504"/>
			<point x="465" y="504" type="curve" smooth="yes"/>
			<point x="422" y="504"/>
			<point x="393" y="477"/>
			<point x="393" y="425" type="curve" smooth="yes"/>
			<point x="393" y="401"/>
			<point x="402" y="377"/>
			<point x="411" y="354" type="curve"/>
			<point x="430" y="291" type="line"/>
			<point x="441" y="381" type="line"/>
			<point x="435" y="365"/>
			<point x="429" y="347"/>
			<point x="420" y="330" type="curve" smooth="yes"/>
			<point x="378" y="245"/>
			<point x="333" y="174"/>
			<point x="277" y="104" type="curve"/>
			<point x="257" y="68" type="line"/>
			<point x="264" y="68" type="line"/>
			<point x="262" y="191"/>
			<point x="255" y="318"/>
			<point x="243" y="409" type="curve" smooth="yes"/>
			<point x="234" y="476"/>
			<point x="211" y="504"/>
			<point x="161" y="504" type="curve" smooth="yes"/>
			<point x="107" y="504"/>
			<point x="63" y="464"/>
			<point x="16" y="385" type="curve"/>
			<point x="44" y="361" type="line"/>
			<point x="71" y="400"/>
			<point x="87" y="415"/>
			<point x="102" y="415" type="curve" smooth="yes"/>
			<point x="117" y="415"/>
			<point x="125" y="407"/>
			<point x="130" y="371" type="curve" smooth="yes"/>
			<point x="144" y="269"/>
			<point x="157" y="141"/>
		</contour>
	</outline>
	<anchor name="aboveLC" x="317" y="510"/>
	<anchor name="belowLC" x="211" y="-20"/>
</glyph>
<glyph name="w" format="2">
	<unicode hex="0077"/>
	<advance width="793"/>
	<outline>
		<contour>
			<point x="163" y="-1" type="curve"/>
			<point x="174" y="-10" type="line"/>
			<point x="247" y="-3" type="line"/>
			<point x="309" y="87"/>
			<point x="373" y="209"/>
			<point x="418" y="306" type="curve"/>
			<point x="431" y="350" type="line"/>
			<point x="420" y="350" type="line"/>
			<point x="428" y="229"/>
			<point x="436" y="108"/>
			<point x="445" y="-1" type="curve"/>
			<point x="455" y="-10" type="line"/>
			<point x="517" y="-3" type="line"/>
			<point x="612" y="100"/>
			<point x="697" y="218"/>
			<point x="742" y="302" type="curve" smooth="yes"/>
			<point x="781" y="374"/>
			<point x="792" y="413"/>
			<point x="792" y="446" type="curve" smooth="yes"/>
			<point x="792" y="469"/>
			<point x="789" y="482"/>
			<point x="783" y="492" type="curve"/>
			<point x="774" y="498"/>
			<point x="760" y="504"/>
			<point x="741" y="504" type="curve" smooth="yes"/>
			<point x="699" y="504"/>
			<point x="667" y="476"/>
			<point x="667" y="424" type="curve" smooth="yes"/>
			<point x="667" y="400"/>
			<point x="676" y="375"/>
			<point x="685" y="353" type="curve" smooth="yes"/>
			<point x="706" y="290" type="line"/>
			<point x="716" y="382" type="line"/>
			<point x="709" y="364"/>
			<point x="703" y="346"/>
			<point x="694" y="328" type="curve" smooth="yes"/>
			<point x="651" y="248"/>
			<point x="611" y="184"/>
			<point x="555" y="109" type="curve"/>
			<point x="538" y="78" type="line"/>
			<point x="545" y="75" type="line"/>
			<point x="536" y="216"/>
			<point x="527" y="352"/>
			<point x="517" y="486" type="curve"/>
			<point x="442" y="486" type="line"/>
			<point x="387" y="352"/>
			<point x="329" y="228"/>
			<point x="264" y="112" type="curve"/>
			<point x="249" y="77" type="line"/>
			<point x="260" y="75" type="line"/>
			<point x="259" y="198"/>
			<point x="253" y="326"/>
			<point x="242" y="415" type="curve" smooth="yes"/>
			<point x="236" y="478"/>
			<point x="211" y="504"/>
			<point x="159" y="504" type="curve" smooth="yes"/>
			<point x="105" y="504"/>
			<point x="63" y="464"/>
			<point x="16" y="385" type="curve"/>
			<point x="44" y="361" type="line"/>
			<point x="70" y="398"/>
			<point x="86" y="415"/>
			<point x="102" y="415" type="curve" smooth="yes"/>
			<point x="117" y="415"/>
			<point x="126" y="408"/>
			<point x="130" y="372" type="curve" smooth="yes"/>
			<point x="143" y="272"/>
			<point x="156" y="143"/>
		</contour>
	</outline>
	<anchor name="aboveLC" x="480" y="510"/>
	<anchor name="belowLC" x="351" y="-20"/>
</glyph>
<glyph name="x" format="2">
	<unicode hex="0078"/>
	<advance width="663"/>
	<outline>
		<contour>
			<point x="446" y="-13" type="curve" smooth="yes"/>
			<point x="508" y="-13"/>
			<point x="551" y="32"/>
			<point x="603" y="112" type="curve"/>
			<point x="563" y="140" type="line"/>
			<point x="528" y="92"/>
			<point x="511" y="73"/>
			<point x="486" y="73" type="curve" smooth="yes"/>
			<point x="459" y="73"/>
			<point x="440" y="90"/>
			<point x="428" y="135" type="curve" smooth="yes"/>
			<point x="376" y="320" type="line"/>
			<point x="365" y="320" type="line"/>
			<point x="339" y="427" type="line" smooth="yes"/>
			<point x="323" y="493"/>
			<point x="295" y="524"/>
			<point x="234" y="524" type="curve" smooth="yes"/>
			<point x="174" y="524"/>
			<point x="132" y="480"/>
			<point x="83" y="402" type="curve"/>
			<point x="116" y="372" type="line"/>
			<point x="154" y="424"/>
			<point x="172" y="438"/>
			<point x="192" y="438" type="curve" smooth="yes"/>
			<point x="211" y="438"/>
			<point x="223" y="424"/>
			<point x="234" y="383" type="curve" smooth="yes"/>
			<point x="291" y="177" type="line"/>
			<point x="303" y="177" type="line"/>
			<point x="320" y="110" type="line" smooth="yes"/>
			<point x="340" y="30"/>
			<point x="368" y="-13"/>
		</contour>
		<contour>
			<point x="13" y="57" type="curve"/>
			<point x="19" y="16"/>
			<point x="49" y="-13"/>
			<point x="110" y="-13" type="curve" smooth="yes"/>
			<point x="167" y="-13"/>
			<point x="188" y="12"/>
			<point x="220" y="57" type="curve" smooth="yes"/>
			<point x="249" y="96"/>
			<point x="290" y="161"/>
			<point x="337" y="271" type="curve"/>
			<point x="316" y="290" type="line"/>
			<point x="281" y="223"/>
			<point x="231" y="149"/>
			<point x="190" y="90" type="curve" smooth="yes"/>
			<point x="179" y="74"/>
			<point x="168" y="61"/>
			<point x="155" y="46" type="curve"/>
			<point x="120" y="46" type="line"/>
			<point x="147" y="17" type="line"/>
			<point x="139" y="52" type="line" smooth="yes"/>
			<point x="134" y="94"/>
			<point x="116" y="120"/>
			<point x="75" y="120" type="curve" smooth="yes"/>
			<point x="40" y="120"/>
			<point x="19" y="92"/>
		</contour>
		<contour>
			<point x="366" y="232" type="line"/>
			<point x="407" y="311"/>
			<point x="452" y="376"/>
			<point x="491" y="432" type="curve" smooth="yes"/>
			<point x="498" y="443"/>
			<point x="510" y="457"/>
			<point x="518" y="467" type="curve"/>
			<point x="556" y="467" type="line"/>
			<point x="524" y="494" type="line"/>
			<point x="535" y="458" type="line" smooth="yes"/>
			<point x="544" y="415"/>
			<point x="557" y="391"/>
			<point x="595" y="391" type="curve" smooth="yes"/>
			<point x="629" y="391"/>
			<point x="651" y="418"/>
			<point x="656" y="452" type="curve"/>
			<point x="648" y="491"/>
			<point x="630" y="524"/>
			<point x="562" y="524" type="curve" smooth="yes"/>
			<point x="510" y="524"/>
			<point x="485" y="499"/>
			<point x="457" y="463" type="curve" smooth="yes"/>
			<point x="431" y="427"/>
			<point x="396" y="365"/>
			<point x="344" y="250" type="curve"/>
		</contour>
	</outline>
	<anchor name="aboveLC" x="403" y="531"/>
	<anchor name="belowLC" x="263" y="-20"/>
</glyph>
<glyph name="y" format="2">
	<unicode hex="0079"/>
	<advance width="582"/>
	<outline>
		<contour>
			<point x="9" y="-235" type="curve" smooth="yes"/>
			<point x="104" y="-235"/>
			<point x="159" y="-187"/>
			<point x="203" y="-137" type="curve" smooth="yes"/>
			<point x="245" y="-91"/>
			<point x="285" y="-39"/>
			<point x="325" y="18" type="curve" smooth="yes"/>
			<point x="370" y="83"/>
			<point x="415" y="153"/>
			<point x="451" y="214" type="curve" smooth="yes"/>
			<point x="485" y="270"/>
			<point x="512" y="321"/>
			<point x="541" y="379" type="curve" smooth="yes"/>
			<point x="560" y="417"/>
			<point x="574" y="449"/>
			<point x="575" y="474" type="curve" smooth="yes"/>
			<point x="576" y="505"/>
			<point x="554" y="524"/>
			<point x="520" y="524" type="curve" smooth="yes"/>
			<point x="480" y="524"/>
			<point x="459" y="500"/>
			<point x="441" y="423" type="curve" smooth="yes"/>
			<point x="410" y="298"/>
			<point x="372" y="187"/>
			<point x="304" y="29" type="curve" smooth="yes"/>
			<point x="273" y="-1"/>
			<point x="231" y="-47"/>
			<point x="194" y="-87" type="curve" smooth="yes"/>
			<point x="157" y="-127"/>
			<point x="119" y="-164"/>
			<point x="90" y="-189" type="curve"/>
			<point x="113" y="-180" type="line"/>
			<point x="25" y="-180" type="line"/>
			<point x="76" y="-191" type="line"/>
			<point x="59" y="-164" type="line" smooth="yes"/>
			<point x="42" y="-134"/>
			<point x="17" y="-112"/>
			<point x="-26" y="-112" type="curve" smooth="yes"/>
			<point x="-72" y="-112"/>
			<point x="-93" y="-140"/>
			<point x="-99" y="-169" type="curve"/>
			<point x="-91" y="-208"/>
			<point x="-63" y="-235"/>
		</contour>
		<contour>
			<point x="199" y="-107" type="curve"/>
			<point x="330" y="35" type="line"/>
			<point x="287" y="35" type="line"/>
			<point x="282" y="154"/>
			<point x="275" y="310"/>
			<point x="267" y="405" type="curve" smooth="yes"/>
			<point x="260" y="487"/>
			<point x="230" y="523"/>
			<point x="165" y="523" type="curve" smooth="yes"/>
			<point x="102" y="523"/>
			<point x="61" y="486"/>
			<point x="14" y="402" type="curve"/>
			<point x="54" y="374" type="line"/>
			<point x="76" y="410"/>
			<point x="92" y="430"/>
			<point x="110" y="430" type="curve" smooth="yes"/>
			<point x="128" y="430"/>
			<point x="137" y="418"/>
			<point x="150" y="335" type="curve" smooth="yes"/>
			<point x="166" y="242"/>
			<point x="189" y="73"/>
		</contour>
	</outline>
	<anchor name="aboveLC" x="350" y="531"/>
	<anchor name="belowLC" x="66" y="-243"/>
</glyph>
<glyph name="braceleft" format="2">
	<unicode hex="007B"/>
	<advance width="371"/>
	<outline>
		<contour>
			<point x="47" y="252" type="line"/>
			<point x="116" y="243"/>
			<point x="138" y="220"/>
			<point x="138" y="184" type="curve" smooth="yes"/>
			<point x="138" y="115"/>
			<point x="66" y="32"/>
			<point x="66" y="-57" type="curve" smooth="yes"/>
			<point x="66" y="-125"/>
			<point x="120" y="-159"/>
			<point x="218" y="-159" type="curve" smooth="yes"/>
			<point x="256" y="-159" type="line"/>
			<point x="266" y="-109" type="line"/>
			<point x="235" y="-106" type="line" smooth="yes"/>
			<point x="190" y="-101"/>
			<point x="168" y="-82"/>
			<point x="168" y="-46" type="curve" smooth="yes"/>
			<point x="168" y="16"/>
			<point x="217" y="118"/>
			<point x="217" y="183" type="curve" smooth="yes"/>
			<point x="217" y="242"/>
			<point x="177" y="276"/>
			<point x="89" y="280" type="curve"/>
			<point x="88" y="276" type="line"/>
			<point x="199" y="282"/>
			<point x="263" y="337"/>
			<point x="263" y="426" type="curve" smooth="yes"/>
			<point x="263" y="461"/>
			<point x="260" y="509"/>
			<point x="260" y="544" type="curve" smooth="yes"/>
			<point x="260" y="620"/>
			<point x="286" y="656"/>
			<point x="372" y="663" type="curve" smooth="yes"/>
			<point x="397" y="665" type="line"/>
			<point x="406" y="715" type="line"/>
			<point x="372" y="715" type="line" smooth="yes"/>
			<point x="233" y="715"/>
			<point x="160" y="661"/>
			<point x="160" y="556" type="curve" smooth="yes"/>
			<point x="160" y="502"/>
			<point x="179" y="455"/>
			<point x="179" y="414" type="curve" smooth="yes"/>
			<point x="179" y="353"/>
			<point x="149" y="316"/>
			<point x="54" y="303" type="curve"/>
		</contour>
	</outline>
</glyph>
<glyph name="bar" format="2">
	<unicode hex="007C"/>
	<advance width="299"/>
	<outline>
		<contour>
			<point x="111" y="-242" type="line"/>
			<point x="191" y="-242" type="line"/>
			<point x="191" y="748" type="line"/>
			<point x="111" y="748" type="line"/>
		</contour>
	</outline>
</glyph>
<glyph name="asciitilde" format="2">
	<unicode hex="007E"/>
	<advance width="560"/>
	<outline>
		<contour>
			<point x="299" y="382" type="curve" smooth="yes"/>
			<point x="260" y="407"/>
			<point x="227" y="425"/>
			<point x="179" y="425" type="curve" smooth="yes"/>
			<point x="110" y="425"/>
			<point x="59" y="383"/>
			<point x="47" y="281" type="curve"/>
			<point x="115" y="269" type="line"/>
			<point x="123" y="315"/>
			<point x="139" y="337"/>
			<point x="177" y="337" type="curve" smooth="yes"/>
			<point x="210" y="337"/>
			<point x="234" y="323"/>
			<point x="259" y="306" type="curve" smooth="yes"/>
			<point x="299" y="281"/>
			<point x="331" y="263"/>
			<point x="379" y="263" type="curve" smooth="yes"/>
			<point x="449" y="263"/>
			<point x="497" y="305"/>
			<point x="512" y="407" type="curve"/>
			<point x="443" y="419" type="line"/>
			<point x="435" y="373"/>
			<point x="419" y="351"/>
			<point x="382" y="351" type="curve" smooth="yes"/>
			<point x="349" y="351"/>
			<point x="325" y="365"/>
		</contour>
	</outline>
</glyph>
<glyph name="brokenbar" format="2">
	<unicode hex="00A6"/>
	<advance width="299"/>
	<outline>
		<contour>
			<point x="111" y="-242" type="line"/>
			<point x="191" y="-242" type="line"/>
			<point x="191" y="199" type="line"/>
			<point x="111" y="199" type="line"/>
		</contour>
		<contour>
			<point x="191" y="323" type="line"/>
			<point x="191" y="748" type="line"/>
			<point x="111" y="748" type="line"/>
			<point x="111" y="323" type="line"/>
		</contour>
	</outline>
</glyph>
<glyph name="section" format="2">
	<unicode hex="00A7"/>
	<advance width="489"/>
	<outline>
		<contour>
			<point x="168" y="-121" type="curve" smooth="yes"/>
			<point x="283" y="-121"/>
			<point x="355" y="-61"/>
			<point x="355" y="23" type="curve" smooth="yes"/>
			<point x="355" y="87"/>
			<point x="322" y="119"/>
			<point x="260" y="166" type="curve" smooth="yes"/>
			<point x="220" y="196" type="line" smooth="yes"/>
			<point x="169" y="234"/>
			<point x="147" y="259"/>
			<point x="148" y="299" type="curve" smooth="yes"/>
			<point x="148" y="348"/>
			<point x="181" y="392"/>
			<point x="275" y="403" type="curve"/>
			<point x="256" y="434" type="line"/>
			<point x="247" y="421" type="line"/>
			<point x="125" y="416"/>
			<point x="55" y="350"/>
			<point x="55" y="266" type="curve" smooth="yes"/>
			<point x="55" y="199"/>
			<point x="91" y="163"/>
			<point x="150" y="119" type="curve" smooth="yes"/>
			<point x="188" y="90" type="line" smooth="yes"/>
			<point x="236" y="54"/>
			<point x="254" y="30"/>
			<point x="254" y="-5" type="curve" smooth="yes"/>
			<point x="254" y="-51"/>
			<point x="218" y="-84"/>
			<point x="155" y="-84" type="curve" smooth="yes"/>
			<point x="128" y="-84"/>
			<point x="110" y="-81"/>
			<point x="89" y="-75" type="curve"/>
			<point x="141" y="-104" type="line"/>
			<point x="126" y="-31" type="line" smooth="yes"/>
			<point x="119" y="6"/>
			<point x="100" y="23"/>
			<point x="69" y="23" type="curve" smooth="yes"/>
			<point x="43" y="23"/>
			<point x="26" y="5"/>
			<point x="21" y="-17" type="curve"/>
			<point x="30" y="-77"/>
			<point x="79" y="-121"/>
		</contour>
		<contour>
			<point x="328" y="680" type="curve" smooth="yes"/>
			<point x="223" y="680"/>
			<point x="157" y="617"/>
			<point x="157" y="533" type="curve" smooth="yes"/>
			<point x="157" y="469"/>
			<point x="200" y="432"/>
			<point x="249" y="396" type="curve" smooth="yes"/>
			<point x="296" y="360" type="line" smooth="yes"/>
			<point x="345" y="323"/>
			<point x="362" y="298"/>
			<point x="361" y="261" type="curve" smooth="yes"/>
			<point x="361" y="214"/>
			<point x="322" y="174"/>
			<point x="232" y="164" type="curve"/>
			<point x="253" y="131" type="line"/>
			<point x="261" y="145" type="line"/>
			<point x="384" y="152"/>
			<point x="456" y="211"/>
			<point x="456" y="296" type="curve" smooth="yes"/>
			<point x="456" y="358"/>
			<point x="428" y="391"/>
			<point x="369" y="435" type="curve" smooth="yes"/>
			<point x="330" y="464" type="line" smooth="yes"/>
			<point x="281" y="500"/>
			<point x="255" y="523"/>
			<point x="255" y="566" type="curve" smooth="yes"/>
			<point x="255" y="607"/>
			<point x="284" y="643"/>
			<point x="346" y="643" type="curve" smooth="yes"/>
			<point x="369" y="643"/>
			<point x="385" y="640"/>
			<point x="400" y="637" type="curve"/>
			<point x="346" y="662" type="line"/>
			<point x="365" y="602" type="line" smooth="yes"/>
			<point x="377" y="565"/>
			<point x="398" y="547"/>
			<point x="425" y="547" type="curve" smooth="yes"/>
			<point x="452" y="547"/>
			<point x="468" y="563"/>
			<point x="473" y="586" type="curve"/>
			<point x="461" y="643"/>
			<point x="416" y="680"/>
		</contour>
	</outline>
</glyph>
<glyph name="copyright" format="2">
	<unicode hex="00A9"/>
	<advance width="809"/>
	<outline>
		<contour>
			<point x="385" y="-16" type="curve" smooth="yes"/>
			<point x="586" y="-16"/>
			<point x="765" y="129"/>
			<point x="765" y="373" type="curve" smooth="yes"/>
			<point x="765" y="564"/>
			<point x="640" y="680"/>
			<point x="445" y="680" type="curve" smooth="yes"/>
			<point x="246" y="680"/>
			<point x="68" y="536"/>
			<point x="68" y="292" type="curve" smooth="yes"/>
			<point x="68" y="101"/>
			<point x="193" y="-16"/>
		</contour>
		<contour>
			<point x="388" y="31" type="curve" smooth="yes"/>
			<point x="225" y="31"/>
			<point x="123" y="130"/>
			<point x="123" y="294" type="curve" smooth="yes"/>
			<point x="123" y="506"/>
			<point x="279" y="633"/>
			<point x="442" y="633" type="curve" smooth="yes"/>
			<point x="607" y="633"/>
			<point x="710" y="535"/>
			<point x="710" y="370" type="curve" smooth="yes"/>
			<point x="710" y="159"/>
			<point x="554" y="31"/>
		</contour>
		<contour>
			<point x="418" y="130" type="curve" smooth="yes"/>
			<point x="469" y="130"/>
			<point x="501" y="141"/>
			<point x="521" y="151" type="curve"/>
			<point x="537" y="260" type="line"/>
			<point x="489" y="260" type="line"/>
			<point x="454" y="163" type="line"/>
			<point x="509" y="192" type="line"/>
			<point x="488" y="184"/>
			<point x="472" y="179"/>
			<point x="437" y="179" type="curve" smooth="yes"/>
			<point x="365" y="179"/>
			<point x="321" y="221"/>
			<point x="321" y="308" type="curve" smooth="yes"/>
			<point x="321" y="410"/>
			<point x="373" y="490"/>
			<point x="467" y="490" type="curve" smooth="yes"/>
			<point x="509" y="490"/>
			<point x="530" y="482"/>
			<point x="544" y="474" type="curve"/>
			<point x="496" y="512" type="line"/>
			<point x="508" y="409" type="line"/>
			<point x="556" y="409" type="line"/>
			<point x="565" y="518" type="line"/>
			<point x="547" y="527"/>
			<point x="514" y="537"/>
			<point x="460" y="537" type="curve" smooth="yes"/>
			<point x="327" y="537"/>
			<point x="234" y="440"/>
			<point x="234" y="304" type="curve" smooth="yes"/>
			<point x="234" y="187"/>
			<point x="314" y="130"/>
		</contour>
	</outline>
</glyph>
<glyph name="logicalnot" format="2">
	<unicode hex="00AC"/>
	<advance width="545"/>
	<outline>
		<contour>
			<point x="43" y="326" type="line"/>
			<point x="452" y="326" type="line"/>
			<point x="427" y="357" type="line"/>
			<point x="427" y="152" type="line"/>
			<point x="503" y="152" type="line"/>
			<point x="503" y="399" type="line"/>
			<point x="43" y="399" type="line"/>
		</contour>
	</outline>
</glyph>
<glyph name="registered" format="2">
	<unicode hex="00AE"/>
	<advance width="473"/>
	<outline>
		<contour>
			<point x="186" y="418" type="line"/>
			<point x="283" y="418" type="line"/>
			<point x="287" y="438" type="line"/>
			<point x="246" y="441" type="line"/>
			<point x="231" y="441" type="line"/>
			<point x="190" y="438" type="line"/>
		</contour>
		<contour>
			<point x="210" y="418" type="line"/>
			<point x="259" y="418" type="line"/>
			<point x="298" y="618" type="line"/>
			<point x="249" y="618" type="line"/>
		</contour>
		<contour>
			<point x="261" y="594" type="line"/>
			<point x="266" y="594" type="line"/>
			<point x="269" y="618" type="line"/>
			<point x="226" y="618" type="line"/>
			<point x="222" y="597" type="line"/>
		</contour>
		<contour>
			<point x="278" y="349" type="curve" smooth="yes"/>
			<point x="196" y="349"/>
			<point x="137" y="403"/>
			<point x="137" y="493" type="curve" smooth="yes"/>
			<point x="137" y="606"/>
			<point x="219" y="676"/>
			<point x="310" y="676" type="curve" smooth="yes"/>
			<point x="391" y="676"/>
			<point x="450" y="622"/>
			<point x="450" y="533" type="curve" smooth="yes"/>
			<point x="450" y="419"/>
			<point x="369" y="349"/>
		</contour>
		<contour>
			<point x="276" y="312" type="curve" smooth="yes"/>
			<point x="390" y="312"/>
			<point x="493" y="398"/>
			<point x="493" y="535" type="curve" smooth="yes"/>
			<point x="493" y="645"/>
			<point x="415" y="713"/>
			<point x="311" y="713" type="curve" smooth="yes"/>
			<point x="198" y="713"/>
			<point x="94" y="628"/>
			<point x="94" y="491" type="curve" smooth="yes"/>
			<point x="94" y="380"/>
			<point x="172" y="312"/>
		</contour>
		<contour>
			<point x="356" y="414" type="curve" smooth="yes"/>
			<point x="369" y="414"/>
			<point x="378" y="415"/>
			<point x="388" y="418" type="curve"/>
			<point x="392" y="438" type="line"/>
			<point x="343" y="441" type="line"/>
			<point x="372" y="425" type="line"/>
			<point x="356" y="477" type="line" smooth="yes"/>
			<point x="348" y="502"/>
			<point x="335" y="514"/>
			<point x="304" y="515" type="curve"/>
			<point x="300" y="515" type="line"/>
			<point x="359" y="516"/>
			<point x="385" y="536"/>
			<point x="385" y="569" type="curve" smooth="yes"/>
			<point x="385" y="600"/>
			<point x="360" y="618"/>
			<point x="318" y="618" type="curve" smooth="yes"/>
			<point x="279" y="618" type="line"/>
			<point x="276" y="597" type="line"/>
			<point x="309" y="597" type="line" smooth="yes"/>
			<point x="328" y="597"/>
			<point x="338" y="588"/>
			<point x="338" y="566" type="curve" smooth="yes"/>
			<point x="338" y="542"/>
			<point x="325" y="526"/>
			<point x="294" y="526" type="curve" smooth="yes"/>
			<point x="262" y="525" type="line"/>
			<point x="260" y="506" type="line"/>
			<point x="283" y="506" type="line" smooth="yes"/>
			<point x="298" y="506"/>
			<point x="302" y="500"/>
			<point x="306" y="481" type="curve" smooth="yes"/>
			<point x="316" y="444" type="line" smooth="yes"/>
			<point x="321" y="422"/>
			<point x="332" y="414"/>
		</contour>
	</outline>
</glyph>
<glyph name="degree" format="2">
	<unicode hex="00B0"/>
	<advance width="328"/>
	<outline>
		<contour>
			<point x="230" y="460" type="curve" smooth="yes"/>
			<point x="184" y="460"/>
			<point x="148" y="496"/>
			<point x="148" y="548" type="curve" smooth="yes"/>
			<point x="148" y="601"/>
			<point x="184" y="638"/>
			<point x="230" y="638" type="curve" smooth="yes"/>
			<point x="277" y="638"/>
			<point x="312" y="601"/>
			<point x="312" y="548" type="curve" smooth="yes"/>
			<point x="312" y="496"/>
			<point x="277" y="460"/>
		</contour>
		<contour>
			<point x="230" y="418" type="curve" smooth="yes"/>
			<point x="299" y="418"/>
			<point x="360" y="468"/>
			<point x="360" y="548" type="curve" smooth="yes"/>
			<point x="360" y="629"/>
			<point x="299" y="680"/>
			<point x="230" y="680" type="curve" smooth="yes"/>
			<point x="161" y="680"/>
			<point x="100" y="629"/>
			<point x="100" y="548" type="curve" smooth="yes"/>
			<point x="100" y="468"/>
			<point x="161" y="418"/>
		</contour>
	</outline>
</glyph>
<glyph name="two.sups" format="2">
	<unicode hex="00B2"/>
	<advance width="378"/>
	<outline>
		<contour>
			<point x="90" y="422" type="line"/>
			<point x="371" y="422" type="line"/>
			<point x="387" y="498" type="line"/>
			<point x="165" y="498" type="line"/>
			<point x="168" y="495" type="line"/>
			<point x="359" y="625"/>
			<point x="416" y="667"/>
			<point x="416" y="735" type="curve" smooth="yes"/>
			<point x="416" y="795"/>
			<point x="373" y="835"/>
			<point x="295" y="835" type="curve" smooth="yes"/>
			<point x="217" y="835"/>
			<point x="159" y="804"/>
			<point x="140" y="723" type="curve"/>
			<point x="144" y="699"/>
			<point x="158" y="685"/>
			<point x="181" y="685" type="curve" smooth="yes"/>
			<point x="207" y="685"/>
			<point x="224" y="700"/>
			<point x="226" y="740" type="curve" smooth="yes"/>
			<point x="230" y="813" type="line"/>
			<point x="197" y="778" type="line"/>
			<point x="215" y="790"/>
			<point x="238" y="797"/>
			<point x="261" y="797" type="curve" smooth="yes"/>
			<point x="299" y="797"/>
			<point x="324" y="776"/>
			<point x="324" y="732" type="curve" smooth="yes"/>
			<point x="324" y="681"/>
			<point x="286" y="633"/>
			<point x="101" y="480" type="curve"/>
		</contour>
	</outline>
</glyph>
<glyph name="paragraph" format="2">
	<unicode hex="00B6"/>
	<advance width="623"/>
	<outline>
		<contour>
			<point x="547" y="664" type="line"/>
			<point x="535" y="599" type="line"/>
			<point x="546" y="599" type="line"/>
			<point x="667" y="609" type="line"/>
			<point x="677" y="664" type="line"/>
		</contour>
		<contour>
			<point x="347" y="-124" type="line"/>
			<point x="450" y="-124" type="line"/>
			<point x="467" y="-20"/>
			<point x="486" y="84"/>
			<point x="505" y="187" type="curve" smooth="yes"/>
			<point x="593" y="664" type="line"/>
			<point x="492" y="664" type="line"/>
		</contour>
		<contour>
			<point x="407" y="606" type="line"/>
			<point x="523" y="606" type="line"/>
			<point x="533" y="664" type="line"/>
			<point x="443" y="664" type="line" smooth="yes"/>
			<point x="203" y="664"/>
			<point x="72" y="539"/>
			<point x="72" y="364" type="curve" smooth="yes"/>
			<point x="72" y="222"/>
			<point x="178" y="151"/>
			<point x="319" y="132" type="curve"/>
		</contour>
	</outline>
</glyph>
<glyph name="one.sups" format="2">
	<unicode hex="00B9"/>
	<advance width="378"/>
	<outline>
		<contour>
			<point x="106" y="422" type="line"/>
			<point x="365" y="422" type="line"/>
			<point x="371" y="458" type="line"/>
			<point x="265" y="466" type="line"/>
			<point x="218" y="466" type="line"/>
			<point x="113" y="458" type="line"/>
		</contour>
		<contour>
			<point x="185" y="422" type="line"/>
			<point x="280" y="422" type="line"/>
			<point x="346" y="737" type="line"/>
			<point x="366" y="828" type="line"/>
			<point x="351" y="832" type="line"/>
			<point x="189" y="793" type="line"/>
			<point x="181" y="760" type="line"/>
			<point x="279" y="766" type="line"/>
			<point x="259" y="788" type="line"/>
		</contour>
	</outline>
</glyph>
<glyph name="AE" format="2">
	<unicode hex="00C6"/>
	<advance width="904"/>
	<outline>
		<contour>
			<point x="456" y="0" type="line"/>
			<point x="819" y="0" type="line"/>
			<point x="858" y="178" type="line"/>
			<point x="792" y="178" type="line"/>
			<point x="726" y="7" type="line"/>
			<point x="797" y="57" type="line"/>
			<point x="463" y="57" type="line"/>
		</contour>
		<contour>
			<point x="811" y="488" type="line"/>
			<point x="878" y="488" type="line"/>
			<point x="903" y="664" type="line"/>
			<point x="572" y="664" type="line"/>
			<point x="564" y="606" type="line"/>
			<point x="854" y="606" type="line"/>
			<point x="810" y="653" type="line"/>
		</contour>
		<contour>
			<point x="-43" y="0" type="line"/>
			<point x="185" y="0" type="line"/>
			<point x="196" y="53" type="line"/>
			<point x="95" y="63" type="line"/>
			<point x="68" y="63" type="line"/>
			<point x="-32" y="53" type="line"/>
		</contour>
		<contour>
			<point x="385" y="0" type="line"/>
			<point x="509" y="0" type="line"/>
			<point x="526" y="102"/>
			<point x="545" y="205"/>
			<point x="564" y="308" type="curve" smooth="yes"/>
			<point x="630" y="664" type="line"/>
			<point x="505" y="664" type="line"/>
			<point x="488" y="561"/>
			<point x="470" y="459"/>
			<point x="451" y="357" type="curve" smooth="yes"/>
		</contour>
		<contour>
			<point x="689" y="227" type="line"/>
			<point x="743" y="227" type="line"/>
			<point x="785" y="453" type="line"/>
			<point x="731" y="453" type="line"/>
			<point x="695" y="352" type="line"/>
			<point x="692" y="331" type="line"/>
		</contour>
		<contour>
			<point x="302" y="0" type="line"/>
			<point x="442" y="0" type="line"/>
			<point x="449" y="63" type="line"/>
			<point x="437" y="63" type="line"/>
			<point x="312" y="53" type="line"/>
		</contour>
		<contour>
			<point x="331" y="610" type="line"/>
			<point x="484" y="600" type="line"/>
			<point x="544" y="600" type="line"/>
			<point x="552" y="664" type="line"/>
			<point x="341" y="664" type="line"/>
		</contour>
		<contour>
			<point x="7" y="0" type="line"/>
			<point x="77" y="0" type="line"/>
			<point x="248" y="251" type="line"/>
			<point x="524" y="664" type="line"/>
			<point x="467" y="664" type="line"/>
		</contour>
		<contour>
			<point x="212" y="224" type="line"/>
			<point x="494" y="224" type="line"/>
			<point x="494" y="278" type="line"/>
			<point x="212" y="278" type="line"/>
		</contour>
		<contour>
			<point x="512" y="312" type="line"/>
			<point x="730" y="312" type="line"/>
			<point x="730" y="367" type="line"/>
			<point x="512" y="367" type="line"/>
		</contour>
	</outline>
	<anchor name="aboveUC" x="638" y="684"/>
</glyph>
<glyph name="Idieresis" format="2">
	<unicode hex="00CF"/>
	<advance width="375"/>
	<outline>
		<contour>
			<point x="184" y="731" type="curve" smooth="yes"/>
			<point x="221" y="731"/>
			<point x="251" y="760"/>
			<point x="251" y="800" type="curve" smooth="yes"/>
			<point x="251" y="830"/>
			<point x="228" y="852"/>
			<point x="195" y="852" type="curve" smooth="yes"/>
			<point x="160" y="852"/>
			<point x="129" y="824"/>
			<point x="129" y="784" type="curve" smooth="yes"/>
			<point x="129" y="752"/>
			<point x="154" y="731"/>
		</contour>
		<contour>
			<point x="371" y="731" type="curve" smooth="yes"/>
			<point x="408" y="731"/>
			<point x="439" y="760"/>
			<point x="439" y="800" type="curve" smooth="yes"/>
			<point x="439" y="830"/>
			<point x="415" y="852"/>
			<point x="383" y="852" type="curve" smooth="yes"/>
			<point x="347" y="852"/>
			<point x="316" y="824"/>
			<point x="316" y="784" type="curve" smooth="yes"/>
			<point x="316" y="752"/>
			<point x="342" y="731"/>
		</contour>
		<component base="I"/>
	</outline>
</glyph>
<glyph name="multiply" format="2">
	<unicode hex="00D7"/>
	<advance width="545"/>
	<outline>
		<contour>
			<point x="445" y="108" type="line"/>
			<point x="498" y="160" type="line"/>
			<point x="113" y="545" type="line"/>
			<point x="60" y="493" type="line"/>
		</contour>
		<contour>
			<point x="498" y="493" type="line"/>
			<point x="446" y="545" type="line"/>
			<point x="61" y="160" type="line"/>
			<point x="113" y="108" type="line"/>
		</contour>
	</outline>
</glyph>
<glyph name="germandbls" format="2">
	<unicode hex="00DF"/>
	<advance width="573"/>
	<outline>
		<contour>
			<point x="-55" y="-241" type="curve" smooth="yes"/>
			<point x="-3" y="-241"/>
			<point x="45" y="-216"/>
			<point x="84" y="-175" type="curve" smooth="yes"/>
			<point x="130" y="-127"/>
			<point x="159" y="-59"/>
			<point x="178" y="55" type="curve" smooth="yes"/>
			<point x="203" y="192"/>
			<point x="224" y="349"/>
			<point x="248" y="497" type="curve" smooth="yes"/>
			<point x="270" y="633"/>
			<point x="315" y="701"/>
			<point x="398" y="701" type="curve" smooth="yes"/>
			<point x="443" y="701"/>
			<point x="473" y="673"/>
			<point x="473" y="624" type="curve" smooth="yes"/>
			<point x="473" y="580"/>
			<point x="454" y="547"/>
			<point x="407" y="503" type="curve" smooth="yes"/>
			<point x="353" y="453"/>
			<point x="305" y="407"/>
			<point x="305" y="340" type="curve" smooth="yes"/>
			<point x="305" y="283"/>
			<point x="333" y="242"/>
			<point x="383" y="200" type="curve" smooth="yes"/>
			<point x="432" y="159"/>
			<point x="445" y="135"/>
			<point x="445" y="103" type="curve" smooth="yes"/>
			<point x="445" y="58"/>
			<point x="413" y="26"/>
			<point x="356" y="26" type="curve" smooth="yes"/>
			<point x="337" y="26"/>
			<point x="323" y="29"/>
			<point x="303" y="33" type="curve"/>
			<point x="347" y="9" type="line"/>
			<point x="335" y="71" type="line" smooth="yes"/>
			<point x="329" y="109"/>
			<point x="310" y="125"/>
			<point x="281" y="125" type="curve" smooth="yes"/>
			<point x="254" y="125"/>
			<point x="238" y="108"/>
			<point x="232" y="83" type="curve"/>
			<point x="242" y="23"/>
			<point x="289" y="-14"/>
			<point x="371" y="-14" type="curve" smooth="yes"/>
			<point x="474" y="-14"/>
			<point x="547" y="47"/>
			<point x="547" y="131" type="curve" smooth="yes"/>
			<point x="547" y="194"/>
			<point x="521" y="230"/>
			<point x="466" y="277" type="curve" smooth="yes"/>
			<point x="418" y="319"/>
			<point x="395" y="348"/>
			<point x="395" y="389" type="curve" smooth="yes"/>
			<point x="395" y="427"/>
			<point x="415" y="455"/>
			<point x="458" y="486" type="curve" smooth="yes"/>
			<point x="525" y="532"/>
			<point x="572" y="566"/>
			<point x="572" y="631" type="curve" smooth="yes"/>
			<point x="572" y="699"/>
			<point x="511" y="741"/>
			<point x="406" y="741" type="curve" smooth="yes"/>
			<point x="269" y="741"/>
			<point x="161" y="665"/>
			<point x="131" y="463" type="curve" smooth="yes"/>
			<point x="109" y="320"/>
			<point x="90" y="180"/>
			<point x="68" y="40" type="curve" smooth="yes"/>
			<point x="53" y="-50"/>
			<point x="39" y="-104"/>
			<point x="20" y="-144" type="curve" smooth="yes"/>
			<point x="6" y="-172"/>
			<point x="-9" y="-189"/>
			<point x="-25" y="-206" type="curve"/>
			<point x="-19" y="-205" type="line"/>
			<point x="-22" y="-205" type="line"/>
			<point x="-11" y="-206" type="line"/>
			<point x="-34" y="-177" type="line" smooth="yes"/>
			<point x="-60" y="-144"/>
			<point x="-79" y="-126"/>
			<point x="-112" y="-126" type="curve" smooth="yes"/>
			<point x="-142" y="-126"/>
			<point x="-161" y="-146"/>
			<point x="-166" y="-173" type="curve"/>
			<point x="-155" y="-212"/>
			<point x="-119" y="-241"/>
		</contour>
	</outline>
</glyph>
<glyph name="ae" format="2">
	<unicode hex="00E6"/>
	<advance width="744"/>
	<outline>
		<contour>
			<point x="140" y="-14" type="curve" smooth="yes"/>
			<point x="208" y="-14"/>
			<point x="276" y="38"/>
			<point x="334" y="116" type="curve"/>
			<point x="356" y="116" type="line"/>
			<point x="342" y="167" type="line"/>
			<point x="281" y="100"/>
			<point x="244" y="75"/>
			<point x="208" y="75" type="curve" smooth="yes"/>
			<point x="171" y="75"/>
			<point x="150" y="103"/>
			<point x="150" y="166" type="curve" smooth="yes"/>
			<point x="150" y="242"/>
			<point x="181" y="328"/>
			<point x="226" y="377" type="curve" smooth="yes"/>
			<point x="258" y="413"/>
			<point x="292" y="434"/>
			<point x="326" y="434" type="curve" smooth="yes"/>
			<point x="359" y="434"/>
			<point x="394" y="420"/>
			<point x="422" y="390" type="curve"/>
			<point x="475" y="441" type="line"/>
			<point x="446" y="479"/>
			<point x="407" y="504"/>
			<point x="359" y="504" type="curve" smooth="yes"/>
			<point x="214" y="504"/>
			<point x="32" y="304"/>
			<point x="32" y="121" type="curve" smooth="yes"/>
			<point x="32" y="25"/>
			<point x="81" y="-14"/>
		</contour>
		<component base="e" xOffset="283"/>
	</outline>
	<anchor name="aboveLC" x="470" y="510"/>
	<anchor name="belowLC" x="324" y="-20"/>
</glyph>
<glyph name="eth" format="2">
	<unicode hex="00F0"/>
	<advance width="582"/>
	<outline>
		<contour>
			<point x="247" y="-12" type="curve" smooth="yes"/>
			<point x="410" y="-12"/>
			<point x="552" y="130"/>
			<point x="552" y="359" type="curve" smooth="yes"/>
			<point x="552" y="573"/>
			<point x="423" y="677"/>
			<point x="266" y="735" type="curve"/>
			<point x="238" y="692" type="line"/>
			<point x="371" y="625"/>
			<point x="441" y="531"/>
			<point x="456" y="372" type="curve"/>
			<point x="438" y="370" type="line"/>
			<point x="427" y="433"/>
			<point x="390" y="487"/>
			<point x="303" y="487" type="curve" smooth="yes"/>
			<point x="166" y="487"/>
			<point x="51" y="357"/>
			<point x="51" y="189" type="curve" smooth="yes"/>
			<point x="51" y="51"/>
			<point x="132" y="-12"/>
		</contour>
		<contour>
			<point x="261" y="47" type="curve" smooth="yes"/>
			<point x="207" y="47"/>
			<point x="182" y="83"/>
			<point x="182" y="169" type="curve" smooth="yes"/>
			<point x="182" y="306"/>
			<point x="247" y="428"/>
			<point x="335" y="428" type="curve" smooth="yes"/>
			<point x="389" y="428"/>
			<point x="414" y="392"/>
			<point x="414" y="306" type="curve" smooth="yes"/>
			<point x="414" y="169"/>
			<point x="348" y="47"/>
		</contour>
		<contour>
			<point x="249" y="538" type="line"/>
			<point x="548" y="683" type="line"/>
			<point x="528" y="724" type="line"/>
			<point x="226" y="570" type="line"/>
		</contour>
	</outline>
</glyph>
<glyph name="divide" format="2">
	<unicode hex="00F7"/>
	<advance width="545"/>
	<outline>
		<contour>
			<point x="279" y="67" type="curve" smooth="yes"/>
			<point x="317" y="67"/>
			<point x="348" y="94"/>
			<point x="348" y="134" type="curve" smooth="yes"/>
			<point x="348" y="173"/>
			<point x="317" y="201"/>
			<point x="279" y="201" type="curve" smooth="yes"/>
			<point x="241" y="201"/>
			<point x="210" y="173"/>
			<point x="210" y="134" type="curve" smooth="yes"/>
			<point x="210" y="94"/>
			<point x="241" y="67"/>
		</contour>
		<contour>
			<point x="279" y="449" type="curve" smooth="yes"/>
			<point x="317" y="449"/>
			<point x="348" y="478"/>
			<point x="348" y="517" type="curve" smooth="yes"/>
			<point x="348" y="557"/>
			<point x="317" y="584"/>
			<point x="279" y="584" type="curve" smooth="yes"/>
			<point x="241" y="584"/>
			<point x="210" y="557"/>
			<point x="210" y="517" type="curve" smooth="yes"/>
			<point x="210" y="478"/>
			<point x="241" y="449"/>
		</contour>
		<component base="minus"/>
	</outline>
</glyph>
<glyph name="thorn" format="2">
	<unicode hex="00FE"/>
	<advance width="549"/>
	<outline>
		<contour>
			<point x="-76" y="-230" type="line"/>
			<point x="200" y="-230" type="line"/>
			<point x="209" y="-186" type="line"/>
			<point x="85" y="-173" type="line"/>
			<point x="48" y="-173" type="line"/>
			<point x="-67" y="-186" type="line"/>
		</contour>
		<contour>
			<point x="-4" y="-230" type="line"/>
			<point x="110" y="-230" type="line"/>
			<point x="125" y="-145"/>
			<point x="140" y="-59"/>
			<point x="158" y="29" type="curve"/>
			<point x="166" y="39" type="line"/>
			<point x="233" y="358" type="line"/>
			<point x="230" y="367" type="line"/>
			<point x="305" y="721" type="line"/>
			<point x="282" y="731" type="line"/>
			<point x="92" y="683" type="line"/>
			<point x="85" y="642" type="line"/>
			<point x="213" y="628" type="line"/>
			<point x="177" y="656" type="line"/>
			<point x="165" y="589"/>
			<point x="153" y="526"/>
			<point x="137" y="450" type="curve" smooth="yes"/>
		</contour>
		<contour>
			<point x="207" y="-14" type="curve" smooth="yes"/>
			<point x="357" y="-14"/>
			<point x="531" y="180"/>
			<point x="531" y="367" type="curve" smooth="yes"/>
			<point x="531" y="465"/>
			<point x="485" y="504"/>
			<point x="426" y="504" type="curve" smooth="yes"/>
			<point x="353" y="504"/>
			<point x="268" y="443"/>
			<point x="215" y="349" type="curve"/>
			<point x="195" y="349" type="line"/>
			<point x="208" y="314" type="line"/>
			<point x="266" y="384"/>
			<point x="316" y="416"/>
			<point x="355" y="416" type="curve" smooth="yes"/>
			<point x="394" y="416"/>
			<point x="414" y="388"/>
			<point x="414" y="324" type="curve" smooth="yes"/>
			<point x="414" y="254"/>
			<point x="388" y="177"/>
			<point x="352" y="128" type="curve" smooth="yes"/>
			<point x="320" y="83"/>
			<point x="283" y="56"/>
			<point x="239" y="56" type="curve" smooth="yes"/>
			<point x="203" y="56"/>
			<point x="169" y="74"/>
			<point x="139" y="109" type="curve"/>
			<point x="105" y="28" type="line"/>
			<point x="134" y="-1"/>
			<point x="164" y="-14"/>
		</contour>
	</outline>
	<anchor name="aboveLC" x="254" y="733"/>
	<anchor name="belowLC" x="350" y="-20"/>
</glyph>
<glyph name="aogonek" format="2">
	<unicode hex="0105"/>
	<advance width="569"/>
	<outline>
		<contour>
			<point x="140" y="-14" type="curve" smooth="yes"/>
			<point x="211" y="-14"/>
			<point x="284" y="49"/>
			<point x="342" y="134" type="curve"/>
			<point x="362" y="134" type="line"/>
			<point x="352" y="178" type="line"/>
			<point x="285" y="101"/>
			<point x="244" y="75"/>
			<point x="207" y="75" type="curve" smooth="yes"/>
			<point x="171" y="75"/>
			<point x="150" y="103"/>
			<point x="150" y="166" type="curve" smooth="yes"/>
			<point x="150" y="242"/>
			<point x="181" y="328"/>
			<point x="226" y="377" type="curve" smooth="yes"/>
			<point x="258" y="413"/>
			<point x="294" y="434"/>
			<point x="329" y="434" type="curve" smooth="yes"/>
			<point x="361" y="434"/>
			<point x="391" y="419"/>
			<point x="418" y="394" type="curve"/>
			<point x="465" y="438" type="line"/>
			<point x="435" y="479"/>
			<point x="407" y="504"/>
			<point x="361" y="504" type="curve" smooth="yes"/>
			<point x="217" y="504"/>
			<point x="32" y="302"/>
			<point x="32" y="119" type="curve" smooth="yes"/>
			<point x="32" y="23"/>
			<point x="81" y="-14"/>
		</contour>
		<contour>
			<point x="414" y="-234" type="curve" smooth="yes"/>
			<point x="452" y="-234"/>
			<point x="481" y="-219"/>
			<point x="505" y="-201" type="curve"/>
			<point x="491" y="-168" type="line"/>
			<point x="478" y="-174"/>
			<point x="463" y="-178"/>
			<point x="450" y="-178" type="curve" smooth="yes"/>
			<point x="420" y="-178"/>
			<point x="399" y="-160"/>
			<point x="399" y="-124" type="curve" smooth="yes"/>
			<point x="399" y="-77"/>
			<point x="430" y="-32"/>
			<point x="481" y="13" type="curve" smooth="yes"/>
			<point x="514" y="42"/>
			<point x="543" y="76"/>
			<point x="565" y="115" type="curve"/>
			<point x="533" y="137" type="line"/>
			<point x="499" y="90"/>
			<point x="475" y="67"/>
			<point x="452" y="67" type="curve" smooth="yes"/>
			<point x="438" y="67"/>
			<point x="429" y="76"/>
			<point x="429" y="92" type="curve" smooth="yes"/>
			<point x="429" y="105"/>
			<point x="433" y="124"/>
			<point x="439" y="150" type="curve" smooth="yes"/>
			<point x="520" y="506" type="line"/>
			<point x="488" y="513" type="line"/>
			<point x="406" y="452" type="line"/>
			<point x="391" y="449" type="line"/>
			<point x="322" y="137" type="line"/>
			<point x="326" y="132" type="line" smooth="yes"/>
			<point x="321" y="111"/>
			<point x="318" y="90"/>
			<point x="318" y="65" type="curve" smooth="yes"/>
			<point x="318" y="11"/>
			<point x="348" y="-13"/>
			<point x="394" y="-13" type="curve" smooth="yes"/>
			<point x="406" y="-13"/>
			<point x="416" y="-11"/>
			<point x="444" y="-2" type="curve"/>
			<point x="415" y="24" type="line"/>
			<point x="415" y="-14" type="line"/>
			<point x="363" y="-52"/>
			<point x="320" y="-97"/>
			<point x="320" y="-152" type="curve" smooth="yes"/>
			<point x="320" y="-201"/>
			<point x="354" y="-234"/>
		</contour>
	</outline>
	<anchor name="aboveLC" x="366" y="510"/>
</glyph>
<glyph name="dcroat" format="2">
	<unicode hex="0111"/>
	<advance width="572"/>
	<outline>
		<contour>
			<point x="138" y="-14" type="curve" smooth="yes"/>
			<point x="210" y="-14"/>
			<point x="286" y="48"/>
			<point x="342" y="134" type="curve"/>
			<point x="363" y="134" type="line"/>
			<point x="353" y="178" type="line"/>
			<point x="287" y="101"/>
			<point x="246" y="75"/>
			<point x="209" y="75" type="curve" smooth="yes"/>
			<point x="172" y="75"/>
			<point x="150" y="103"/>
			<point x="150" y="166" type="curve" smooth="yes"/>
			<point x="150" y="234"/>
			<point x="178" y="306"/>
			<point x="220" y="354" type="curve" smooth="yes"/>
			<point x="248" y="388"/>
			<point x="286" y="410"/>
			<point x="325" y="410" type="curve" smooth="yes"/>
			<point x="357" y="410"/>
			<point x="382" y="398"/>
			<point x="409" y="369" type="curve"/>
			<point x="459" y="423" type="line"/>
			<point x="425" y="461"/>
			<point x="399" y="478"/>
			<point x="356" y="478" type="curve" smooth="yes"/>
			<point x="210" y="478"/>
			<point x="33" y="294"/>
			<point x="33" y="120" type="curve" smooth="yes"/>
			<point x="33" y="21"/>
			<point x="79" y="-14"/>
		</contour>
		<contour>
			<point x="265" y="533" type="line"/>
			<point x="616" y="533" type="line"/>
			<point x="624" y="573" type="line"/>
			<point x="273" y="573" type="line"/>
		</contour>
		<contour>
			<point x="397" y="-14" type="curve" smooth="yes"/>
			<point x="468" y="-14"/>
			<point x="530" y="45"/>
			<point x="569" y="115" type="curve"/>
			<point x="536" y="137" type="line"/>
			<point x="504" y="89"/>
			<point x="478" y="67"/>
			<point x="456" y="67" type="curve" smooth="yes"/>
			<point x="442" y="67"/>
			<point x="433" y="76"/>
			<point x="433" y="92" type="curve" smooth="yes"/>
			<point x="433" y="104"/>
			<point x="437" y="122"/>
			<point x="442" y="150" type="curve" smooth="yes"/>
			<point x="561" y="721" type="line"/>
			<point x="537" y="731" type="line"/>
			<point x="346" y="683" type="line"/>
			<point x="339" y="642" type="line"/>
			<point x="467" y="627" type="line"/>
			<point x="439" y="660" type="line"/>
			<point x="396" y="449" type="line"/>
			<point x="386" y="430" type="line"/>
			<point x="325" y="140" type="line"/>
			<point x="328" y="127" type="line" smooth="yes"/>
			<point x="322" y="98"/>
			<point x="320" y="81"/>
			<point x="320" y="62" type="curve" smooth="yes"/>
			<point x="320" y="14"/>
			<point x="349" y="-14"/>
		</contour>
	</outline>
</glyph>
<glyph name="kgreenlandic" format="2">
	<unicode hex="0138"/>
	<advance width="532"/>
	<outline>
		<contour>
			<point x="66" y="-9" type="line"/>
			<point x="163" y="0" type="line"/>
			<point x="178" y="74"/>
			<point x="191" y="147"/>
			<point x="207" y="221" type="curve" smooth="yes"/>
			<point x="239" y="367" type="line"/>
			<point x="264" y="491" type="line"/>
			<point x="237" y="503" type="line"/>
			<point x="49" y="448" type="line"/>
			<point x="42" y="407" type="line"/>
			<point x="169" y="398" type="line"/>
			<point x="136" y="426" type="line"/>
			<point x="46" y="1" type="line"/>
		</contour>
		<contour>
			<point x="515" y="0" type="curve"/>
			<point x="521" y="36" type="line"/>
			<point x="484" y="40" type="line" smooth="yes"/>
			<point x="455" y="43"/>
			<point x="440" y="55"/>
			<point x="417" y="100" type="curve" smooth="yes"/>
			<point x="388" y="157" type="line" smooth="yes"/>
			<point x="359" y="211"/>
			<point x="322" y="237"/>
			<point x="254" y="246" type="curve" smooth="yes"/>
			<point x="217" y="250" type="line"/>
			<point x="215" y="248" type="line"/>
			<point x="454" y="366" type="line" smooth="yes"/>
			<point x="509" y="390"/>
			<point x="535" y="407"/>
			<point x="535" y="441" type="curve" smooth="yes"/>
			<point x="535" y="471"/>
			<point x="512" y="493"/>
			<point x="483" y="498" type="curve"/>
			<point x="253" y="302" type="line"/>
			<point x="207" y="260" type="line"/>
			<point x="190" y="260" type="line"/>
			<point x="190" y="233" type="line"/>
			<point x="207" y="228" type="line" smooth="yes"/>
			<point x="241" y="217"/>
			<point x="256" y="205"/>
			<point x="275" y="156" type="curve" smooth="yes"/>
			<point x="304" y="81" type="line" smooth="yes"/>
			<point x="333" y="6"/>
			<point x="371" y="-14"/>
			<point x="430" y="-14" type="curve" smooth="yes"/>
			<point x="460" y="-14"/>
			<point x="490" y="-8"/>
		</contour>
	</outline>
</glyph>
<glyph name="Lslash" format="2">
	<unicode hex="0141"/>
	<advance width="578"/>
	<outline>
		<contour>
			<point x="439" y="476" type="line"/>
			<point x="217" y="363" type="line"/>
			<point x="203" y="294" type="line"/>
			<point x="426" y="406" type="line"/>
		</contour>
		<contour>
			<point x="199" y="363" type="line"/>
			<point x="36" y="282" type="line"/>
			<point x="22" y="213" type="line"/>
			<point x="184" y="293" type="line"/>
		</contour>
		<component base="L"/>
	</outline>
</glyph>
<glyph name="lslash" format="2">
	<unicode hex="0142"/>
	<advance width="309"/>
	<outline>
		<contour>
			<point x="187" y="422" type="line"/>
			<point x="22" y="342" type="line"/>
			<point x="9" y="279" type="line"/>
			<point x="174" y="360" type="line"/>
		</contour>
		<contour>
			<point x="335" y="483" type="line"/>
			<point x="165" y="400" type="line"/>
			<point x="153" y="338" type="line"/>
			<point x="322" y="421" type="line"/>
		</contour>
		<component base="l"/>
	</outline>
</glyph>
<glyph name="Eng" format="2">
	<unicode hex="014A"/>
	<advance width="731"/>
	<outline>
		<contour>
			<point x="-10" y="0" type="line"/>
			<point x="238" y="0" type="line"/>
			<point x="247" y="53" type="line"/>
			<point x="127" y="63" type="line"/>
			<point x="104" y="63" type="line"/>
			<point x="0" y="53" type="line"/>
		</contour>
		<contour>
			<point x="72" y="0" type="line"/>
			<point x="133" y="0" type="line"/>
			<point x="191" y="318" type="line"/>
			<point x="247" y="653" type="line"/>
			<point x="195" y="653" type="line"/>
		</contour>
		<contour>
			<point x="358" y="-140" type="curve" smooth="yes"/>
			<point x="411" y="-140"/>
			<point x="458" y="-119"/>
			<point x="504" y="-71" type="curve" smooth="yes"/>
			<point x="556" y="-17"/>
			<point x="583" y="41"/>
			<point x="610" y="194" type="curve" smooth="yes"/>
			<point x="693" y="664" type="line"/>
			<point x="633" y="664" type="line"/>
			<point x="579" y="351" type="line"/>
			<point x="546" y="142" type="line" smooth="yes"/>
			<point x="522" y="11"/>
			<point x="486" y="-47"/>
			<point x="420" y="-93" type="curve"/>
			<point x="428" y="-97" type="line"/>
			<point x="430" y="-97" type="line"/>
			<point x="442" y="-95" type="line"/>
			<point x="414" y="-66" type="line" smooth="yes"/>
			<point x="391" y="-39"/>
			<point x="367" y="-26"/>
			<point x="336" y="-26" type="curve" smooth="yes"/>
			<point x="303" y="-26"/>
			<point x="275" y="-40"/>
			<point x="264" y="-80" type="curve"/>
			<point x="273" y="-121"/>
			<point x="311" y="-140"/>
		</contour>
		<contour>
			<point x="491" y="0" type="line"/>
			<point x="537" y="0" type="line"/>
			<point x="584" y="137" type="line"/>
			<point x="556" y="137" type="line"/>
			<point x="306" y="664" type="line"/>
			<point x="109" y="664" type="line"/>
			<point x="99" y="610" type="line"/>
			<point x="194" y="604" type="line"/>
			<point x="206" y="568" type="line"/>
			<point x="218" y="562" type="line"/>
		</contour>
		<contour>
			<point x="644" y="600" type="line"/>
			<point x="667" y="600" type="line"/>
			<point x="767" y="610" type="line"/>
			<point x="777" y="664" type="line"/>
			<point x="529" y="664" type="line"/>
			<point x="519" y="610" type="line"/>
		</contour>
	</outline>
</glyph>
<glyph name="OE" format="2">
	<unicode hex="0152"/>
	<advance width="895"/>
	<outline>
		<contour>
			<point x="433" y="1" type="curve"/>
			<point x="437" y="59" type="line"/>
			<point x="406" y="49"/>
			<point x="370" y="42"/>
			<point x="338" y="42" type="curve" smooth="yes"/>
			<point x="240" y="42"/>
			<point x="174" y="110"/>
			<point x="174" y="247" type="curve" smooth="yes"/>
			<point x="174" y="454"/>
			<point x="284" y="622"/>
			<point x="440" y="622" type="curve" smooth="yes"/>
			<point x="484" y="622"/>
			<point x="519" y="613"/>
			<point x="548" y="602" type="curve"/>
			<point x="556" y="662" type="line"/>
			<point x="519" y="673"/>
			<point x="479" y="680"/>
			<point x="434" y="680" type="curve" smooth="yes"/>
			<point x="206" y="680"/>
			<point x="47" y="477"/>
			<point x="47" y="257" type="curve" smooth="yes"/>
			<point x="47" y="76"/>
			<point x="160" y="-16"/>
			<point x="317" y="-16" type="curve" smooth="yes"/>
			<point x="365" y="-16"/>
			<point x="399" y="-8"/>
		</contour>
		<contour>
			<point x="379" y="0" type="line"/>
			<point x="504" y="0" type="line"/>
			<point x="521" y="102"/>
			<point x="539" y="205"/>
			<point x="558" y="308" type="curve" smooth="yes"/>
			<point x="624" y="664" type="line"/>
			<point x="500" y="664" type="line"/>
			<point x="483" y="561"/>
			<point x="465" y="459"/>
			<point x="446" y="357" type="curve" smooth="yes"/>
		</contour>
		<contour>
			<point x="449" y="0" type="line"/>
			<point x="810" y="0" type="line"/>
			<point x="849" y="178" type="line"/>
			<point x="783" y="178" type="line"/>
			<point x="716" y="7" type="line"/>
			<point x="789" y="57" type="line"/>
			<point x="456" y="57" type="line"/>
		</contour>
		<contour>
			<point x="502" y="312" type="line"/>
			<point x="716" y="312" type="line"/>
			<point x="722" y="367" type="line"/>
			<point x="509" y="367" type="line"/>
		</contour>
		<contour>
			<point x="557" y="606" type="line"/>
			<point x="845" y="606" type="line"/>
			<point x="800" y="653" type="line"/>
			<point x="802" y="488" type="line"/>
			<point x="869" y="488" type="line"/>
			<point x="894" y="664" type="line"/>
			<point x="564" y="664" type="line"/>
		</contour>
		<contour>
			<point x="683" y="225" type="line"/>
			<point x="736" y="225" type="line"/>
			<point x="778" y="453" type="line"/>
			<point x="725" y="453" type="line"/>
			<point x="687" y="352" type="line"/>
			<point x="684" y="331" type="line"/>
		</contour>
	</outline>
	<anchor name="aboveUC" x="564" y="684"/>
</glyph>
<glyph name="oe" format="2">
	<unicode hex="0153"/>
	<advance width="802"/>
	<outline>
		<contour>
			<point x="224" y="-14" type="curve" smooth="yes"/>
			<point x="310" y="-14"/>
			<point x="385" y="39"/>
			<point x="426" y="118" type="curve"/>
			<point x="398" y="120" type="line"/>
			<point x="409" y="33"/>
			<point x="472" y="-14"/>
			<point x="553" y="-14" type="curve" smooth="yes"/>
			<point x="647" y="-14"/>
			<point x="719" y="52"/>
			<point x="761" y="126" type="curve"/>
			<point x="729" y="150" type="line"/>
			<point x="697" y="110"/>
			<point x="655" y="73"/>
			<point x="593" y="73" type="curve" smooth="yes"/>
			<point x="530" y="73"/>
			<point x="490" y="114"/>
			<point x="490" y="205" type="curve" smooth="yes"/>
			<point x="490" y="334"/>
			<point x="583" y="452"/>
			<point x="648" y="452" type="curve" smooth="yes"/>
			<point x="676" y="452"/>
			<point x="694" y="433"/>
			<point x="694" y="400" type="curve" smooth="yes"/>
			<point x="694" y="338"/>
			<point x="633" y="260"/>
			<point x="444" y="214" type="curve"/>
			<point x="446" y="175" type="line"/>
			<point x="697" y="232"/>
			<point x="791" y="317"/>
			<point x="791" y="401" type="curve" smooth="yes"/>
			<point x="791" y="464"/>
			<point x="745" y="504"/>
			<point x="667" y="504" type="curve" smooth="yes"/>
			<point x="582" y="504"/>
			<point x="502" y="453"/>
			<point x="457" y="376" type="curve"/>
			<point x="483" y="377" type="line"/>
			<point x="462" y="461"/>
			<point x="401" y="504"/>
			<point x="320" y="504" type="curve" smooth="yes"/>
			<point x="161" y="504"/>
			<point x="38" y="350"/>
			<point x="38" y="175" type="curve" smooth="yes"/>
			<point x="38" y="51"/>
			<point x="115" y="-14"/>
		</contour>
		<contour>
			<point x="238" y="37" type="curve" smooth="yes"/>
			<point x="190" y="37"/>
			<point x="157" y="73"/>
			<point x="157" y="167" type="curve" smooth="yes"/>
			<point x="157" y="310"/>
			<point x="222" y="453"/>
			<point x="310" y="453" type="curve" smooth="yes"/>
			<point x="357" y="453"/>
			<point x="389" y="417"/>
			<point x="389" y="324" type="curve" smooth="yes"/>
			<point x="389" y="184"/>
			<point x="327" y="37"/>
		</contour>
	</outline>
	<anchor name="aboveLC" x="482" y="510"/>
</glyph>
<glyph name="longs" format="2">
	<unicode hex="017F"/>
	<advance width="337"/>
	<outline>
		<contour>
			<point x="-55" y="-241" type="curve" smooth="yes"/>
			<point x="-3" y="-241"/>
			<point x="45" y="-216"/>
			<point x="83" y="-175" type="curve" smooth="yes"/>
			<point x="130" y="-127"/>
			<point x="158" y="-59"/>
			<point x="177" y="49" type="curve" smooth="yes"/>
			<point x="204" y="199"/>
			<point x="225" y="353"/>
			<point x="248" y="497" type="curve" smooth="yes"/>
			<point x="273" y="649"/>
			<point x="308" y="685"/>
			<point x="357" y="714" type="curve"/>
			<point x="352" y="718" type="line"/>
			<point x="344" y="718" type="line"/>
			<point x="332" y="714" type="line"/>
			<point x="361" y="669" type="line" smooth="yes"/>
			<point x="386" y="633"/>
			<point x="407" y="616"/>
			<point x="438" y="616" type="curve" smooth="yes"/>
			<point x="464" y="616"/>
			<point x="486" y="637"/>
			<point x="491" y="666" type="curve"/>
			<point x="481" y="704"/>
			<point x="431" y="740"/>
			<point x="362" y="740" type="curve" smooth="yes"/>
			<point x="266" y="740"/>
			<point x="162" y="677"/>
			<point x="132" y="469" type="curve" smooth="yes"/>
			<point x="111" y="324"/>
			<point x="90" y="183"/>
			<point x="67" y="40" type="curve" smooth="yes"/>
			<point x="53" y="-50"/>
			<point x="39" y="-104"/>
			<point x="19" y="-144" type="curve" smooth="yes"/>
			<point x="6" y="-172"/>
			<point x="-9" y="-190"/>
			<point x="-25" y="-206" type="curve"/>
			<point x="-19" y="-206" type="line"/>
			<point x="-22" y="-206" type="line"/>
			<point x="-11" y="-206" type="line"/>
			<point x="-34" y="-177" type="line" smooth="yes"/>
			<point x="-60" y="-144"/>
			<point x="-79" y="-126"/>
			<point x="-112" y="-126" type="curve" smooth="yes"/>
			<point x="-142" y="-126"/>
			<point x="-161" y="-146"/>
			<point x="-166" y="-173" type="curve"/>
			<point x="-155" y="-212"/>
			<point x="-119" y="-241"/>
		</contour>
	</outline>
</glyph>
<glyph name="Schwa" format="2">
	<unicode hex="018F"/>
	<advance width="630"/>
	<outline>
		<contour>
			<point x="267" y="-17" type="curve" smooth="yes"/>
			<point x="469" y="-17"/>
			<point x="617" y="184"/>
			<point x="617" y="410" type="curve" smooth="yes"/>
			<point x="617" y="584"/>
			<point x="523" y="680"/>
			<point x="371" y="680" type="curve" smooth="yes"/>
			<point x="278" y="680"/>
			<point x="203" y="640"/>
			<point x="148" y="585" type="curve"/>
			<point x="180" y="545" type="line"/>
			<point x="228" y="583"/>
			<point x="281" y="608"/>
			<point x="343" y="608" type="curve" smooth="yes"/>
			<point x="430" y="608"/>
			<point x="491" y="555"/>
			<point x="491" y="430" type="curve" smooth="yes"/>
			<point x="491" y="199"/>
			<point x="392" y="41"/>
			<point x="278" y="41" type="curve" smooth="yes"/>
			<point x="211" y="41"/>
			<point x="161" y="85"/>
			<point x="161" y="194" type="curve" smooth="yes"/>
			<point x="161" y="245"/>
			<point x="167" y="280"/>
			<point x="176" y="313" type="curve"/>
			<point x="534" y="313" type="line"/>
			<point x="541" y="370" type="line"/>
			<point x="65" y="370" type="line"/>
			<point x="53" y="327"/>
			<point x="42" y="279"/>
			<point x="42" y="221" type="curve" smooth="yes"/>
			<point x="42" y="71"/>
			<point x="123" y="-17"/>
		</contour>
	</outline>
	<anchor name="aboveUC" x="375" y="684"/>
	<anchor name="belowLC" x="280" y="-20"/>
</glyph>
<glyph name="florin" format="2">
	<unicode hex="0192"/>
	<advance width="539"/>
	<outline>
		<contour>
			<point x="137" y="345" type="line"/>
			<point x="450" y="345" type="line"/>
			<point x="461" y="398" type="line"/>
			<point x="147" y="398" type="line"/>
		</contour>
		<contour>
			<point x="80" y="-102" type="curve" smooth="yes"/>
			<point x="130" y="-102"/>
			<point x="173" y="-85"/>
			<point x="208" y="-49" type="curve" smooth="yes"/>
			<point x="251" y="-6"/>
			<point x="284" y="58"/>
			<point x="315" y="212" type="curve" smooth="yes"/>
			<point x="346" y="369" type="line" smooth="yes"/>
			<point x="370" y="485"/>
			<point x="382" y="536"/>
			<point x="404" y="573" type="curve" smooth="yes"/>
			<point x="419" y="597"/>
			<point x="435" y="612"/>
			<point x="457" y="622" type="curve"/>
			<point x="480" y="626" type="line"/>
			<point x="434" y="626" type="line"/>
			<point x="460" y="581" type="line" smooth="yes"/>
			<point x="478" y="550"/>
			<point x="495" y="540"/>
			<point x="521" y="540" type="curve" smooth="yes"/>
			<point x="553" y="540"/>
			<point x="573" y="561"/>
			<point x="578" y="593" type="curve"/>
			<point x="568" y="628"/>
			<point x="532" y="653"/>
			<point x="472" y="653" type="curve" smooth="yes"/>
			<point x="421" y="653"/>
			<point x="378" y="636"/>
			<point x="342" y="600" type="curve" smooth="yes"/>
			<point x="303" y="560"/>
			<point x="268" y="501"/>
			<point x="240" y="363" type="curve" smooth="yes"/>
			<point x="207" y="195" type="line" smooth="yes"/>
			<point x="182" y="72"/>
			<point x="170" y="16"/>
			<point x="146" y="-22" type="curve" smooth="yes"/>
			<point x="132" y="-46"/>
			<point x="116" y="-61"/>
			<point x="94" y="-71" type="curve"/>
			<point x="70" y="-76" type="line"/>
			<point x="115" y="-74" type="line"/>
			<point x="90" y="-29" type="line" smooth="yes"/>
			<point x="73" y="1"/>
			<point x="55" y="12"/>
			<point x="29" y="12" type="curve" smooth="yes"/>
			<point x="-2" y="12"/>
			<point x="-21" y="-8"/>
			<point x="-28" y="-37" type="curve"/>
			<point x="-21" y="-74"/>
			<point x="17" y="-102"/>
		</contour>
	</outline>
</glyph>
<glyph name="uhorn" format="2">
	<unicode hex="01B0"/>
	<advance width="606"/>
	<outline>
		<contour>
			<point x="155" y="-14" type="curve" smooth="yes"/>
			<point x="232" y="-14"/>
			<point x="300" y="40"/>
			<point x="375" y="129" type="curve"/>
			<point x="394" y="129" type="line"/>
			<point x="386" y="171" type="line"/>
			<point x="312" y="104"/>
			<point x="272" y="75"/>
			<point x="229" y="75" type="curve" smooth="yes"/>
			<point x="204" y="75"/>
			<point x="189" y="89"/>
			<point x="189" y="117" type="curve" smooth="yes"/>
			<point x="189" y="139"/>
			<point x="195" y="166"/>
			<point x="203" y="199" type="curve" smooth="yes"/>
			<point x="271" y="491" type="line"/>
			<point x="245" y="503" type="line"/>
			<point x="54" y="449" type="line"/>
			<point x="47" y="408" type="line"/>
			<point x="163" y="401" type="line"/>
			<point x="141" y="430" type="line"/>
			<point x="84" y="180" type="line" smooth="yes"/>
			<point x="76" y="145"/>
			<point x="67" y="104"/>
			<point x="67" y="71" type="curve" smooth="yes"/>
			<point x="67" y="18"/>
			<point x="101" y="-14"/>
		</contour>
		<contour>
			<point x="427" y="-14" type="curve" smooth="yes"/>
			<point x="505" y="-14"/>
			<point x="559" y="47"/>
			<point x="601" y="113" type="curve"/>
			<point x="568" y="135" type="line"/>
			<point x="532" y="87"/>
			<point x="510" y="67"/>
			<point x="488" y="67" type="curve" smooth="yes"/>
			<point x="474" y="67"/>
			<point x="466" y="76"/>
			<point x="466" y="91" type="curve" smooth="yes"/>
			<point x="466" y="104"/>
			<point x="470" y="126"/>
			<point x="476" y="152" type="curve" smooth="yes"/>
			<point x="549" y="491" type="line"/>
			<point x="507" y="463" type="line"/>
			<point x="592" y="472"/>
			<point x="668" y="539"/>
			<point x="668" y="630" type="curve" smooth="yes"/>
			<point x="668" y="645"/>
			<point x="666" y="657"/>
			<point x="661" y="670" type="curve"/>
			<point x="650" y="680"/>
			<point x="641" y="683"/>
			<point x="624" y="683" type="curve" smooth="yes"/>
			<point x="593" y="683"/>
			<point x="571" y="659"/>
			<point x="571" y="627" type="curve" smooth="yes"/>
			<point x="571" y="599"/>
			<point x="586" y="584"/>
			<point x="586" y="557" type="curve" smooth="yes"/>
			<point x="586" y="525"/>
			<point x="550" y="508"/>
			<point x="507" y="497" type="curve" smooth="yes"/>
			<point x="428" y="478" type="line"/>
			<point x="417" y="419"/>
			<point x="406" y="362"/>
			<point x="394" y="304" type="curve" smooth="yes"/>
			<point x="356" y="127" type="line"/>
			<point x="361" y="127" type="line"/>
			<point x="354" y="98"/>
			<point x="351" y="80"/>
			<point x="351" y="64" type="curve" smooth="yes"/>
			<point x="351" y="12"/>
			<point x="380" y="-14"/>
		</contour>
	</outline>
	<anchor name="aboveLC" x="351" y="510"/>
	<anchor name="belowLC" x="286" y="-20"/>
</glyph>
<glyph name="j.sups" format="2">
	<unicode hex="02B2"/>
	<advance width="212"/>
	<outline>
		<contour>
			<point x="233" y="816" type="curve" smooth="yes"/>
			<point x="262" y="816"/>
			<point x="287" y="841"/>
			<point x="287" y="871" type="curve" smooth="yes"/>
			<point x="287" y="898"/>
			<point x="268" y="917"/>
			<point x="240" y="917" type="curve" smooth="yes"/>
			<point x="210" y="917"/>
			<point x="186" y="892"/>
			<point x="186" y="862" type="curve" smooth="yes"/>
			<point x="186" y="834"/>
			<point x="206" y="816"/>
		</contour>
		<contour>
			<point x="25" y="265" type="line"/>
			<point x="68" y="272"/>
			<point x="103" y="289"/>
			<point x="131" y="317" type="curve" smooth="yes"/>
			<point x="161" y="347"/>
			<point x="184" y="389"/>
			<point x="198" y="458" type="curve" smooth="yes"/>
			<point x="255" y="747" type="line"/>
			<point x="233" y="755" type="line"/>
			<point x="102" y="716" type="line"/>
			<point x="97" y="687" type="line"/>
			<point x="186" y="680" type="line"/>
			<point x="159" y="700" type="line"/>
			<point x="112" y="450" type="line" smooth="yes"/>
			<point x="100" y="385"/>
			<point x="89" y="353"/>
			<point x="72" y="331" type="curve" smooth="yes"/>
			<point x="58" y="312"/>
			<point x="42" y="300"/>
			<point x="16" y="291" type="curve"/>
		</contour>
	</outline>
</glyph>
<glyph name="r.sups" format="2">
	<unicode hex="02B3"/>
	<advance width="319"/>
	<outline>
		<contour>
			<point x="217" y="563" type="line"/>
			<point x="249" y="630"/>
			<point x="274" y="671"/>
			<point x="309" y="704" type="curve"/>
			<point x="321" y="705" type="line"/>
			<point x="287" y="711" type="line"/>
			<point x="312" y="680"/>
			<point x="327" y="669"/>
			<point x="350" y="669" type="curve" smooth="yes"/>
			<point x="378" y="669"/>
			<point x="393" y="692"/>
			<point x="395" y="719" type="curve"/>
			<point x="388" y="741"/>
			<point x="369" y="754"/>
			<point x="341" y="754" type="curve" smooth="yes"/>
			<point x="294" y="754"/>
			<point x="254" y="698"/>
			<point x="224" y="619" type="curve"/>
			<point x="203" y="619" type="line"/>
		</contour>
		<contour>
			<point x="104" y="423" type="line"/>
			<point x="119" y="415" type="line"/>
			<point x="192" y="422" type="line"/>
			<point x="234" y="628" type="line"/>
			<point x="227" y="632" type="line"/>
			<point x="247" y="746" type="line"/>
			<point x="232" y="755" type="line"/>
			<point x="107" y="716" type="line"/>
			<point x="102" y="687" type="line"/>
			<point x="190" y="680" type="line"/>
			<point x="164" y="700" type="line"/>
		</contour>
	</outline>
</glyph>
<glyph name="w.sups" format="2">
	<unicode hex="02B7"/>
	<advance width="551"/>
	<outline>
		<contour>
			<point x="183" y="419" type="curve"/>
			<point x="247" y="420" type="line"/>
			<point x="284" y="476"/>
			<point x="319" y="539"/>
			<point x="353" y="609" type="curve"/>
			<point x="360" y="635" type="line"/>
			<point x="358" y="635" type="line"/>
			<point x="363" y="570"/>
			<point x="373" y="465"/>
			<point x="378" y="419" type="curve"/>
			<point x="433" y="420" type="line"/>
			<point x="494" y="487"/>
			<point x="554" y="567"/>
			<point x="583" y="620" type="curve" smooth="yes"/>
			<point x="608" y="664"/>
			<point x="615" y="691"/>
			<point x="615" y="713" type="curve" smooth="yes"/>
			<point x="615" y="731"/>
			<point x="613" y="740"/>
			<point x="608" y="748" type="curve"/>
			<point x="602" y="753"/>
			<point x="592" y="757"/>
			<point x="579" y="757" type="curve" smooth="yes"/>
			<point x="549" y="757"/>
			<point x="527" y="737"/>
			<point x="527" y="701" type="curve" smooth="yes"/>
			<point x="527" y="685"/>
			<point x="531" y="670"/>
			<point x="555" y="603" type="curve"/>
			<point x="564" y="668" type="line"/>
			<point x="559" y="657"/>
			<point x="554" y="647"/>
			<point x="549" y="637" type="curve" smooth="yes"/>
			<point x="518" y="582"/>
			<point x="495" y="544"/>
			<point x="461" y="499" type="curve"/>
			<point x="450" y="478" type="line"/>
			<point x="452" y="478" type="line"/>
			<point x="444" y="570"/>
			<point x="436" y="659"/>
			<point x="429" y="742" type="curve"/>
			<point x="373" y="742" type="line"/>
			<point x="340" y="663"/>
			<point x="304" y="586"/>
			<point x="261" y="507" type="curve"/>
			<point x="253" y="487" type="line"/>
			<point x="255" y="487" type="line"/>
			<point x="252" y="558"/>
			<point x="247" y="645"/>
			<point x="240" y="694" type="curve" smooth="yes"/>
			<point x="235" y="737"/>
			<point x="220" y="755"/>
			<point x="184" y="755" type="curve" smooth="yes"/>
			<point x="146" y="755"/>
			<point x="116" y="730"/>
			<point x="83" y="679" type="curve"/>
			<point x="102" y="660" type="line"/>
			<point x="118" y="680"/>
			<point x="128" y="689"/>
			<point x="139" y="689" type="curve" smooth="yes"/>
			<point x="148" y="689"/>
			<point x="154" y="685"/>
			<point x="157" y="664" type="curve" smooth="yes"/>
			<point x="167" y="606"/>
			<point x="175" y="500"/>
		</contour>
	</outline>
</glyph>
<glyph name="y.sups" format="2">
	<unicode hex="02B8"/>
	<advance width="373"/>
	<outline>
		<contour>
			<point x="14" y="318" type="curve"/>
			<point x="17" y="288"/>
			<point x="38" y="269"/>
			<point x="77" y="269" type="curve" smooth="yes"/>
			<point x="124" y="269"/>
			<point x="162" y="296"/>
			<point x="196" y="332" type="curve" smooth="yes"/>
			<point x="227" y="364"/>
			<point x="249" y="394"/>
			<point x="271" y="425" type="curve" smooth="yes"/>
			<point x="307" y="473"/>
			<point x="335" y="520"/>
			<point x="360" y="558" type="curve" smooth="yes"/>
			<point x="383" y="594"/>
			<point x="399" y="625"/>
			<point x="415" y="654" type="curve" smooth="yes"/>
			<point x="430" y="682"/>
			<point x="439" y="701"/>
			<point x="439" y="723" type="curve" smooth="yes"/>
			<point x="439" y="743"/>
			<point x="424" y="757"/>
			<point x="403" y="757" type="curve" smooth="yes"/>
			<point x="374" y="757"/>
			<point x="359" y="738"/>
			<point x="342" y="667" type="curve" smooth="yes"/>
			<point x="323" y="585"/>
			<point x="301" y="528"/>
			<point x="263" y="449" type="curve"/>
			<point x="249" y="431"/>
			<point x="212" y="390"/>
			<point x="194" y="372" type="curve" smooth="yes"/>
			<point x="167" y="346"/>
			<point x="137" y="319"/>
			<point x="106" y="299" type="curve"/>
			<point x="113" y="300" type="line"/>
			<point x="118" y="300" type="line"/>
			<point x="127" y="306" type="line"/>
			<point x="99" y="342"/>
			<point x="85" y="355"/>
			<point x="60" y="355" type="curve" smooth="yes"/>
			<point x="35" y="355"/>
			<point x="18" y="340"/>
		</contour>
		<contour>
			<point x="263" y="451" type="line"/>
			<point x="258" y="526"/>
			<point x="251" y="606"/>
			<point x="243" y="678" type="curve" smooth="yes"/>
			<point x="235" y="736"/>
			<point x="219" y="755"/>
			<point x="184" y="755" type="curve" smooth="yes"/>
			<point x="148" y="755"/>
			<point x="117" y="731"/>
			<point x="83" y="678" type="curve"/>
			<point x="102" y="660" type="line"/>
			<point x="118" y="680"/>
			<point x="128" y="689"/>
			<point x="139" y="689" type="curve" smooth="yes"/>
			<point x="149" y="689"/>
			<point x="155" y="683"/>
			<point x="162" y="638" type="curve" smooth="yes"/>
			<point x="177" y="559"/>
			<point x="191" y="462"/>
			<point x="201" y="362" type="curve"/>
			<point x="286" y="451" type="line"/>
		</contour>
	</outline>
</glyph>
<glyph name="ringhalfrightmod" format="2">
	<unicode hex="02BE"/>
	<advance width="211"/>
	<outline>
		<contour>
			<point x="89" y="516" type="line"/>
			<point x="198" y="518"/>
			<point x="245" y="574"/>
			<point x="245" y="646" type="curve" smooth="yes"/>
			<point x="245" y="707"/>
			<point x="200" y="750"/>
			<point x="130" y="753" type="curve"/>
			<point x="121" y="704" type="line"/>
			<point x="162" y="700"/>
			<point x="182" y="674"/>
			<point x="182" y="643" type="curve" smooth="yes"/>
			<point x="182" y="599"/>
			<point x="155" y="568"/>
			<point x="97" y="566" type="curve"/>
		</contour>
	</outline>
</glyph>
<glyph name="ringhalfleftmod" format="2">
	<unicode hex="02BF"/>
	<advance width="265"/>
	<outline>
		<contour>
			<point x="245" y="499" type="curve"/>
			<point x="254" y="548" type="line"/>
			<point x="214" y="552"/>
			<point x="193" y="577"/>
			<point x="193" y="609" type="curve" smooth="yes"/>
			<point x="193" y="652"/>
			<point x="220" y="684"/>
			<point x="277" y="686" type="curve"/>
			<point x="286" y="735" type="line"/>
			<point x="177" y="734"/>
			<point x="129" y="678"/>
			<point x="129" y="606" type="curve" smooth="yes"/>
			<point x="129" y="544"/>
			<point x="174" y="501"/>
		</contour>
	</outline>
</glyph>
<glyph name="verticallinemod" format="2">
	<unicode hex="02C8"/>
	<advance width="179"/>
	<outline>
		<contour>
			<point x="104" y="545" type="line"/>
			<point x="186" y="545" type="line"/>
			<point x="234" y="746" type="line"/>
			<point x="135" y="746" type="line"/>
		</contour>
	</outline>
</glyph>
<glyph name="l.sups" format="2">
	<unicode hex="02E1"/>
	<advance width="224"/>
	<outline>
		<contour>
			<point x="166" y="412" type="curve" smooth="yes"/>
			<point x="220" y="412"/>
			<point x="258" y="451"/>
			<point x="287" y="499" type="curve"/>
			<point x="265" y="514" type="line"/>
			<point x="242" y="484"/>
			<point x="227" y="471"/>
			<point x="214" y="471" type="curve" smooth="yes"/>
			<point x="198" y="471"/>
			<point x="196" y="483"/>
			<point x="204" y="520" type="curve" smooth="yes"/>
			<point x="283" y="892" type="line"/>
			<point x="264" y="898" type="line"/>
			<point x="130" y="866" type="line"/>
			<point x="125" y="837" type="line"/>
			<point x="214" y="828" type="line"/>
			<point x="187" y="848" type="line"/>
			<point x="121" y="532" type="line" smooth="yes"/>
			<point x="115" y="501"/>
			<point x="110" y="481"/>
			<point x="110" y="462" type="curve" smooth="yes"/>
			<point x="110" y="431"/>
			<point x="129" y="412"/>
		</contour>
	</outline>
</glyph>
<glyph name="s.sups" format="2">
	<unicode hex="02E2"/>
	<advance width="299"/>
	<outline>
		<contour>
			<point x="184" y="426" type="line"/>
			<point x="173" y="471" type="line" smooth="yes"/>
			<point x="166" y="500"/>
			<point x="151" y="514"/>
			<point x="127" y="514" type="curve" smooth="yes"/>
			<point x="107" y="514"/>
			<point x="95" y="502"/>
			<point x="90" y="481" type="curve"/>
			<point x="100" y="435"/>
			<point x="132" y="412"/>
			<point x="195" y="412" type="curve" smooth="yes"/>
			<point x="278" y="412"/>
			<point x="331" y="455"/>
			<point x="331" y="514" type="curve" smooth="yes"/>
			<point x="331" y="555"/>
			<point x="307" y="579"/>
			<point x="268" y="609" type="curve" smooth="yes"/>
			<point x="232" y="635"/>
			<point x="214" y="652"/>
			<point x="214" y="680" type="curve" smooth="yes"/>
			<point x="214" y="705"/>
			<point x="229" y="728"/>
			<point x="262" y="730" type="curve" smooth="yes"/>
			<point x="275" y="729"/>
			<point x="287" y="729"/>
			<point x="298" y="727" type="curve"/>
			<point x="264" y="739" type="line"/>
			<point x="277" y="700" type="line" smooth="yes"/>
			<point x="285" y="671"/>
			<point x="304" y="659"/>
			<point x="323" y="659" type="curve" smooth="yes"/>
			<point x="343" y="659"/>
			<point x="354" y="672"/>
			<point x="357" y="692" type="curve"/>
			<point x="348" y="730"/>
			<point x="316" y="755"/>
			<point x="256" y="755" type="curve" smooth="yes"/>
			<point x="181" y="755"/>
			<point x="134" y="710"/>
			<point x="134" y="650" type="curve" smooth="yes"/>
			<point x="134" y="607"/>
			<point x="164" y="580"/>
			<point x="201" y="552" type="curve" smooth="yes"/>
			<point x="234" y="527"/>
			<point x="249" y="511"/>
			<point x="249" y="486" type="curve" smooth="yes"/>
			<point x="249" y="459"/>
			<point x="228" y="440"/>
			<point x="194" y="438" type="curve" smooth="yes"/>
			<point x="178" y="439"/>
			<point x="163" y="439"/>
			<point x="146" y="441" type="curve"/>
		</contour>
	</outline>
</glyph>
<glyph name="x.sups" format="2">
	<unicode hex="02E3"/>
	<advance width="482"/>
	<outline>
		<contour>
			<point x="318" y="500" type="line" smooth="yes"/>
			<point x="318" y="442"/>
			<point x="343" y="408"/>
			<point x="404" y="408" type="curve" smooth="yes"/>
			<point x="452" y="408"/>
			<point x="490" y="439"/>
			<point x="524" y="492" type="curve"/>
			<point x="491" y="515" type="line"/>
			<point x="472" y="489"/>
			<point x="458" y="476"/>
			<point x="443" y="476" type="curve" smooth="yes"/>
			<point x="426" y="476"/>
			<point x="417" y="484"/>
			<point x="411" y="510" type="curve" smooth="yes"/>
			<point x="389" y="611" type="line"/>
			<point x="364" y="611" type="line"/>
			<point x="358" y="688" type="line" smooth="yes"/>
			<point x="355" y="742"/>
			<point x="330" y="766"/>
			<point x="279" y="766" type="curve" smooth="yes"/>
			<point x="233" y="766"/>
			<point x="202" y="734"/>
			<point x="165" y="684" type="curve"/>
			<point x="196" y="657" type="line"/>
			<point x="222" y="691"/>
			<point x="232" y="699"/>
			<point x="244" y="699" type="curve" smooth="yes"/>
			<point x="256" y="699"/>
			<point x="262" y="690"/>
			<point x="267" y="668" type="curve" smooth="yes"/>
			<point x="291" y="548" type="line"/>
			<point x="317" y="548" type="line"/>
		</contour>
		<contour>
			<point x="114" y="461" type="curve"/>
			<point x="119" y="433"/>
			<point x="140" y="408"/>
			<point x="188" y="408" type="curve" smooth="yes"/>
			<point x="240" y="408"/>
			<point x="257" y="426"/>
			<point x="271" y="449" type="curve" smooth="yes"/>
			<point x="286" y="473"/>
			<point x="302" y="537"/>
			<point x="310" y="602" type="curve"/>
			<point x="286" y="607" type="line"/>
			<point x="283" y="565"/>
			<point x="261" y="512"/>
			<point x="242" y="472" type="curve" smooth="yes"/>
			<point x="237" y="462"/>
			<point x="232" y="452"/>
			<point x="228" y="444" type="curve"/>
			<point x="200" y="444" type="line"/>
			<point x="208" y="428" type="line"/>
			<point x="208" y="456" type="line" smooth="yes"/>
			<point x="209" y="483"/>
			<point x="197" y="509"/>
			<point x="163" y="509" type="curve" smooth="yes"/>
			<point x="131" y="509"/>
			<point x="117" y="483"/>
		</contour>
		<contour>
			<point x="395" y="559" type="line"/>
			<point x="402" y="603"/>
			<point x="428" y="665"/>
			<point x="448" y="707" type="curve" smooth="yes"/>
			<point x="450" y="715"/>
			<point x="454" y="723"/>
			<point x="458" y="730" type="curve"/>
			<point x="486" y="730" type="line"/>
			<point x="477" y="745" type="line"/>
			<point x="477" y="717" type="line" smooth="yes"/>
			<point x="477" y="691"/>
			<point x="489" y="665"/>
			<point x="523" y="665" type="curve" smooth="yes"/>
			<point x="554" y="665"/>
			<point x="568" y="691"/>
			<point x="572" y="713" type="curve"/>
			<point x="566" y="741"/>
			<point x="545" y="766"/>
			<point x="496" y="766" type="curve" smooth="yes"/>
			<point x="446" y="766"/>
			<point x="428" y="748"/>
			<point x="415" y="725" type="curve" smooth="yes"/>
			<point x="400" y="701"/>
			<point x="384" y="640"/>
			<point x="372" y="564" type="curve"/>
		</contour>
	</outline>
</glyph>
<glyph name="gravecmb" format="2">
	<unicode hex="0300"/>
	<outline>
		<contour>
			<point x="78" y="562" type="line"/>
			<point x="61" y="615"/>
			<point x="45" y="663"/>
			<point x="27" y="716" type="curve" smooth="yes"/>
			<point x="12" y="761"/>
			<point x="-7" y="776"/>
			<point x="-37" y="776" type="curve" smooth="yes"/>
			<point x="-64" y="776"/>
			<point x="-87" y="757"/>
			<point x="-87" y="729" type="curve" smooth="yes"/>
			<point x="-87" y="705"/>
			<point x="-75" y="688"/>
			<point x="-53" y="662" type="curve" smooth="yes"/>
			<point x="-20" y="619"/>
			<point x="10" y="584"/>
			<point x="43" y="543" type="curve"/>
		</contour>
	</outline>
	<anchor name="_aboveLC" x="51" y="510"/>
	<anchor name="aboveLC" x="108" y="776"/>
</glyph>
<glyph name="circumflexcmb" format="2">
	<unicode hex="0302"/>
	<outline>
		<contour>
			<point x="194" y="554" type="line"/>
			<point x="228" y="580" type="line"/>
			<point x="125" y="757" type="line"/>
			<point x="74" y="757" type="line"/>
			<point x="-86" y="583" type="line"/>
			<point x="-60" y="553" type="line"/>
			<point x="123" y="698" type="line"/>
			<point x="57" y="698" type="line"/>
		</contour>
	</outline>
	<anchor name="_aboveLC" x="51" y="510"/>
	<anchor name="aboveLC" x="104" y="757"/>
</glyph>
<glyph name="tildecmb" format="2">
	<unicode hex="0303"/>
	<outline>
		<contour>
			<point x="-94" y="591" type="curve"/>
			<point x="-56" y="579" type="line"/>
			<point x="-35" y="625"/>
			<point x="-16" y="648"/>
			<point x="10" y="648" type="curve" smooth="yes"/>
			<point x="34" y="648"/>
			<point x="49" y="627"/>
			<point x="67" y="608" type="curve" smooth="yes"/>
			<point x="85" y="592"/>
			<point x="105" y="578"/>
			<point x="136" y="578" type="curve" smooth="yes"/>
			<point x="190" y="578"/>
			<point x="230" y="624"/>
			<point x="257" y="715" type="curve"/>
			<point x="219" y="728" type="line"/>
			<point x="198" y="681"/>
			<point x="179" y="658"/>
			<point x="153" y="658" type="curve" smooth="yes"/>
			<point x="130" y="658"/>
			<point x="115" y="678"/>
			<point x="95" y="698" type="curve" smooth="yes"/>
			<point x="79" y="715"/>
			<point x="60" y="729"/>
			<point x="29" y="729" type="curve" smooth="yes"/>
			<point x="-26" y="729"/>
			<point x="-67" y="683"/>
		</contour>
	</outline>
	<anchor name="_aboveLC" x="51" y="510"/>
	<anchor name="aboveLC" x="98" y="727"/>
</glyph>
<glyph name="macroncmb" format="2">
	<unicode hex="0304"/>
	<outline>
		<contour>
			<point x="-50" y="613" type="line"/>
			<point x="197" y="613" type="line"/>
			<point x="212" y="684" type="line"/>
			<point x="-35" y="684" type="line"/>
		</contour>
	</outline>
	<anchor name="_aboveLC" x="51" y="510"/>
	<anchor name="aboveLC" x="88" y="684"/>
</glyph>
<glyph name="brevecmb" format="2">
	<unicode hex="0306"/>
	<outline>
		<contour>
			<point x="65" y="575" type="curve" smooth="yes"/>
			<point x="169" y="575"/>
			<point x="221" y="656"/>
			<point x="242" y="727" type="curve"/>
			<point x="202" y="739" type="line"/>
			<point x="175" y="687"/>
			<point x="134" y="652"/>
			<point x="73" y="652" type="curve" smooth="yes"/>
			<point x="14" y="652"/>
			<point x="-17" y="690"/>
			<point x="-34" y="739" type="curve"/>
			<point x="-76" y="725" type="line"/>
			<point x="-72" y="645"/>
			<point x="-33" y="575"/>
		</contour>
	</outline>
	<anchor name="_aboveLC" x="51" y="510"/>
	<anchor name="aboveLC" x="100" y="739"/>
</glyph>
<glyph name="dotaccentcmb" format="2">
	<unicode hex="0307"/>
	<outline>
		<contour>
			<point x="81" y="609" type="curve" smooth="yes"/>
			<point x="121" y="609"/>
			<point x="154" y="644"/>
			<point x="154" y="685" type="curve" smooth="yes"/>
			<point x="154" y="722"/>
			<point x="129" y="747"/>
			<point x="92" y="747" type="curve" smooth="yes"/>
			<point x="52" y="747"/>
			<point x="19" y="712"/>
			<point x="19" y="671" type="curve" smooth="yes"/>
			<point x="19" y="633"/>
			<point x="45" y="609"/>
		</contour>
	</outline>
	<anchor name="_aboveLC" x="51" y="510"/>
	<anchor name="aboveLC" x="102" y="747"/>
</glyph>
<glyph name="ringcmb" format="2">
	<unicode hex="030A"/>
	<outline>
		<contour>
			<point x="75" y="557" type="curve" smooth="yes"/>
			<point x="139" y="557"/>
			<point x="198" y="603"/>
			<point x="198" y="679" type="curve" smooth="yes"/>
			<point x="198" y="738"/>
			<point x="153" y="774"/>
			<point x="94" y="774" type="curve" smooth="yes"/>
			<point x="30" y="774"/>
			<point x="-29" y="728"/>
			<point x="-29" y="654" type="curve" smooth="yes"/>
			<point x="-29" y="595"/>
			<point x="15" y="557"/>
		</contour>
		<contour>
			<point x="78" y="603" type="curve" smooth="yes"/>
			<point x="43" y="603"/>
			<point x="25" y="628"/>
			<point x="25" y="658" type="curve" smooth="yes"/>
			<point x="25" y="695"/>
			<point x="51" y="728"/>
			<point x="91" y="728" type="curve" smooth="yes"/>
			<point x="126" y="728"/>
			<point x="144" y="703"/>
			<point x="144" y="674" type="curve" smooth="yes"/>
			<point x="144" y="634"/>
			<point x="116" y="603"/>
		</contour>
	</outline>
	<anchor name="_aboveLC" x="51" y="510"/>
	<anchor name="aboveLC" x="108" y="774"/>
</glyph>
<glyph name="hungarumlautcmb" format="2">
	<unicode hex="030B"/>
	<outline>
		<contour>
			<point x="-51" y="585" type="line"/>
			<point x="-17" y="560" type="line"/>
			<point x="93" y="669" type="line" smooth="yes"/>
			<point x="122" y="697"/>
			<point x="133" y="717"/>
			<point x="133" y="738" type="curve" smooth="yes"/>
			<point x="133" y="761"/>
			<point x="116" y="776"/>
			<point x="92" y="776" type="curve" smooth="yes"/>
			<point x="69" y="776"/>
			<point x="50" y="761"/>
			<point x="26" y="718" type="curve" smooth="yes"/>
		</contour>
		<contour>
			<point x="108" y="585" type="line"/>
			<point x="142" y="560" type="line"/>
			<point x="252" y="669" type="line" smooth="yes"/>
			<point x="281" y="697"/>
			<point x="292" y="717"/>
			<point x="292" y="738" type="curve" smooth="yes"/>
			<point x="292" y="761"/>
			<point x="275" y="776"/>
			<point x="251" y="776" type="curve" smooth="yes"/>
			<point x="228" y="776"/>
			<point x="209" y="761"/>
			<point x="185" y="718" type="curve" smooth="yes"/>
		</contour>
	</outline>
	<anchor name="_aboveLC" x="51" y="510"/>
	<anchor name="aboveLC" x="108" y="776"/>
</glyph>
<glyph name="caroncmb" format="2">
	<unicode hex="030C"/>
	<outline>
		<contour>
			<point x="-21" y="766" type="line"/>
			<point x="-56" y="743" type="line"/>
			<point x="37" y="561" type="line"/>
			<point x="91" y="561" type="line"/>
			<point x="250" y="738" type="line"/>
			<point x="221" y="767" type="line"/>
			<point x="43" y="625" type="line"/>
			<point x="101" y="625" type="line"/>
		</contour>
	</outline>
	<anchor name="_aboveLC" x="51" y="510"/>
	<anchor name="aboveLC" x="106" y="767"/>
</glyph>
<glyph name="horncmb" format="2">
	<unicode hex="031B"/>
	<outline>
		<contour>
			<point x="47" y="490" type="line"/>
			<point x="130" y="497"/>
			<point x="209" y="574"/>
			<point x="209" y="674" type="curve" smooth="yes"/>
			<point x="209" y="687"/>
			<point x="207" y="699"/>
			<point x="202" y="713" type="curve"/>
			<point x="191" y="722"/>
			<point x="182" y="725"/>
			<point x="165" y="725" type="curve" smooth="yes"/>
			<point x="134" y="725"/>
			<point x="112" y="701"/>
			<point x="112" y="670" type="curve" smooth="yes"/>
			<point x="112" y="642"/>
			<point x="127" y="626"/>
			<point x="127" y="598" type="curve" smooth="yes"/>
			<point x="127" y="561"/>
			<point x="94" y="531"/>
			<point x="47" y="524" type="curve"/>
		</contour>
	</outline>
	<anchor name="_hornLC" x="47" y="490"/>
</glyph>
<glyph name="commabelowcmb" format="2">
	<unicode hex="0326"/>
	<outline>
		<contour>
			<point x="42" y="-120" type="curve" smooth="yes"/>
			<point x="42" y="-93"/>
			<point x="36" y="-73"/>
			<point x="28" y="-59" type="curve"/>
			<point x="22" y="-56"/>
			<point x="8" y="-52"/>
			<point x="-11" y="-52" type="curve" smooth="yes"/>
			<point x="-51" y="-52"/>
			<point x="-78" y="-77"/>
			<point x="-78" y="-113" type="curve" smooth="yes"/>
			<point x="-78" y="-147"/>
			<point x="-51" y="-171"/>
			<point x="-14" y="-187" type="curve"/>
			<point x="-14" y="-155" type="line"/>
			<point x="-38" y="-189"/>
			<point x="-70" y="-208"/>
			<point x="-121" y="-227" type="curve"/>
			<point x="-99" y="-269" type="line"/>
			<point x="-13" y="-245"/>
			<point x="42" y="-197"/>
		</contour>
	</outline>
	<anchor name="_belowLC" x="-5" y="-20"/>
	<anchor name="belowLC" x="-57" y="-269"/>
</glyph>
<glyph name="cedillacmb" format="2">
	<unicode hex="0327"/>
	<outline>
		<contour>
			<point x="-56" y="-87" type="line"/>
			<point x="-1" y="-96"/>
			<point x="19" y="-110"/>
			<point x="19" y="-139" type="curve" smooth="yes"/>
			<point x="19" y="-168"/>
			<point x="-3" y="-186"/>
			<point x="-38" y="-186" type="curve" smooth="yes"/>
			<point x="-63" y="-186"/>
			<point x="-82" y="-179"/>
			<point x="-94" y="-173" type="curve"/>
			<point x="-114" y="-217" type="line"/>
			<point x="-102" y="-223"/>
			<point x="-70" y="-233"/>
			<point x="-32" y="-233" type="curve" smooth="yes"/>
			<point x="51" y="-233"/>
			<point x="99" y="-194"/>
			<point x="99" y="-138" type="curve" smooth="yes"/>
			<point x="99" y="-84"/>
			<point x="53" y="-65"/>
			<point x="-19" y="-55" type="curve"/>
			<point x="-8" y="-84" type="line"/>
			<point x="28" y="0" type="line"/>
			<point x="-17" y="0" type="line"/>
		</contour>
	</outline>
	<anchor name="_baseLC" x="0" y="0"/>
</glyph>
<glyph name="verticallinebelowcmb" format="2">
	<unicode hex="0329"/>
	<outline>
		<contour>
			<point x="-156" y="-265" type="line"/>
			<point x="-60" y="-265" type="line"/>
			<point x="-31" y="-66" type="line"/>
			<point x="-109" y="-66" type="line"/>
		</contour>
	</outline>
	<anchor name="_belowLC" x="-61" y="-20"/>
	<anchor name="belowLC" x="-114" y="-265"/>
</glyph>
<glyph name="Gamma" format="2">
	<unicode hex="0393"/>
	<advance width="562"/>
	<outline>
		<contour>
			<point x="500" y="466" type="line"/>
			<point x="570" y="466" type="line"/>
			<point x="597" y="664" type="line"/>
			<point x="258" y="664" type="line"/>
			<point x="258" y="599" type="line"/>
			<point x="534" y="599" type="line"/>
			<point x="489" y="633" type="line"/>
		</contour>
		<contour>
			<point x="12" y="0" type="line"/>
			<point x="334" y="0" type="line"/>
			<point x="346" y="66" type="line"/>
			<point x="211" y="66" type="line"/>
			<point x="159" y="66" type="line"/>
			<point x="23" y="66" type="line"/>
		</contour>
		<contour>
			<point x="95" y="0" type="line"/>
			<point x="227" y="0" type="line"/>
			<point x="245" y="101"/>
			<point x="263" y="201"/>
			<point x="282" y="302" type="curve" smooth="yes"/>
			<point x="347" y="664" type="line"/>
			<point x="215" y="664" type="line"/>
			<point x="197" y="563"/>
			<point x="179" y="464"/>
			<point x="161" y="363" type="curve" smooth="yes"/>
		</contour>
		<contour>
			<point x="114" y="598" type="line"/>
			<point x="239" y="598" type="line"/>
			<point x="255" y="598" type="line"/>
			<point x="255" y="664" type="line"/>
			<point x="126" y="664" type="line"/>
		</contour>
	</outline>
</glyph>
<glyph name="Delta" format="2">
	<unicode hex="0394"/>
	<unicode hex="2206"/>
	<advance width="610"/>
	<outline>
		<contour>
			<point x="-9" y="0" type="line"/>
			<point x="533" y="0" type="line"/>
			<point x="547" y="73" type="line"/>
			<point x="429" y="664" type="line"/>
			<point x="335" y="664" type="line"/>
			<point x="6" y="73" type="line"/>
		</contour>
		<contour>
			<point x="59" y="57" type="line"/>
			<point x="309" y="521" type="line"/>
			<point x="333" y="581" type="line"/>
			<point x="328" y="581" type="line"/>
			<point x="427" y="54" type="line"/>
			<point x="449" y="82" type="line"/>
			<point x="42" y="82" type="line"/>
		</contour>
	</outline>
</glyph>
<glyph name="Theta" format="2">
	<unicode hex="0398"/>
	<advance width="678"/>
	<outline>
		<contour>
			<point x="221" y="241" type="line"/>
			<point x="269" y="241" type="line"/>
			<point x="303" y="323" type="line"/>
			<point x="305" y="343" type="line"/>
			<point x="303" y="426" type="line"/>
			<point x="256" y="426" type="line"/>
		</contour>
		<contour>
			<point x="406" y="241" type="line"/>
			<point x="453" y="241" type="line"/>
			<point x="488" y="426" type="line"/>
			<point x="440" y="426" type="line"/>
			<point x="407" y="345" type="line"/>
			<point x="404" y="326" type="line"/>
		</contour>
		<contour>
			<point x="298" y="-17" type="curve" smooth="yes"/>
			<point x="518" y="-17"/>
			<point x="663" y="184"/>
			<point x="663" y="408" type="curve" smooth="yes"/>
			<point x="663" y="580"/>
			<point x="562" y="680"/>
			<point x="411" y="680" type="curve" smooth="yes"/>
			<point x="192" y="680"/>
			<point x="47" y="478"/>
			<point x="47" y="256" type="curve" smooth="yes"/>
			<point x="47" y="79"/>
			<point x="150" y="-17"/>
		</contour>
		<contour>
			<point x="308" y="41" type="curve" smooth="yes"/>
			<point x="216" y="41"/>
			<point x="172" y="111"/>
			<point x="172" y="240" type="curve" smooth="yes"/>
			<point x="172" y="445"/>
			<point x="269" y="622"/>
			<point x="401" y="622" type="curve" smooth="yes"/>
			<point x="495" y="622"/>
			<point x="537" y="554"/>
			<point x="537" y="425" type="curve" smooth="yes"/>
			<point x="537" y="220"/>
			<point x="441" y="41"/>
		</contour>
		<contour>
			<point x="266" y="304" type="line"/>
			<point x="437" y="304" type="line"/>
			<point x="444" y="363" type="line"/>
			<point x="273" y="363" type="line"/>
		</contour>
	</outline>
</glyph>
<glyph name="Xi" format="2">
	<unicode hex="039E"/>
	<advance width="596"/>
	<outline>
		<contour>
			<point x="4" y="0" type="line"/>
			<point x="505" y="0" type="line"/>
			<point x="547" y="190" type="line"/>
			<point x="481" y="190" type="line"/>
			<point x="422" y="40" type="line"/>
			<point x="486" y="93" type="line"/>
			<point x="48" y="93" type="line"/>
			<point x="98" y="43" type="line"/>
			<point x="98" y="190" type="line"/>
			<point x="31" y="190" type="line"/>
		</contour>
		<contour>
			<point x="89" y="478" type="line"/>
			<point x="151" y="478" type="line"/>
			<point x="207" y="619" type="line"/>
			<point x="149" y="573" type="line"/>
			<point x="564" y="573" type="line"/>
			<point x="528" y="616" type="line"/>
			<point x="529" y="478" type="line"/>
			<point x="592" y="478" type="line"/>
			<point x="619" y="664" type="line"/>
			<point x="129" y="664" type="line"/>
		</contour>
		<contour>
			<point x="140" y="234" type="line"/>
			<point x="194" y="234" type="line"/>
			<point x="227" y="328" type="line"/>
			<point x="230" y="349" type="line"/>
			<point x="232" y="439" type="line"/>
			<point x="179" y="439" type="line"/>
		</contour>
		<contour>
			<point x="401" y="234" type="line"/>
			<point x="455" y="234" type="line"/>
			<point x="494" y="439" type="line"/>
			<point x="440" y="439" type="line"/>
			<point x="407" y="346" type="line"/>
			<point x="404" y="326" type="line"/>
		</contour>
		<contour>
			<point x="200" y="303" type="line"/>
			<point x="431" y="303" type="line"/>
			<point x="440" y="372" type="line"/>
			<point x="209" y="372" type="line"/>
		</contour>
	</outline>
</glyph>
<glyph name="Pi" format="2">
	<unicode hex="03A0"/>
	<advance width="766"/>
	<outline>
		<contour>
			<point x="-4" y="0" type="line"/>
			<point x="289" y="0" type="line"/>
			<point x="299" y="53" type="line"/>
			<point x="171" y="63" type="line"/>
			<point x="138" y="63" type="line"/>
			<point x="6" y="53" type="line"/>
		</contour>
		<contour>
			<point x="78" y="0" type="line"/>
			<point x="203" y="0" type="line"/>
			<point x="220" y="102"/>
			<point x="238" y="205"/>
			<point x="257" y="308" type="curve" smooth="yes"/>
			<point x="323" y="664" type="line"/>
			<point x="198" y="664" type="line"/>
			<point x="181" y="561"/>
			<point x="163" y="459"/>
			<point x="144" y="357" type="curve" smooth="yes"/>
		</contour>
		<contour>
			<point x="387" y="0" type="line"/>
			<point x="680" y="0" type="line"/>
			<point x="690" y="53" type="line"/>
			<point x="562" y="63" type="line"/>
			<point x="528" y="63" type="line"/>
			<point x="397" y="53" type="line"/>
		</contour>
		<contour>
			<point x="468" y="0" type="line"/>
			<point x="593" y="0" type="line"/>
			<point x="610" y="102"/>
			<point x="628" y="205"/>
			<point x="647" y="308" type="curve" smooth="yes"/>
			<point x="714" y="664" type="line"/>
			<point x="589" y="664" type="line"/>
			<point x="572" y="561"/>
			<point x="554" y="459"/>
			<point x="535" y="357" type="curve" smooth="yes"/>
		</contour>
		<contour>
			<point x="102" y="610" type="line"/>
			<point x="237" y="600" type="line"/>
			<point x="246" y="664" type="line"/>
			<point x="112" y="664" type="line"/>
		</contour>
		<contour>
			<point x="249" y="608" type="line"/>
			<point x="639" y="608" type="line"/>
			<point x="646" y="664" type="line"/>
			<point x="256" y="664" type="line"/>
		</contour>
		<contour>
			<point x="646" y="600" type="line"/>
			<point x="785" y="610" type="line"/>
			<point x="795" y="664" type="line"/>
			<point x="654" y="664" type="line"/>
		</contour>
	</outline>
</glyph>
<glyph name="Sigma" format="2">
	<unicode hex="03A3"/>
	<advance width="576"/>
	<outline>
		<contour>
			<point x="8" y="0" type="line"/>
			<point x="499" y="0" type="line"/>
			<point x="544" y="230" type="line"/>
			<point x="475" y="230" type="line"/>
			<point x="405" y="40" type="line"/>
			<point x="473" y="98" type="line"/>
			<point x="110" y="98" type="line"/>
			<point x="111" y="125" type="line"/>
			<point x="91" y="78" type="line"/>
			<point x="238" y="214" type="line"/>
			<point x="381" y="355" type="line"/>
			<point x="231" y="636" type="line"/>
			<point x="242" y="589" type="line"/>
			<point x="243" y="612" type="line"/>
			<point x="394" y="606" type="line"/>
			<point x="542" y="606" type="line"/>
			<point x="492" y="653" type="line"/>
			<point x="492" y="476" type="line"/>
			<point x="561" y="476" type="line"/>
			<point x="591" y="664" type="line"/>
			<point x="116" y="664" type="line"/>
			<point x="108" y="616" type="line"/>
			<point x="287" y="293" type="line"/>
			<point x="296" y="351" type="line"/>
			<point x="22" y="77" type="line"/>
		</contour>
	</outline>
</glyph>
<glyph name="Psi" format="2">
	<unicode hex="03A8"/>
	<advance width="788"/>
	<outline>
		<contour>
			<point x="381" y="224" type="curve"/>
			<point x="387" y="274" type="line"/>
			<point x="279" y="275"/>
			<point x="249" y="308"/>
			<point x="245" y="408" type="curve" smooth="yes"/>
			<point x="240" y="525" type="line" smooth="yes"/>
			<point x="236" y="624"/>
			<point x="214" y="664"/>
			<point x="114" y="664" type="curve" smooth="yes"/>
			<point x="75" y="664" type="line"/>
			<point x="65" y="612" type="line"/>
			<point x="86" y="610" type="line" smooth="yes"/>
			<point x="116" y="606"/>
			<point x="124" y="589"/>
			<point x="127" y="541" type="curve" smooth="yes"/>
			<point x="134" y="411" type="line" smooth="yes"/>
			<point x="141" y="284"/>
			<point x="213" y="224"/>
		</contour>
		<contour>
			<point x="407" y="224" type="line"/>
			<point x="595" y="224"/>
			<point x="685" y="285"/>
			<point x="737" y="438" type="curve" smooth="yes"/>
			<point x="774" y="549" type="line" smooth="yes"/>
			<point x="789" y="592"/>
			<point x="802" y="607"/>
			<point x="828" y="610" type="curve" smooth="yes"/>
			<point x="846" y="612" type="line"/>
			<point x="856" y="664" type="line"/>
			<point x="816" y="664" type="line" smooth="yes"/>
			<point x="718" y="664"/>
			<point x="678" y="631"/>
			<point x="651" y="538" type="curve" smooth="yes"/>
			<point x="620" y="433" type="line" smooth="yes"/>
			<point x="585" y="314"/>
			<point x="539" y="274"/>
			<point x="413" y="274" type="curve"/>
		</contour>
		<contour>
			<point x="205" y="0" type="line"/>
			<point x="496" y="0" type="line"/>
			<point x="506" y="53" type="line"/>
			<point x="378" y="63" type="line"/>
			<point x="347" y="63" type="line"/>
			<point x="215" y="53" type="line"/>
		</contour>
		<contour>
			<point x="287" y="0" type="line"/>
			<point x="410" y="0" type="line"/>
			<point x="425" y="92"/>
			<point x="443" y="190"/>
			<point x="464" y="308" type="curve" smooth="yes"/>
			<point x="530" y="664" type="line"/>
			<point x="406" y="664" type="line"/>
			<point x="390" y="565"/>
			<point x="373" y="468"/>
			<point x="353" y="357" type="curve" smooth="yes"/>
		</contour>
		<contour>
			<point x="315" y="610" type="line"/>
			<point x="441" y="600" type="line"/>
			<point x="473" y="600" type="line"/>
			<point x="596" y="610" type="line"/>
			<point x="606" y="664" type="line"/>
			<point x="325" y="664" type="line"/>
		</contour>
	</outline>
</glyph>
<glyph name="Omega" format="2">
	<unicode hex="03A9"/>
	<unicode hex="2126"/>
	<advance width="713"/>
	<outline>
		<contour>
			<point x="28" y="0" type="line"/>
			<point x="281" y="0" type="line"/>
			<point x="301" y="139" type="line"/>
			<point x="241" y="170"/>
			<point x="206" y="235"/>
			<point x="206" y="333" type="curve" smooth="yes"/>
			<point x="206" y="505"/>
			<point x="287" y="623"/>
			<point x="408" y="623" type="curve" smooth="yes"/>
			<point x="494" y="623"/>
			<point x="547" y="556"/>
			<point x="547" y="442" type="curve" smooth="yes"/>
			<point x="547" y="297"/>
			<point x="483" y="176"/>
			<point x="384" y="138" type="curve"/>
			<point x="368" y="0" type="line"/>
			<point x="625" y="0" type="line"/>
			<point x="668" y="175" type="line"/>
			<point x="605" y="175" type="line"/>
			<point x="539" y="22" type="line"/>
			<point x="594" y="84" type="line"/>
			<point x="397" y="84" type="line"/>
			<point x="429" y="31" type="line"/>
			<point x="439" y="107" type="line"/>
			<point x="575" y="156"/>
			<point x="672" y="279"/>
			<point x="672" y="433" type="curve" smooth="yes"/>
			<point x="672" y="581"/>
			<point x="565" y="680"/>
			<point x="407" y="680" type="curve" smooth="yes"/>
			<point x="219" y="680"/>
			<point x="82" y="540"/>
			<point x="82" y="349" type="curve" smooth="yes"/>
			<point x="82" y="230"/>
			<point x="146" y="148"/>
			<point x="239" y="108" type="curve"/>
			<point x="227" y="34" type="line"/>
			<point x="260" y="84" type="line"/>
			<point x="74" y="84" type="line"/>
			<point x="115" y="28" type="line"/>
			<point x="88" y="175" type="line"/>
			<point x="28" y="175" type="line"/>
		</contour>
	</outline>
</glyph>
<glyph name="alpha" format="2">
	<unicode hex="03B1"/>
	<advance width="607"/>
	<outline>
		<contour>
			<point x="148" y="-14" type="curve" smooth="yes"/>
			<point x="225" y="-14"/>
			<point x="290" y="47"/>
			<point x="364" y="178" type="curve"/>
			<point x="381" y="178" type="line"/>
			<point x="366" y="232" type="line"/>
			<point x="293" y="124"/>
			<point x="242" y="71"/>
			<point x="198" y="71" type="curve" smooth="yes"/>
			<point x="169" y="71"/>
			<point x="147" y="98"/>
			<point x="147" y="164" type="curve" smooth="yes"/>
			<point x="147" y="280"/>
			<point x="213" y="444"/>
			<point x="282" y="444" type="curve" smooth="yes"/>
			<point x="311" y="444"/>
			<point x="326" y="421"/>
			<point x="332" y="353" type="curve" smooth="yes"/>
			<point x="354" y="97" type="line" smooth="yes"/>
			<point x="360" y="15"/>
			<point x="389" y="-14"/>
			<point x="441" y="-14" type="curve" smooth="yes"/>
			<point x="491" y="-14"/>
			<point x="535" y="15"/>
			<point x="576" y="65" type="curve"/>
			<point x="552" y="97" type="line"/>
			<point x="530" y="78"/>
			<point x="514" y="67"/>
			<point x="497" y="67" type="curve" smooth="yes"/>
			<point x="473" y="67"/>
			<point x="464" y="83"/>
			<point x="457" y="139" type="curve" smooth="yes"/>
			<point x="440" y="270" type="line"/>
			<point x="433" y="285" type="line"/>
			<point x="424" y="368" type="line" smooth="yes"/>
			<point x="414" y="463"/>
			<point x="377" y="503"/>
			<point x="298" y="503" type="curve" smooth="yes"/>
			<point x="151" y="503"/>
			<point x="30" y="310"/>
			<point x="30" y="138" type="curve" smooth="yes"/>
			<point x="30" y="41"/>
			<point x="76" y="-14"/>
		</contour>
		<contour>
			<point x="429" y="221" type="line"/>
			<point x="616" y="445" type="line"/>
			<point x="616" y="468" type="line"/>
			<point x="524" y="502" type="line"/>
			<point x="415" y="267" type="line"/>
		</contour>
	</outline>
	<anchor name="aboveLC" x="343" y="510"/>
	<anchor name="belowLC" x="283" y="-20"/>
</glyph>
<glyph name="eta" format="2">
	<unicode hex="03B7"/>
	<advance width="563"/>
	<outline>
		<contour>
			<point x="51" y="2" type="curve"/>
			<point x="68" y="-10" type="line"/>
			<point x="176" y="3" type="line"/>
			<point x="243" y="344" type="line"/>
			<point x="262" y="453"/>
			<point x="240" y="504"/>
			<point x="170" y="504" type="curve" smooth="yes"/>
			<point x="123" y="504"/>
			<point x="86" y="480"/>
			<point x="35" y="430" type="curve"/>
			<point x="53" y="396" type="line"/>
			<point x="76" y="409"/>
			<point x="91" y="416"/>
			<point x="110" y="416" type="curve" smooth="yes"/>
			<point x="139" y="416"/>
			<point x="140" y="384"/>
			<point x="130" y="333" type="curve" smooth="yes"/>
			<point x="112" y="241"/>
			<point x="94" y="167"/>
		</contour>
		<contour>
			<point x="290" y="-179" type="line"/>
			<point x="308" y="-192" type="line"/>
			<point x="419" y="-172" type="line"/>
			<point x="479" y="120" type="line" smooth="yes"/>
			<point x="519" y="320"/>
			<point x="525" y="359"/>
			<point x="525" y="407" type="curve" smooth="yes"/>
			<point x="525" y="467"/>
			<point x="495" y="504"/>
			<point x="433" y="504" type="curve" smooth="yes"/>
			<point x="368" y="504"/>
			<point x="303" y="452"/>
			<point x="241" y="363" type="curve"/>
			<point x="220" y="363" type="line"/>
			<point x="227" y="313" type="line"/>
			<point x="283" y="378"/>
			<point x="328" y="410"/>
			<point x="370" y="410" type="curve" smooth="yes"/>
			<point x="399" y="410"/>
			<point x="415" y="394"/>
			<point x="415" y="365" type="curve" smooth="yes"/>
			<point x="415" y="326"/>
			<point x="404" y="275"/>
			<point x="345" y="41" type="curve" smooth="yes"/>
		</contour>
	</outline>
	<anchor name="aboveLC" x="320" y="510"/>
	<anchor name="belowLC" x="113" y="-20"/>
</glyph>
<glyph name="theta" format="2">
	<unicode hex="03B8"/>
	<advance width="583"/>
	<outline>
		<contour>
			<point x="250" y="-16" type="curve" smooth="yes"/>
			<point x="453" y="-16"/>
			<point x="567" y="274"/>
			<point x="567" y="500" type="curve" smooth="yes"/>
			<point x="567" y="663"/>
			<point x="492" y="731"/>
			<point x="376" y="731" type="curve" smooth="yes"/>
			<point x="174" y="731"/>
			<point x="61" y="448"/>
			<point x="61" y="225" type="curve" smooth="yes"/>
			<point x="61" y="62"/>
			<point x="134" y="-16"/>
		</contour>
		<contour>
			<point x="258" y="46" type="curve" smooth="yes"/>
			<point x="202" y="46"/>
			<point x="183" y="91"/>
			<point x="183" y="204" type="curve" smooth="yes"/>
			<point x="183" y="391"/>
			<point x="258" y="670"/>
			<point x="369" y="670" type="curve" smooth="yes"/>
			<point x="424" y="670"/>
			<point x="446" y="634"/>
			<point x="446" y="521" type="curve" smooth="yes"/>
			<point x="446" y="335"/>
			<point x="369" y="46"/>
		</contour>
		<contour>
			<point x="165" y="334" type="line"/>
			<point x="462" y="334" type="line"/>
			<point x="462" y="395" type="line"/>
			<point x="165" y="395" type="line"/>
		</contour>
	</outline>
</glyph>
<glyph name="iota" format="2">
	<unicode hex="03B9"/>
	<advance width="304"/>
	<outline>
		<contour>
			<point x="146" y="-14" type="curve" smooth="yes"/>
			<point x="195" y="-14"/>
			<point x="236" y="15"/>
			<point x="276" y="67" type="curve"/>
			<point x="252" y="98" type="line"/>
			<point x="232" y="79"/>
			<point x="217" y="67"/>
			<point x="200" y="67" type="curve" smooth="yes"/>
			<point x="180" y="67"/>
			<point x="171" y="79"/>
			<point x="171" y="104" type="curve" smooth="yes"/>
			<point x="171" y="140"/>
			<point x="186" y="202"/>
			<point x="227" y="363" type="curve" smooth="yes"/>
			<point x="260" y="491" type="line"/>
			<point x="242" y="504" type="line"/>
			<point x="129" y="483" type="line"/>
			<point x="86" y="260" type="line" smooth="yes"/>
			<point x="66" y="155"/>
			<point x="58" y="108"/>
			<point x="58" y="80" type="curve" smooth="yes"/>
			<point x="58" y="18"/>
			<point x="92" y="-14"/>
		</contour>
	</outline>
	<anchor name="aboveLC" x="203" y="510"/>
</glyph>
<glyph name="kappa" format="2">
	<unicode hex="03BA"/>
	<advance width="548"/>
	<outline>
		<contour>
			<point x="51" y="2" type="curve"/>
			<point x="68" y="-10" type="line"/>
			<point x="177" y="3" type="line"/>
			<point x="243" y="344" type="line" smooth="yes"/>
			<point x="264" y="453"/>
			<point x="240" y="504"/>
			<point x="170" y="504" type="curve" smooth="yes"/>
			<point x="123" y="504"/>
			<point x="86" y="480"/>
			<point x="35" y="430" type="curve"/>
			<point x="53" y="396" type="line"/>
			<point x="76" y="409"/>
			<point x="91" y="416"/>
			<point x="110" y="416" type="curve" smooth="yes"/>
			<point x="139" y="416"/>
			<point x="140" y="384"/>
			<point x="130" y="333" type="curve" smooth="yes"/>
			<point x="112" y="241"/>
			<point x="94" y="167"/>
		</contour>
		<contour>
			<point x="407" y="-14" type="curve" smooth="yes"/>
			<point x="455" y="-14"/>
			<point x="498" y="17"/>
			<point x="534" y="63" type="curve"/>
			<point x="510" y="95" type="line"/>
			<point x="492" y="78"/>
			<point x="475" y="67"/>
			<point x="458" y="67" type="curve" smooth="yes"/>
			<point x="438" y="67"/>
			<point x="425" y="77"/>
			<point x="412" y="115" type="curve" smooth="yes"/>
			<point x="397" y="160" type="line" smooth="yes"/>
			<point x="377" y="216"/>
			<point x="340" y="244"/>
			<point x="270" y="252" type="curve" smooth="yes"/>
			<point x="228" y="256" type="line"/>
			<point x="223" y="251" type="line"/>
			<point x="456" y="355" type="line" smooth="yes"/>
			<point x="525" y="384"/>
			<point x="550" y="406"/>
			<point x="550" y="443" type="curve" smooth="yes"/>
			<point x="550" y="473"/>
			<point x="526" y="495"/>
			<point x="496" y="500" type="curve"/>
			<point x="260" y="302" type="line"/>
			<point x="217" y="261" type="line"/>
			<point x="203" y="261" type="line"/>
			<point x="203" y="236" type="line"/>
			<point x="224" y="232" type="line" smooth="yes"/>
			<point x="257" y="224"/>
			<point x="274" y="206"/>
			<point x="290" y="146" type="curve" smooth="yes"/>
			<point x="308" y="76" type="line" smooth="yes"/>
			<point x="325" y="12"/>
			<point x="356" y="-14"/>
		</contour>
	</outline>
</glyph>
<glyph name="lambda" format="2">
	<unicode hex="03BB"/>
	<advance width="551"/>
	<outline>
		<contour>
			<point x="-16" y="0" type="line"/>
			<point x="99" y="-16" type="line"/>
			<point x="172" y="121"/>
			<point x="244" y="244"/>
			<point x="319" y="375" type="curve"/>
			<point x="337" y="375" type="line"/>
			<point x="319" y="534" type="line"/>
			<point x="204" y="363"/>
			<point x="90" y="193"/>
			<point x="-22" y="14" type="curve"/>
		</contour>
		<contour>
			<point x="430" y="-14" type="curve" smooth="yes"/>
			<point x="475" y="-14"/>
			<point x="516" y="20"/>
			<point x="549" y="74" type="curve"/>
			<point x="531" y="112" type="line"/>
			<point x="510" y="99"/>
			<point x="491" y="92"/>
			<point x="473" y="92" type="curve" smooth="yes"/>
			<point x="436" y="92"/>
			<point x="414" y="109"/>
			<point x="404" y="180" type="curve" smooth="yes"/>
			<point x="355" y="548" type="line" smooth="yes"/>
			<point x="337" y="686"/>
			<point x="295" y="731"/>
			<point x="222" y="731" type="curve" smooth="yes"/>
			<point x="165" y="731"/>
			<point x="117" y="707"/>
			<point x="68" y="656" type="curve"/>
			<point x="88" y="601" type="line"/>
			<point x="126" y="618"/>
			<point x="165" y="627"/>
			<point x="204" y="627" type="curve" smooth="yes"/>
			<point x="258" y="627"/>
			<point x="298" y="603"/>
			<point x="306" y="525" type="curve" smooth="yes"/>
			<point x="313" y="445" type="line"/>
			<point x="318" y="433" type="line"/>
			<point x="347" y="102" type="line" smooth="yes"/>
			<point x="354" y="25"/>
			<point x="378" y="-14"/>
		</contour>
	</outline>
</glyph>
<glyph name="nu" format="2">
	<unicode hex="03BD"/>
	<advance width="563"/>
	<outline>
		<contour>
			<point x="168" y="0" type="curve"/>
			<point x="188" y="-13" type="line"/>
			<point x="283" y="-3" type="line"/>
			<point x="366" y="91"/>
			<point x="456" y="220"/>
			<point x="493" y="292" type="curve" smooth="yes"/>
			<point x="527" y="359"/>
			<point x="547" y="417"/>
			<point x="547" y="470" type="curve" smooth="yes"/>
			<point x="546" y="491"/>
			<point x="543" y="505"/>
			<point x="541" y="515" type="curve"/>
			<point x="531" y="520"/>
			<point x="515" y="524"/>
			<point x="492" y="524" type="curve" smooth="yes"/>
			<point x="443" y="524"/>
			<point x="413" y="493"/>
			<point x="414" y="443" type="curve" smooth="yes"/>
			<point x="414" y="407"/>
			<point x="428" y="379"/>
			<point x="445" y="353" type="curve" smooth="yes"/>
			<point x="464" y="323" type="line"/>
			<point x="467" y="401" type="line"/>
			<point x="460" y="375"/>
			<point x="452" y="346"/>
			<point x="438" y="317" type="curve" smooth="yes"/>
			<point x="403" y="235"/>
			<point x="353" y="155"/>
			<point x="297" y="79" type="curve"/>
			<point x="276" y="79" type="line"/>
			<point x="275" y="211"/>
			<point x="267" y="341"/>
			<point x="262" y="417" type="curve" smooth="yes"/>
			<point x="258" y="495"/>
			<point x="223" y="524"/>
			<point x="161" y="524" type="curve" smooth="yes"/>
			<point x="105" y="524"/>
			<point x="60" y="491"/>
			<point x="21" y="448" type="curve"/>
			<point x="45" y="411" type="line"/>
			<point x="64" y="425"/>
			<point x="86" y="433"/>
			<point x="102" y="433" type="curve" smooth="yes"/>
			<point x="125" y="433"/>
			<point x="135" y="419"/>
			<point x="139" y="380" type="curve" smooth="yes"/>
			<point x="147" y="298"/>
			<point x="161" y="143"/>
		</contour>
	</outline>
</glyph>
<glyph name="xi" format="2">
	<unicode hex="03BE"/>
	<advance width="439"/>
	<outline>
		<contour>
			<point x="285" y="-210" type="line"/>
			<point x="337" y="-160"/>
			<point x="378" y="-105"/>
			<point x="378" y="-43" type="curve" smooth="yes"/>
			<point x="378" y="26"/>
			<point x="346" y="51"/>
			<point x="255" y="92" type="curve" smooth="yes"/>
			<point x="175" y="129"/>
			<point x="157" y="151"/>
			<point x="157" y="206" type="curve" smooth="yes"/>
			<point x="157" y="269"/>
			<point x="206" y="324"/>
			<point x="315" y="324" type="curve" smooth="yes"/>
			<point x="407" y="324" type="line"/>
			<point x="424" y="420" type="line"/>
			<point x="405" y="419"/>
			<point x="386" y="419"/>
			<point x="362" y="419" type="curve" smooth="yes"/>
			<point x="278" y="419"/>
			<point x="236" y="456"/>
			<point x="236" y="513" type="curve" smooth="yes"/>
			<point x="236" y="583"/>
			<point x="291" y="631"/>
			<point x="482" y="642" type="curve"/>
			<point x="493" y="723" type="line"/>
			<point x="124" y="735" type="line"/>
			<point x="107" y="639" type="line"/>
			<point x="330" y="649" type="line"/>
			<point x="330" y="634" type="line"/>
			<point x="203" y="615"/>
			<point x="122" y="583"/>
			<point x="122" y="487" type="curve" smooth="yes"/>
			<point x="122" y="412"/>
			<point x="184" y="375"/>
			<point x="279" y="367" type="curve"/>
			<point x="279" y="352" type="line"/>
			<point x="131" y="344"/>
			<point x="42" y="287"/>
			<point x="42" y="175" type="curve" smooth="yes"/>
			<point x="42" y="79"/>
			<point x="91" y="43"/>
			<point x="184" y="3" type="curve" smooth="yes"/>
			<point x="253" y="-28"/>
			<point x="278" y="-58"/>
			<point x="278" y="-92" type="curve" smooth="yes"/>
			<point x="278" y="-124"/>
			<point x="262" y="-147"/>
			<point x="241" y="-178" type="curve"/>
		</contour>
	</outline>
</glyph>
<glyph name="omicron" format="2">
	<unicode hex="03BF"/>
	<advance width="531"/>
	<outline>
		<contour>
			<point x="223" y="-14" type="curve" smooth="yes"/>
			<point x="381" y="-14"/>
			<point x="501" y="142"/>
			<point x="501" y="315" type="curve" smooth="yes"/>
			<point x="501" y="439"/>
			<point x="427" y="504"/>
			<point x="318" y="504" type="curve" smooth="yes"/>
			<point x="160" y="504"/>
			<point x="38" y="350"/>
			<point x="38" y="175" type="curve" smooth="yes"/>
			<point x="38" y="51"/>
			<point x="115" y="-14"/>
		</contour>
		<contour>
			<point x="233" y="37" type="curve" smooth="yes"/>
			<point x="187" y="37"/>
			<point x="157" y="72"/>
			<point x="157" y="167" type="curve" smooth="yes"/>
			<point x="157" y="310"/>
			<point x="220" y="453"/>
			<point x="308" y="453" type="curve" smooth="yes"/>
			<point x="354" y="453"/>
			<point x="382" y="418"/>
			<point x="382" y="324" type="curve" smooth="yes"/>
			<point x="382" y="184"/>
			<point x="322" y="37"/>
		</contour>
	</outline>
	<anchor name="aboveLC" x="321" y="510"/>
</glyph>
<glyph name="pi" format="2">
	<unicode hex="03C0"/>
	<advance width="638"/>
	<outline>
		<contour>
			<point x="75" y="-14" type="curve" smooth="yes"/>
			<point x="136" y="-14"/>
			<point x="182" y="30"/>
			<point x="206" y="128" type="curve" smooth="yes"/>
			<point x="228" y="218"/>
			<point x="248" y="303"/>
			<point x="278" y="442" type="curve"/>
			<point x="227" y="443" type="line"/>
			<point x="199" y="320"/>
			<point x="166" y="199"/>
			<point x="130" y="77" type="curve"/>
			<point x="168" y="83" type="line"/>
			<point x="174" y="118" type="line"/>
			<point x="128" y="114"/>
			<point x="81" y="108"/>
			<point x="40" y="101" type="curve"/>
			<point x="24" y="87"/>
			<point x="11" y="68"/>
			<point x="11" y="44" type="curve" smooth="yes"/>
			<point x="11" y="8"/>
			<point x="34" y="-14"/>
		</contour>
		<contour>
			<point x="60" y="378" type="line"/>
			<point x="240" y="401" type="line"/>
			<point x="461" y="401" type="line"/>
			<point x="631" y="392" type="line"/>
			<point x="647" y="493" type="line"/>
			<point x="268" y="493" type="line" smooth="yes"/>
			<point x="163" y="493"/>
			<point x="115" y="472"/>
			<point x="58" y="428" type="curve"/>
		</contour>
		<contour>
			<point x="431" y="-14" type="curve" smooth="yes"/>
			<point x="484" y="-14"/>
			<point x="526" y="13"/>
			<point x="571" y="70" type="curve"/>
			<point x="546" y="100" type="line"/>
			<point x="522" y="78"/>
			<point x="506" y="67"/>
			<point x="486" y="67" type="curve" smooth="yes"/>
			<point x="467" y="67"/>
			<point x="456" y="79"/>
			<point x="456" y="108" type="curve" smooth="yes"/>
			<point x="456" y="143"/>
			<point x="461" y="178"/>
			<point x="508" y="441" type="curve"/>
			<point x="425" y="443" type="line"/>
			<point x="354" y="185"/>
			<point x="340" y="114"/>
			<point x="340" y="74" type="curve" smooth="yes"/>
			<point x="340" y="17"/>
			<point x="374" y="-14"/>
		</contour>
	</outline>
</glyph>
<glyph name="rho" format="2">
	<unicode hex="03C1"/>
	<advance width="549"/>
	<outline>
		<contour>
			<point x="1" y="-191" type="line"/>
			<point x="110" y="-175" type="line"/>
			<point x="144" y="73" type="line"/>
			<point x="157" y="77" type="line"/>
			<point x="204" y="306" type="line" smooth="yes"/>
			<point x="224" y="407"/>
			<point x="265" y="453"/>
			<point x="318" y="453" type="curve" smooth="yes"/>
			<point x="368" y="453"/>
			<point x="397" y="408"/>
			<point x="397" y="316" type="curve" smooth="yes"/>
			<point x="397" y="163"/>
			<point x="334" y="52"/>
			<point x="247" y="52" type="curve" smooth="yes"/>
			<point x="203" y="52"/>
			<point x="168" y="76"/>
			<point x="145" y="114" type="curve"/>
			<point x="129" y="97" type="line"/>
			<point x="147" y="26"/>
			<point x="199" y="-13"/>
			<point x="265" y="-13" type="curve" smooth="yes"/>
			<point x="393" y="-13"/>
			<point x="516" y="125"/>
			<point x="516" y="298" type="curve" smooth="yes"/>
			<point x="516" y="437"/>
			<point x="441" y="504"/>
			<point x="330" y="504" type="curve" smooth="yes"/>
			<point x="205" y="504"/>
			<point x="118" y="421"/>
			<point x="84" y="273" type="curve" smooth="yes"/>
			<point x="-19" y="-179" type="line"/>
		</contour>
	</outline>
	<anchor name="aboveLC" x="328" y="510"/>
</glyph>
<glyph name="sigma.end" format="2">
	<unicode hex="03C2"/>
	<advance width="443"/>
	<outline>
		<contour>
			<point x="234" y="-180" type="curve"/>
			<point x="269" y="-206" type="line"/>
			<point x="335" y="-145"/>
			<point x="367" y="-94"/>
			<point x="367" y="-40" type="curve" smooth="yes"/>
			<point x="367" y="20"/>
			<point x="339" y="56"/>
			<point x="256" y="91" type="curve" smooth="yes"/>
			<point x="164" y="129"/>
			<point x="141" y="164"/>
			<point x="141" y="242" type="curve" smooth="yes"/>
			<point x="141" y="352"/>
			<point x="205" y="441"/>
			<point x="308" y="470" type="curve"/>
			<point x="338" y="470" type="line"/>
			<point x="338" y="483" type="line"/>
			<point x="264" y="483" type="line"/>
			<point x="315" y="427" type="line" smooth="yes"/>
			<point x="339" y="400"/>
			<point x="365" y="384"/>
			<point x="393" y="384" type="curve" smooth="yes"/>
			<point x="431" y="384"/>
			<point x="456" y="409"/>
			<point x="459" y="446" type="curve"/>
			<point x="440" y="479"/>
			<point x="382" y="504"/>
			<point x="314" y="504" type="curve" smooth="yes"/>
			<point x="156" y="504"/>
			<point x="33" y="363"/>
			<point x="33" y="200" type="curve" smooth="yes"/>
			<point x="33" y="89"/>
			<point x="88" y="38"/>
			<point x="180" y="2" type="curve" smooth="yes"/>
			<point x="252" y="-26"/>
			<point x="267" y="-50"/>
			<point x="267" y="-89" type="curve" smooth="yes"/>
			<point x="267" y="-118"/>
			<point x="253" y="-149"/>
		</contour>
	</outline>
</glyph>
<glyph name="sigma" format="2">
	<unicode hex="03C3"/>
	<advance width="586"/>
	<outline>
		<contour>
			<point x="224" y="-13" type="curve" smooth="yes"/>
			<point x="374" y="-13"/>
			<point x="491" y="114"/>
			<point x="491" y="257" type="curve" smooth="yes"/>
			<point x="491" y="352"/>
			<point x="427" y="418"/>
			<point x="332" y="437" type="curve"/>
			<point x="301" y="425" type="line"/>
			<point x="353" y="404"/>
			<point x="378" y="358"/>
			<point x="378" y="281" type="curve" smooth="yes"/>
			<point x="378" y="155"/>
			<point x="316" y="38"/>
			<point x="232" y="38" type="curve" smooth="yes"/>
			<point x="183" y="38"/>
			<point x="153" y="78"/>
			<point x="153" y="166" type="curve" smooth="yes"/>
			<point x="153" y="302"/>
			<point x="217" y="416"/>
			<point x="332" y="425" type="curve"/>
			<point x="355" y="430" type="line"/>
			<point x="579" y="400" type="line"/>
			<point x="595" y="500" type="line"/>
			<point x="343" y="493" type="line" smooth="yes"/>
			<point x="158" y="489"/>
			<point x="35" y="349"/>
			<point x="35" y="180" type="curve" smooth="yes"/>
			<point x="35" y="53"/>
			<point x="114" y="-13"/>
		</contour>
	</outline>
</glyph>
<glyph name="tau" format="2">
	<unicode hex="03C4"/>
	<advance width="483"/>
	<outline>
		<contour>
			<point x="34" y="395" type="line"/>
			<point x="232" y="420" type="line"/>
			<point x="278" y="420" type="line"/>
			<point x="485" y="405" type="line"/>
			<point x="502" y="514" type="line"/>
			<point x="262" y="514" type="line" smooth="yes"/>
			<point x="151" y="514"/>
			<point x="83" y="492"/>
			<point x="27" y="450" type="curve"/>
		</contour>
		<contour>
			<point x="242" y="-13" type="curve" smooth="yes"/>
			<point x="312" y="-13"/>
			<point x="346" y="17"/>
			<point x="394" y="72" type="curve"/>
			<point x="360" y="109" type="line"/>
			<point x="333" y="81"/>
			<point x="320" y="69"/>
			<point x="295" y="69" type="curve" smooth="yes"/>
			<point x="275" y="69"/>
			<point x="261" y="82"/>
			<point x="261" y="109" type="curve" smooth="yes"/>
			<point x="261" y="134"/>
			<point x="268" y="177"/>
			<point x="323" y="472" type="curve"/>
			<point x="230" y="472" type="line"/>
			<point x="155" y="206"/>
			<point x="137" y="133"/>
			<point x="137" y="88" type="curve" smooth="yes"/>
			<point x="137" y="19"/>
			<point x="173" y="-13"/>
		</contour>
	</outline>
</glyph>
<glyph name="upsilon" format="2">
	<unicode hex="03C5"/>
	<advance width="576"/>
	<outline>
		<contour>
			<point x="263" y="-13" type="curve" smooth="yes"/>
			<point x="432" y="-13"/>
			<point x="536" y="125"/>
			<point x="536" y="369" type="curve" smooth="yes"/>
			<point x="536" y="448"/>
			<point x="527" y="489"/>
			<point x="519" y="516" type="curve"/>
			<point x="509" y="521"/>
			<point x="497" y="524"/>
			<point x="478" y="524" type="curve" smooth="yes"/>
			<point x="433" y="524"/>
			<point x="402" y="493"/>
			<point x="402" y="445" type="curve" smooth="yes"/>
			<point x="402" y="396"/>
			<point x="421" y="364"/>
			<point x="483" y="281" type="curve"/>
			<point x="486" y="391" type="line"/>
			<point x="465" y="391" type="line"/>
			<point x="466" y="372"/>
			<point x="468" y="353"/>
			<point x="468" y="328" type="curve" smooth="yes"/>
			<point x="468" y="159"/>
			<point x="392" y="49"/>
			<point x="302" y="49" type="curve" smooth="yes"/>
			<point x="247" y="49"/>
			<point x="220" y="78"/>
			<point x="220" y="132" type="curve" smooth="yes"/>
			<point x="220" y="204"/>
			<point x="281" y="317"/>
			<point x="281" y="418" type="curve" smooth="yes"/>
			<point x="281" y="485"/>
			<point x="247" y="522"/>
			<point x="180" y="522" type="curve" smooth="yes"/>
			<point x="120" y="522"/>
			<point x="77" y="491"/>
			<point x="34" y="444" type="curve"/>
			<point x="60" y="406" type="line"/>
			<point x="77" y="418"/>
			<point x="95" y="430"/>
			<point x="116" y="430" type="curve" smooth="yes"/>
			<point x="138" y="430"/>
			<point x="150" y="415"/>
			<point x="150" y="387" type="curve" smooth="yes"/>
			<point x="150" y="324"/>
			<point x="93" y="215"/>
			<point x="93" y="127" type="curve" smooth="yes"/>
			<point x="93" y="35"/>
			<point x="160" y="-13"/>
		</contour>
	</outline>
	<anchor name="aboveLC" x="344" y="531"/>
</glyph>
<glyph name="psi" format="2">
	<unicode hex="03C8"/>
	<advance width="704"/>
	<outline>
		<contour>
			<point x="276" y="-191" type="line"/>
			<point x="380" y="-174" type="line"/>
			<point x="403" y="14" type="line"/>
			<point x="495" y="634" type="line"/>
			<point x="479" y="648" type="line"/>
			<point x="417" y="639" type="line"/>
			<point x="297" y="13" type="line"/>
			<point x="256" y="-179" type="line"/>
		</contour>
		<contour>
			<point x="305" y="-14" type="curve"/>
			<point x="317" y="39" type="line"/>
			<point x="232" y="42"/>
			<point x="198" y="75"/>
			<point x="198" y="139" type="curve" smooth="yes"/>
			<point x="198" y="222"/>
			<point x="251" y="340"/>
			<point x="251" y="415" type="curve" smooth="yes"/>
			<point x="251" y="471"/>
			<point x="222" y="503"/>
			<point x="167" y="503" type="curve" smooth="yes"/>
			<point x="121" y="503"/>
			<point x="84" y="481"/>
			<point x="32" y="430" type="curve"/>
			<point x="50" y="396" type="line"/>
			<point x="73" y="407"/>
			<point x="91" y="414"/>
			<point x="109" y="414" type="curve" smooth="yes"/>
			<point x="128" y="414"/>
			<point x="136" y="404"/>
			<point x="136" y="382" type="curve" smooth="yes"/>
			<point x="136" y="327"/>
			<point x="88" y="219"/>
			<point x="88" y="139" type="curve" smooth="yes"/>
			<point x="88" y="45"/>
			<point x="158" y="-12"/>
		</contour>
		<contour>
			<point x="373" y="-15" type="line"/>
			<point x="532" y="-11"/>
			<point x="670" y="123"/>
			<point x="670" y="354" type="curve" smooth="yes"/>
			<point x="670" y="406"/>
			<point x="667" y="455"/>
			<point x="659" y="485" type="curve"/>
			<point x="650" y="496"/>
			<point x="635" y="504"/>
			<point x="614" y="504" type="curve" smooth="yes"/>
			<point x="577" y="504"/>
			<point x="547" y="481"/>
			<point x="547" y="432" type="curve" smooth="yes"/>
			<point x="547" y="388"/>
			<point x="563" y="349"/>
			<point x="621" y="262" type="curve"/>
			<point x="630" y="358" type="line"/>
			<point x="600" y="387" type="line"/>
			<point x="604" y="363"/>
			<point x="606" y="339"/>
			<point x="606" y="316" type="curve" smooth="yes"/>
			<point x="606" y="169"/>
			<point x="523" y="41"/>
			<point x="380" y="39" type="curve"/>
		</contour>
	</outline>
</glyph>
<glyph name="kai" format="2">
	<unicode hex="03D7"/>
	<advance width="594"/>
	<outline>
		<contour>
			<point x="95" y="-13" type="line"/>
			<point x="212" y="8" type="line"/>
			<point x="269" y="335" type="line" smooth="yes"/>
			<point x="294" y="472"/>
			<point x="271" y="524"/>
			<point x="181" y="524" type="curve" smooth="yes"/>
			<point x="120" y="524"/>
			<point x="77" y="491"/>
			<point x="37" y="444" type="curve"/>
			<point x="63" y="406" type="line"/>
			<point x="83" y="423"/>
			<point x="98" y="435"/>
			<point x="116" y="435" type="curve" smooth="yes"/>
			<point x="161" y="435"/>
			<point x="153" y="375"/>
			<point x="140" y="320" type="curve" smooth="yes"/>
			<point x="118" y="223"/>
			<point x="104" y="165"/>
			<point x="66" y="3" type="curve"/>
		</contour>
		<contour>
			<point x="230" y="-227" type="curve" smooth="yes"/>
			<point x="402" y="-227"/>
			<point x="503" y="-127"/>
			<point x="580" y="56" type="curve"/>
			<point x="549" y="94" type="line"/>
			<point x="533" y="80"/>
			<point x="517" y="67"/>
			<point x="498" y="67" type="curve" smooth="yes"/>
			<point x="474" y="67"/>
			<point x="461" y="82"/>
			<point x="450" y="124" type="curve" smooth="yes"/>
			<point x="438" y="167" type="line" smooth="yes"/>
			<point x="418" y="238"/>
			<point x="374" y="254"/>
			<point x="288" y="261" type="curve" smooth="yes"/>
			<point x="258" y="263" type="line"/>
			<point x="258" y="273" type="line"/>
			<point x="492" y="368" type="line" smooth="yes"/>
			<point x="557" y="393"/>
			<point x="589" y="417"/>
			<point x="589" y="460" type="curve" smooth="yes"/>
			<point x="589" y="492"/>
			<point x="565" y="511"/>
			<point x="537" y="519" type="curve"/>
			<point x="237" y="278" type="line"/>
			<point x="237" y="246" type="line"/>
			<point x="248" y="243" type="line" smooth="yes"/>
			<point x="285" y="236"/>
			<point x="300" y="219"/>
			<point x="312" y="172" type="curve" smooth="yes"/>
			<point x="331" y="94" type="line" smooth="yes"/>
			<point x="350" y="18"/>
			<point x="382" y="-12"/>
			<point x="443" y="-12" type="curve" smooth="yes"/>
			<point x="473" y="-12"/>
			<point x="503" y="0"/>
			<point x="535" y="30" type="curve"/>
			<point x="512" y="32" type="line"/>
			<point x="533" y="11" type="line"/>
			<point x="449" y="-83"/>
			<point x="354" y="-138"/>
			<point x="227" y="-138" type="curve" smooth="yes"/>
			<point x="140" y="-138"/>
			<point x="71" y="-117"/>
			<point x="30" y="-88" type="curve"/>
			<point x="-7" y="-127" type="line"/>
			<point x="28" y="-175"/>
			<point x="105" y="-227"/>
		</contour>
	</outline>
</glyph>
<glyph name="koppa" format="2">
	<unicode hex="03D9"/>
	<advance width="531"/>
	<outline>
		<contour>
			<point x="134" y="-193" type="line"/>
			<point x="245" y="-173" type="line"/>
			<point x="265" y="16" type="line"/>
			<point x="187" y="16" type="line"/>
			<point x="117" y="-178" type="line"/>
		</contour>
		<component base="omicron"/>
	</outline>
	<anchor name="aboveLC" x="321" y="510"/>
</glyph>
<glyph name="stigma" format="2">
	<unicode hex="03DB"/>
	<advance width="441"/>
	<outline>
		<contour>
			<point x="179" y="-6" type="curve" smooth="yes"/>
			<point x="251" y="-43"/>
			<point x="268" y="-61"/>
			<point x="268" y="-97" type="curve" smooth="yes"/>
			<point x="268" y="-121"/>
			<point x="255" y="-148"/>
			<point x="237" y="-179" type="curve"/>
			<point x="267" y="-203" type="line"/>
			<point x="338" y="-138"/>
			<point x="368" y="-97"/>
			<point x="368" y="-44" type="curve" smooth="yes"/>
			<point x="368" y="7"/>
			<point x="334" y="43"/>
			<point x="245" y="88" type="curve" smooth="yes"/>
			<point x="131" y="146"/>
			<point x="107" y="171"/>
			<point x="107" y="231" type="curve" smooth="yes"/>
			<point x="107" y="314"/>
			<point x="162" y="361"/>
			<point x="282" y="378" type="curve" smooth="yes"/>
			<point x="354" y="388" type="line" smooth="yes"/>
			<point x="437" y="400"/>
			<point x="465" y="427"/>
			<point x="498" y="539" type="curve" smooth="yes"/>
			<point x="514" y="597" type="line"/>
			<point x="459" y="597" type="line"/>
			<point x="439" y="548" type="line" smooth="yes"/>
			<point x="423" y="512"/>
			<point x="399" y="501"/>
			<point x="339" y="492" type="curve" smooth="yes"/>
			<point x="278" y="482" type="line" smooth="yes"/>
			<point x="121" y="456"/>
			<point x="36" y="352"/>
			<point x="36" y="198" type="curve" smooth="yes"/>
			<point x="36" y="103"/>
			<point x="76" y="48"/>
		</contour>
	</outline>
</glyph>
<glyph name="digamma" format="2">
	<unicode hex="03DD"/>
	<advance width="523"/>
	<outline>
		<contour>
			<point x="14" y="-175" type="line"/>
			<point x="43" y="-191" type="line"/>
			<point x="150" y="-170" type="line"/>
			<point x="197" y="139" type="line"/>
			<point x="282" y="495" type="line"/>
			<point x="238" y="453" type="line"/>
			<point x="516" y="453" type="line"/>
			<point x="532" y="522" type="line"/>
			<point x="145" y="510" type="line"/>
			<point x="80" y="108" type="line"/>
		</contour>
		<contour>
			<point x="142" y="169" type="line"/>
			<point x="433" y="169" type="line"/>
			<point x="449" y="233" type="line"/>
			<point x="142" y="228" type="line"/>
		</contour>
	</outline>
	<anchor name="aboveLC" x="352" y="531"/>
</glyph>
<glyph name="sampi" format="2">
	<unicode hex="03E1"/>
	<advance width="600"/>
	<outline>
		<contour>
			<point x="84" y="293" type="line"/>
			<point x="458" y="386" type="line"/>
			<point x="452" y="440" type="line"/>
			<point x="80" y="380" type="line"/>
		</contour>
		<contour>
			<point x="279" y="-149" type="curve"/>
			<point x="316" y="-182" type="line"/>
			<point x="471" y="-61"/>
			<point x="547" y="108"/>
			<point x="547" y="289" type="curve" smooth="yes"/>
			<point x="547" y="534"/>
			<point x="400" y="704"/>
			<point x="150" y="728" type="curve"/>
			<point x="136" y="680" type="line"/>
			<point x="339" y="620"/>
			<point x="429" y="486"/>
			<point x="429" y="270" type="curve" smooth="yes"/>
			<point x="429" y="118"/>
			<point x="383" y="-29"/>
		</contour>
		<contour>
			<point x="89" y="70" type="line"/>
			<point x="468" y="168" type="line"/>
			<point x="463" y="222" type="line"/>
			<point x="81" y="156" type="line"/>
		</contour>
	</outline>
</glyph>
<glyph name="Dje" format="2">
	<unicode hex="0402"/>
	<advance width="791"/>
	<outline>
		<contour>
			<point x="428" y="-88" type="line"/>
			<point x="632" y="-41"/>
			<point x="728" y="81"/>
			<point x="728" y="205" type="curve" smooth="yes"/>
			<point x="728" y="327"/>
			<point x="648" y="387"/>
			<point x="514" y="387" type="curve" smooth="yes"/>
			<point x="436" y="387"/>
			<point x="385" y="366"/>
			<point x="366" y="355" type="curve"/>
			<point x="366" y="302" type="line"/>
			<point x="390" y="313"/>
			<point x="422" y="323"/>
			<point x="473" y="323" type="curve" smooth="yes"/>
			<point x="555" y="323"/>
			<point x="595" y="284"/>
			<point x="595" y="200" type="curve" smooth="yes"/>
			<point x="595" y="113"/>
			<point x="539" y="2"/>
			<point x="415" y="-41" type="curve"/>
		</contour>
		<contour>
			<point x="83" y="482" type="line"/>
			<point x="151" y="482" type="line"/>
			<point x="230" y="642" type="line"/>
			<point x="148" y="599" type="line"/>
			<point x="623" y="599" type="line"/>
			<point x="578" y="633" type="line"/>
			<point x="588" y="482" type="line"/>
			<point x="658" y="482" type="line"/>
			<point x="686" y="664" type="line"/>
			<point x="123" y="664" type="line"/>
		</contour>
		<contour>
			<point x="135" y="0" type="line"/>
			<point x="278" y="0" type="line"/>
			<point x="278" y="66" type="line"/>
			<point x="267" y="66" type="line"/>
			<point x="146" y="66" type="line"/>
		</contour>
		<contour>
			<point x="216" y="0" type="line"/>
			<point x="348" y="0" type="line"/>
			<point x="366" y="101"/>
			<point x="384" y="201"/>
			<point x="402" y="302" type="curve" smooth="yes"/>
			<point x="468" y="664" type="line"/>
			<point x="336" y="664" type="line"/>
			<point x="317" y="563"/>
			<point x="299" y="464"/>
			<point x="281" y="363" type="curve" smooth="yes"/>
		</contour>
	</outline>
</glyph>
<glyph name="Ieukran" format="2">
	<unicode hex="0404"/>
	<advance width="611"/>
	<outline>
		<contour>
			<point x="139" y="313" type="line"/>
			<point x="404" y="312" type="line"/>
			<point x="410" y="367" type="line"/>
			<point x="146" y="366" type="line"/>
		</contour>
		<contour>
			<point x="370" y="223" type="line"/>
			<point x="423" y="223" type="line"/>
			<point x="466" y="451" type="line"/>
			<point x="413" y="451" type="line"/>
			<point x="375" y="352" type="line"/>
			<point x="372" y="331" type="line"/>
		</contour>
		<component base="C"/>
	</outline>
	<anchor name="aboveUC" x="430" y="684"/>
</glyph>
<glyph name="Lje" format="2">
	<unicode hex="0409"/>
	<advance width="936"/>
	<outline>
		<contour>
			<point x="57" y="-17" type="curve" smooth="yes"/>
			<point x="140" y="-17"/>
			<point x="204" y="66"/>
			<point x="255" y="190" type="curve" smooth="yes"/>
			<point x="305" y="303"/>
			<point x="344" y="450"/>
			<point x="380" y="664" type="curve"/>
			<point x="319" y="664" type="line"/>
			<point x="281" y="439"/>
			<point x="245" y="315"/>
			<point x="202" y="208" type="curve" smooth="yes"/>
			<point x="166" y="117"/>
			<point x="136" y="77"/>
			<point x="89" y="30" type="curve"/>
			<point x="81" y="18" type="line"/>
			<point x="127" y="32" type="line"/>
			<point x="112" y="86"/>
			<point x="85" y="113"/>
			<point x="46" y="113" type="curve" smooth="yes"/>
			<point x="10" y="113"/>
			<point x="-15" y="98"/>
			<point x="-29" y="63" type="curve"/>
			<point x="-27" y="11"/>
			<point x="4" y="-17"/>
		</contour>
		<contour>
			<point x="317" y="0" type="line"/>
			<point x="470" y="0" type="line"/>
			<point x="478" y="63" type="line"/>
			<point x="459" y="63" type="line"/>
			<point x="328" y="53" type="line"/>
		</contour>
		<contour>
			<point x="337" y="608" type="line"/>
			<point x="572" y="608" type="line"/>
			<point x="579" y="664" type="line"/>
			<point x="344" y="664" type="line"/>
		</contour>
		<contour>
			<point x="332" y="600" type="line"/>
			<point x="342" y="600" type="line"/>
			<point x="350" y="664" type="line"/>
			<point x="218" y="664" type="line"/>
			<point x="208" y="610" type="line"/>
		</contour>
		<contour>
			<point x="398" y="0" type="line"/>
			<point x="523" y="0" type="line"/>
			<point x="540" y="102"/>
			<point x="559" y="205"/>
			<point x="578" y="308" type="curve" smooth="yes"/>
			<point x="644" y="664" type="line"/>
			<point x="519" y="664" type="line"/>
			<point x="502" y="561"/>
			<point x="484" y="459"/>
			<point x="465" y="357" type="curve" smooth="yes"/>
		</contour>
		<contour>
			<point x="467" y="0" type="line"/>
			<point x="615" y="0" type="line" smooth="yes"/>
			<point x="804" y="0"/>
			<point x="904" y="97"/>
			<point x="904" y="218" type="curve" smooth="yes"/>
			<point x="904" y="324"/>
			<point x="831" y="392"/>
			<point x="675" y="392" type="curve" smooth="yes"/>
			<point x="619" y="392"/>
			<point x="568" y="381"/>
			<point x="531" y="372" type="curve"/>
			<point x="525" y="321" type="line"/>
			<point x="562" y="330"/>
			<point x="598" y="338"/>
			<point x="642" y="338" type="curve" smooth="yes"/>
			<point x="728" y="338"/>
			<point x="779" y="298"/>
			<point x="779" y="216" type="curve" smooth="yes"/>
			<point x="779" y="129"/>
			<point x="723" y="54"/>
			<point x="605" y="54" type="curve" smooth="yes"/>
			<point x="473" y="54" type="line"/>
		</contour>
		<contour>
			<point x="569" y="600" type="line"/>
			<point x="588" y="600" type="line"/>
			<point x="727" y="610" type="line"/>
			<point x="737" y="664" type="line"/>
			<point x="578" y="664" type="line"/>
		</contour>
	</outline>
</glyph>
<glyph name="Tshe" format="2">
	<unicode hex="040B"/>
	<advance width="774"/>
	<outline>
		<contour>
			<point x="64" y="481" type="line"/>
			<point x="131" y="481" type="line"/>
			<point x="199" y="656" type="line"/>
			<point x="126" y="606" type="line"/>
			<point x="599" y="606" type="line"/>
			<point x="553" y="653" type="line"/>
			<point x="553" y="482" type="line"/>
			<point x="619" y="482" type="line"/>
			<point x="649" y="664" type="line"/>
			<point x="102" y="664" type="line"/>
		</contour>
		<contour>
			<point x="523" y="0" type="line"/>
			<point x="648" y="0" type="line"/>
			<point x="684" y="203" type="line" smooth="yes"/>
			<point x="708" y="341"/>
			<point x="640" y="397"/>
			<point x="503" y="397" type="curve" smooth="yes"/>
			<point x="439" y="397"/>
			<point x="374" y="387"/>
			<point x="322" y="373" type="curve"/>
			<point x="316" y="324" type="line"/>
			<point x="364" y="335"/>
			<point x="407" y="341"/>
			<point x="455" y="341" type="curve" smooth="yes"/>
			<point x="555" y="341"/>
			<point x="578" y="291"/>
			<point x="560" y="197" type="curve" smooth="yes"/>
		</contour>
		<contour>
			<point x="100" y="0" type="line"/>
			<point x="397" y="0" type="line"/>
			<point x="407" y="53" type="line"/>
			<point x="283" y="63" type="line"/>
			<point x="245" y="63" type="line"/>
			<point x="110" y="53" type="line"/>
		</contour>
		<contour>
			<point x="189" y="0" type="line"/>
			<point x="314" y="0" type="line"/>
			<point x="331" y="102"/>
			<point x="349" y="205"/>
			<point x="368" y="308" type="curve" smooth="yes"/>
			<point x="435" y="664" type="line"/>
			<point x="309" y="664" type="line"/>
			<point x="292" y="561"/>
			<point x="274" y="459"/>
			<point x="255" y="357" type="curve" smooth="yes"/>
		</contour>
		<contour>
			<point x="445" y="0" type="line"/>
			<point x="724" y="0" type="line"/>
			<point x="734" y="53" type="line"/>
			<point x="609" y="63" type="line"/>
			<point x="572" y="63" type="line"/>
			<point x="455" y="53" type="line"/>
		</contour>
	</outline>
</glyph>
